<?xml version="1.0" encoding="utf-8"?>
<svg xmlns="http://www.w3.org/2000/svg" xmlns:xlink="http://www.w3.org/1999/xlink" width="528" height="336" viewBox="0 0 2112 1344">
<defs>
  <clipPath id="clip640">
    <rect x="0" y="0" width="2112" height="1344"/>
  </clipPath>
</defs>
<path clip-path="url(#clip640)" d="M0 1344 L2112 1344 L2112 0 L0 0  Z" fill="#ffffff" fill-rule="evenodd" fill-opacity="1"/>
<defs>
  <clipPath id="clip641">
    <rect x="422" y="0" width="1479" height="1344"/>
  </clipPath>
</defs>
<path clip-path="url(#clip640)" d="M282.326 1234.58 L2064.76 1234.58 L2064.76 120.723 L282.326 120.723  Z" fill="#ffffff" fill-rule="evenodd" fill-opacity="1"/>
<defs>
  <clipPath id="clip642">
    <rect x="282" y="120" width="1783" height="1115"/>
  </clipPath>
</defs>
<polyline clip-path="url(#clip642)" style="stroke:#000000; stroke-linecap:round; stroke-linejoin:round; stroke-width:2; stroke-opacity:0.1; fill:none" points="332.772,1234.58 332.772,120.723 "/>
<polyline clip-path="url(#clip642)" style="stroke:#000000; stroke-linecap:round; stroke-linejoin:round; stroke-width:2; stroke-opacity:0.1; fill:none" points="767.301,1234.58 767.301,120.723 "/>
<polyline clip-path="url(#clip642)" style="stroke:#000000; stroke-linecap:round; stroke-linejoin:round; stroke-width:2; stroke-opacity:0.1; fill:none" points="1201.83,1234.58 1201.83,120.723 "/>
<polyline clip-path="url(#clip642)" style="stroke:#000000; stroke-linecap:round; stroke-linejoin:round; stroke-width:2; stroke-opacity:0.1; fill:none" points="1636.36,1234.58 1636.36,120.723 "/>
<polyline clip-path="url(#clip640)" style="stroke:#000000; stroke-linecap:round; stroke-linejoin:round; stroke-width:4; stroke-opacity:1; fill:none" points="282.326,1234.58 2064.76,1234.58 "/>
<polyline clip-path="url(#clip640)" style="stroke:#000000; stroke-linecap:round; stroke-linejoin:round; stroke-width:4; stroke-opacity:1; fill:none" points="332.772,1234.58 332.772,1215.68 "/>
<polyline clip-path="url(#clip640)" style="stroke:#000000; stroke-linecap:round; stroke-linejoin:round; stroke-width:4; stroke-opacity:1; fill:none" points="767.301,1234.58 767.301,1215.68 "/>
<polyline clip-path="url(#clip640)" style="stroke:#000000; stroke-linecap:round; stroke-linejoin:round; stroke-width:4; stroke-opacity:1; fill:none" points="1201.83,1234.58 1201.83,1215.68 "/>
<polyline clip-path="url(#clip640)" style="stroke:#000000; stroke-linecap:round; stroke-linejoin:round; stroke-width:4; stroke-opacity:1; fill:none" points="1636.36,1234.58 1636.36,1215.68 "/>
<path clip-path="url(#clip640)" d="M204.567 1290.74 L220.886 1290.74 L220.886 1294.67 L198.942 1294.67 L198.942 1290.74 Q201.604 1287.99 206.187 1283.36 Q210.794 1278.7 211.974 1277.36 Q214.219 1274.84 215.099 1273.1 Q216.002 1271.34 216.002 1269.65 Q216.002 1266.9 214.057 1265.16 Q212.136 1263.42 209.034 1263.42 Q206.835 1263.42 204.382 1264.19 Q201.951 1264.95 199.173 1266.5 L199.173 1261.78 Q201.997 1260.65 204.451 1260.07 Q206.905 1259.49 208.942 1259.49 Q214.312 1259.49 217.506 1262.17 Q220.701 1264.86 220.701 1269.35 Q220.701 1271.48 219.891 1273.4 Q219.104 1275.3 216.997 1277.89 Q216.418 1278.56 213.317 1281.78 Q210.215 1284.98 204.567 1290.74 Z" fill="#000000" fill-rule="nonzero" fill-opacity="1" /><path clip-path="url(#clip640)" d="M240.701 1263.19 Q237.09 1263.19 235.261 1266.76 Q233.455 1270.3 233.455 1277.43 Q233.455 1284.54 235.261 1288.1 Q237.09 1291.64 240.701 1291.64 Q244.335 1291.64 246.141 1288.1 Q247.969 1284.54 247.969 1277.43 Q247.969 1270.3 246.141 1266.76 Q244.335 1263.19 240.701 1263.19 M240.701 1259.49 Q246.511 1259.49 249.566 1264.1 Q252.645 1268.68 252.645 1277.43 Q252.645 1286.16 249.566 1290.76 Q246.511 1295.35 240.701 1295.35 Q234.891 1295.35 231.812 1290.76 Q228.756 1286.16 228.756 1277.43 Q228.756 1268.68 231.812 1264.1 Q234.891 1259.49 240.701 1259.49 Z" fill="#000000" fill-rule="nonzero" fill-opacity="1" /><path clip-path="url(#clip640)" d="M264.89 1290.74 L281.21 1290.74 L281.21 1294.67 L259.265 1294.67 L259.265 1290.74 Q261.928 1287.99 266.511 1283.36 Q271.117 1278.7 272.298 1277.36 Q274.543 1274.84 275.423 1273.1 Q276.326 1271.34 276.326 1269.65 Q276.326 1266.9 274.381 1265.16 Q272.46 1263.42 269.358 1263.42 Q267.159 1263.42 264.705 1264.19 Q262.275 1264.95 259.497 1266.5 L259.497 1261.78 Q262.321 1260.65 264.775 1260.07 Q267.228 1259.49 269.265 1259.49 Q274.636 1259.49 277.83 1262.17 Q281.025 1264.86 281.025 1269.35 Q281.025 1271.48 280.214 1273.4 Q279.427 1275.3 277.321 1277.89 Q276.742 1278.56 273.64 1281.78 Q270.539 1284.98 264.89 1290.74 Z" fill="#000000" fill-rule="nonzero" fill-opacity="1" /><path clip-path="url(#clip640)" d="M301.025 1263.19 Q297.413 1263.19 295.585 1266.76 Q293.779 1270.3 293.779 1277.43 Q293.779 1284.54 295.585 1288.1 Q297.413 1291.64 301.025 1291.64 Q304.659 1291.64 306.464 1288.1 Q308.293 1284.54 308.293 1277.43 Q308.293 1270.3 306.464 1266.76 Q304.659 1263.19 301.025 1263.19 M301.025 1259.49 Q306.835 1259.49 309.89 1264.1 Q312.969 1268.68 312.969 1277.43 Q312.969 1286.16 309.89 1290.76 Q306.835 1295.35 301.025 1295.35 Q295.214 1295.35 292.136 1290.76 Q289.08 1286.16 289.08 1277.43 Q289.08 1268.68 292.136 1264.1 Q295.214 1259.49 301.025 1259.49 Z" fill="#000000" fill-rule="nonzero" fill-opacity="1" /><path clip-path="url(#clip640)" d="M318.432 1279.79 L330.909 1279.79 L330.909 1283.59 L318.432 1283.59 L318.432 1279.79 Z" fill="#000000" fill-rule="nonzero" fill-opacity="1" /><path clip-path="url(#clip640)" d="M348.293 1263.19 Q344.682 1263.19 342.853 1266.76 Q341.047 1270.3 341.047 1277.43 Q341.047 1284.54 342.853 1288.1 Q344.682 1291.64 348.293 1291.64 Q351.927 1291.64 353.733 1288.1 Q355.561 1284.54 355.561 1277.43 Q355.561 1270.3 353.733 1266.76 Q351.927 1263.19 348.293 1263.19 M348.293 1259.49 Q354.103 1259.49 357.158 1264.1 Q360.237 1268.68 360.237 1277.43 Q360.237 1286.16 357.158 1290.76 Q354.103 1295.35 348.293 1295.35 Q342.483 1295.35 339.404 1290.76 Q336.348 1286.16 336.348 1277.43 Q336.348 1268.68 339.404 1264.1 Q342.483 1259.49 348.293 1259.49 Z" fill="#000000" fill-rule="nonzero" fill-opacity="1" /><path clip-path="url(#clip640)" d="M382.621 1276.04 Q385.978 1276.76 387.853 1279.03 Q389.751 1281.3 389.751 1284.63 Q389.751 1289.74 386.232 1292.55 Q382.714 1295.35 376.232 1295.35 Q374.057 1295.35 371.742 1294.91 Q369.45 1294.49 366.996 1293.63 L366.996 1289.12 Q368.941 1290.25 371.256 1290.83 Q373.57 1291.41 376.094 1291.41 Q380.492 1291.41 382.783 1289.67 Q385.098 1287.94 385.098 1284.63 Q385.098 1281.57 382.945 1279.86 Q380.816 1278.12 376.996 1278.12 L372.969 1278.12 L372.969 1274.28 L377.182 1274.28 Q380.631 1274.28 382.459 1272.92 Q384.288 1271.53 384.288 1268.93 Q384.288 1266.27 382.39 1264.86 Q380.515 1263.42 376.996 1263.42 Q375.075 1263.42 372.876 1263.84 Q370.677 1264.26 368.038 1265.14 L368.038 1260.97 Q370.7 1260.23 373.015 1259.86 Q375.353 1259.49 377.413 1259.49 Q382.737 1259.49 385.839 1261.92 Q388.941 1264.33 388.941 1268.45 Q388.941 1271.32 387.297 1273.31 Q385.654 1275.28 382.621 1276.04 Z" fill="#000000" fill-rule="nonzero" fill-opacity="1" /><path clip-path="url(#clip640)" d="M395.862 1279.79 L408.339 1279.79 L408.339 1283.59 L395.862 1283.59 L395.862 1279.79 Z" fill="#000000" fill-rule="nonzero" fill-opacity="1" /><path clip-path="url(#clip640)" d="M425.723 1263.19 Q422.112 1263.19 420.283 1266.76 Q418.478 1270.3 418.478 1277.43 Q418.478 1284.54 420.283 1288.1 Q422.112 1291.64 425.723 1291.64 Q429.357 1291.64 431.163 1288.1 Q432.991 1284.54 432.991 1277.43 Q432.991 1270.3 431.163 1266.76 Q429.357 1263.19 425.723 1263.19 M425.723 1259.49 Q431.533 1259.49 434.589 1264.1 Q437.667 1268.68 437.667 1277.43 Q437.667 1286.16 434.589 1290.76 Q431.533 1295.35 425.723 1295.35 Q419.913 1295.35 416.834 1290.76 Q413.779 1286.16 413.779 1277.43 Q413.779 1268.68 416.834 1264.1 Q419.913 1259.49 425.723 1259.49 Z" fill="#000000" fill-rule="nonzero" fill-opacity="1" /><path clip-path="url(#clip640)" d="M446.695 1290.74 L454.334 1290.74 L454.334 1264.37 L446.024 1266.04 L446.024 1261.78 L454.288 1260.11 L458.963 1260.11 L458.963 1290.74 L466.602 1290.74 L466.602 1294.67 L446.695 1294.67 L446.695 1290.74 Z" fill="#000000" fill-rule="nonzero" fill-opacity="1" /><path clip-path="url(#clip640)" d="M638.575 1290.74 L654.894 1290.74 L654.894 1294.67 L632.95 1294.67 L632.95 1290.74 Q635.612 1287.99 640.196 1283.36 Q644.802 1278.7 645.983 1277.36 Q648.228 1274.84 649.107 1273.1 Q650.01 1271.34 650.01 1269.65 Q650.01 1266.9 648.066 1265.16 Q646.145 1263.42 643.043 1263.42 Q640.844 1263.42 638.39 1264.19 Q635.959 1264.95 633.182 1266.5 L633.182 1261.78 Q636.006 1260.65 638.459 1260.07 Q640.913 1259.49 642.95 1259.49 Q648.32 1259.49 651.515 1262.17 Q654.709 1264.86 654.709 1269.35 Q654.709 1271.48 653.899 1273.4 Q653.112 1275.3 651.006 1277.89 Q650.427 1278.56 647.325 1281.78 Q644.223 1284.98 638.575 1290.74 Z" fill="#000000" fill-rule="nonzero" fill-opacity="1" /><path clip-path="url(#clip640)" d="M674.709 1263.19 Q671.098 1263.19 669.269 1266.76 Q667.464 1270.3 667.464 1277.43 Q667.464 1284.54 669.269 1288.1 Q671.098 1291.64 674.709 1291.64 Q678.343 1291.64 680.149 1288.1 Q681.978 1284.54 681.978 1277.43 Q681.978 1270.3 680.149 1266.76 Q678.343 1263.19 674.709 1263.19 M674.709 1259.49 Q680.519 1259.49 683.575 1264.1 Q686.654 1268.68 686.654 1277.43 Q686.654 1286.16 683.575 1290.76 Q680.519 1295.35 674.709 1295.35 Q668.899 1295.35 665.82 1290.76 Q662.765 1286.16 662.765 1277.43 Q662.765 1268.68 665.82 1264.1 Q668.899 1259.49 674.709 1259.49 Z" fill="#000000" fill-rule="nonzero" fill-opacity="1" /><path clip-path="url(#clip640)" d="M698.899 1290.74 L715.218 1290.74 L715.218 1294.67 L693.274 1294.67 L693.274 1290.74 Q695.936 1287.99 700.519 1283.36 Q705.126 1278.7 706.306 1277.36 Q708.552 1274.84 709.431 1273.1 Q710.334 1271.34 710.334 1269.65 Q710.334 1266.9 708.39 1265.16 Q706.468 1263.42 703.366 1263.42 Q701.167 1263.42 698.714 1264.19 Q696.283 1264.95 693.505 1266.5 L693.505 1261.78 Q696.329 1260.65 698.783 1260.07 Q701.237 1259.49 703.274 1259.49 Q708.644 1259.49 711.839 1262.17 Q715.033 1264.86 715.033 1269.35 Q715.033 1271.48 714.223 1273.4 Q713.436 1275.3 711.329 1277.89 Q710.751 1278.56 707.649 1281.78 Q704.547 1284.98 698.899 1290.74 Z" fill="#000000" fill-rule="nonzero" fill-opacity="1" /><path clip-path="url(#clip640)" d="M735.033 1263.19 Q731.422 1263.19 729.593 1266.76 Q727.788 1270.3 727.788 1277.43 Q727.788 1284.54 729.593 1288.1 Q731.422 1291.64 735.033 1291.64 Q738.667 1291.64 740.473 1288.1 Q742.301 1284.54 742.301 1277.43 Q742.301 1270.3 740.473 1266.76 Q738.667 1263.19 735.033 1263.19 M735.033 1259.49 Q740.843 1259.49 743.899 1264.1 Q746.977 1268.68 746.977 1277.43 Q746.977 1286.16 743.899 1290.76 Q740.843 1295.35 735.033 1295.35 Q729.223 1295.35 726.144 1290.76 Q723.089 1286.16 723.089 1277.43 Q723.089 1268.68 726.144 1264.1 Q729.223 1259.49 735.033 1259.49 Z" fill="#000000" fill-rule="nonzero" fill-opacity="1" /><path clip-path="url(#clip640)" d="M752.44 1279.79 L764.917 1279.79 L764.917 1283.59 L752.44 1283.59 L752.44 1279.79 Z" fill="#000000" fill-rule="nonzero" fill-opacity="1" /><path clip-path="url(#clip640)" d="M782.301 1263.19 Q778.69 1263.19 776.861 1266.76 Q775.056 1270.3 775.056 1277.43 Q775.056 1284.54 776.861 1288.1 Q778.69 1291.64 782.301 1291.64 Q785.935 1291.64 787.741 1288.1 Q789.57 1284.54 789.57 1277.43 Q789.57 1270.3 787.741 1266.76 Q785.935 1263.19 782.301 1263.19 M782.301 1259.49 Q788.111 1259.49 791.167 1264.1 Q794.246 1268.68 794.246 1277.43 Q794.246 1286.16 791.167 1290.76 Q788.111 1295.35 782.301 1295.35 Q776.491 1295.35 773.412 1290.76 Q770.357 1286.16 770.357 1277.43 Q770.357 1268.68 773.412 1264.1 Q776.491 1259.49 782.301 1259.49 Z" fill="#000000" fill-rule="nonzero" fill-opacity="1" /><path clip-path="url(#clip640)" d="M816.63 1276.04 Q819.986 1276.76 821.861 1279.03 Q823.759 1281.3 823.759 1284.63 Q823.759 1289.74 820.241 1292.55 Q816.722 1295.35 810.241 1295.35 Q808.065 1295.35 805.75 1294.91 Q803.459 1294.49 801.005 1293.63 L801.005 1289.12 Q802.949 1290.25 805.264 1290.83 Q807.579 1291.41 810.102 1291.41 Q814.5 1291.41 816.792 1289.67 Q819.107 1287.94 819.107 1284.63 Q819.107 1281.57 816.954 1279.86 Q814.824 1278.12 811.005 1278.12 L806.977 1278.12 L806.977 1274.28 L811.19 1274.28 Q814.639 1274.28 816.468 1272.92 Q818.296 1271.53 818.296 1268.93 Q818.296 1266.27 816.398 1264.86 Q814.523 1263.42 811.005 1263.42 Q809.083 1263.42 806.884 1263.84 Q804.685 1264.26 802.046 1265.14 L802.046 1260.97 Q804.709 1260.23 807.023 1259.86 Q809.361 1259.49 811.421 1259.49 Q816.745 1259.49 819.847 1261.92 Q822.949 1264.33 822.949 1268.45 Q822.949 1271.32 821.306 1273.31 Q819.662 1275.28 816.63 1276.04 Z" fill="#000000" fill-rule="nonzero" fill-opacity="1" /><path clip-path="url(#clip640)" d="M829.87 1279.79 L842.347 1279.79 L842.347 1283.59 L829.87 1283.59 L829.87 1279.79 Z" fill="#000000" fill-rule="nonzero" fill-opacity="1" /><path clip-path="url(#clip640)" d="M859.731 1263.19 Q856.12 1263.19 854.292 1266.76 Q852.486 1270.3 852.486 1277.43 Q852.486 1284.54 854.292 1288.1 Q856.12 1291.64 859.731 1291.64 Q863.366 1291.64 865.171 1288.1 Q867 1284.54 867 1277.43 Q867 1270.3 865.171 1266.76 Q863.366 1263.19 859.731 1263.19 M859.731 1259.49 Q865.542 1259.49 868.597 1264.1 Q871.676 1268.68 871.676 1277.43 Q871.676 1286.16 868.597 1290.76 Q865.542 1295.35 859.731 1295.35 Q853.921 1295.35 850.843 1290.76 Q847.787 1286.16 847.787 1277.43 Q847.787 1268.68 850.843 1264.1 Q853.921 1259.49 859.731 1259.49 Z" fill="#000000" fill-rule="nonzero" fill-opacity="1" /><path clip-path="url(#clip640)" d="M880.032 1293.96 L880.032 1289.7 Q881.791 1290.53 883.597 1290.97 Q885.403 1291.41 887.139 1291.41 Q891.768 1291.41 894.199 1288.31 Q896.652 1285.18 897 1278.84 Q895.657 1280.83 893.597 1281.9 Q891.537 1282.96 889.037 1282.96 Q883.852 1282.96 880.819 1279.84 Q877.81 1276.69 877.81 1271.25 Q877.81 1265.92 880.958 1262.71 Q884.106 1259.49 889.338 1259.49 Q895.333 1259.49 898.481 1264.1 Q901.652 1268.68 901.652 1277.43 Q901.652 1285.6 897.764 1290.48 Q893.898 1295.35 887.347 1295.35 Q885.588 1295.35 883.782 1295 Q881.977 1294.65 880.032 1293.96 M889.338 1279.3 Q892.486 1279.3 894.315 1277.15 Q896.166 1275 896.166 1271.25 Q896.166 1267.52 894.315 1265.37 Q892.486 1263.19 889.338 1263.19 Q886.19 1263.19 884.338 1265.37 Q882.509 1267.52 882.509 1271.25 Q882.509 1275 884.338 1277.15 Q886.19 1279.3 889.338 1279.3 Z" fill="#000000" fill-rule="nonzero" fill-opacity="1" /><path clip-path="url(#clip640)" d="M1073.46 1290.74 L1089.78 1290.74 L1089.78 1294.67 L1067.84 1294.67 L1067.84 1290.74 Q1070.5 1287.99 1075.08 1283.36 Q1079.69 1278.7 1080.87 1277.36 Q1083.12 1274.84 1084 1273.1 Q1084.9 1271.34 1084.9 1269.65 Q1084.9 1266.9 1082.95 1265.16 Q1081.03 1263.42 1077.93 1263.42 Q1075.73 1263.42 1073.28 1264.19 Q1070.85 1264.95 1068.07 1266.5 L1068.07 1261.78 Q1070.89 1260.65 1073.35 1260.07 Q1075.8 1259.49 1077.84 1259.49 Q1083.21 1259.49 1086.4 1262.17 Q1089.6 1264.86 1089.6 1269.35 Q1089.6 1271.48 1088.79 1273.4 Q1088 1275.3 1085.89 1277.89 Q1085.31 1278.56 1082.21 1281.78 Q1079.11 1284.98 1073.46 1290.74 Z" fill="#000000" fill-rule="nonzero" fill-opacity="1" /><path clip-path="url(#clip640)" d="M1109.6 1263.19 Q1105.99 1263.19 1104.16 1266.76 Q1102.35 1270.3 1102.35 1277.43 Q1102.35 1284.54 1104.16 1288.1 Q1105.99 1291.64 1109.6 1291.64 Q1113.23 1291.64 1115.04 1288.1 Q1116.87 1284.54 1116.87 1277.43 Q1116.87 1270.3 1115.04 1266.76 Q1113.23 1263.19 1109.6 1263.19 M1109.6 1259.49 Q1115.41 1259.49 1118.46 1264.1 Q1121.54 1268.68 1121.54 1277.43 Q1121.54 1286.16 1118.46 1290.76 Q1115.41 1295.35 1109.6 1295.35 Q1103.79 1295.35 1100.71 1290.76 Q1097.65 1286.16 1097.65 1277.43 Q1097.65 1268.68 1100.71 1264.1 Q1103.79 1259.49 1109.6 1259.49 Z" fill="#000000" fill-rule="nonzero" fill-opacity="1" /><path clip-path="url(#clip640)" d="M1133.79 1290.74 L1150.11 1290.74 L1150.11 1294.67 L1128.16 1294.67 L1128.16 1290.74 Q1130.82 1287.99 1135.41 1283.36 Q1140.01 1278.7 1141.19 1277.36 Q1143.44 1274.84 1144.32 1273.1 Q1145.22 1271.34 1145.22 1269.65 Q1145.22 1266.9 1143.28 1265.16 Q1141.36 1263.42 1138.25 1263.42 Q1136.06 1263.42 1133.6 1264.19 Q1131.17 1264.95 1128.39 1266.5 L1128.39 1261.78 Q1131.22 1260.65 1133.67 1260.07 Q1136.12 1259.49 1138.16 1259.49 Q1143.53 1259.49 1146.73 1262.17 Q1149.92 1264.86 1149.92 1269.35 Q1149.92 1271.48 1149.11 1273.4 Q1148.32 1275.3 1146.22 1277.89 Q1145.64 1278.56 1142.54 1281.78 Q1139.44 1284.98 1133.79 1290.74 Z" fill="#000000" fill-rule="nonzero" fill-opacity="1" /><path clip-path="url(#clip640)" d="M1169.92 1263.19 Q1166.31 1263.19 1164.48 1266.76 Q1162.68 1270.3 1162.68 1277.43 Q1162.68 1284.54 1164.48 1288.1 Q1166.31 1291.64 1169.92 1291.64 Q1173.56 1291.64 1175.36 1288.1 Q1177.19 1284.54 1177.19 1277.43 Q1177.19 1270.3 1175.36 1266.76 Q1173.56 1263.19 1169.92 1263.19 M1169.92 1259.49 Q1175.73 1259.49 1178.79 1264.1 Q1181.87 1268.68 1181.87 1277.43 Q1181.87 1286.16 1178.79 1290.76 Q1175.73 1295.35 1169.92 1295.35 Q1164.11 1295.35 1161.03 1290.76 Q1157.98 1286.16 1157.98 1277.43 Q1157.98 1268.68 1161.03 1264.1 Q1164.11 1259.49 1169.92 1259.49 Z" fill="#000000" fill-rule="nonzero" fill-opacity="1" /><path clip-path="url(#clip640)" d="M1187.33 1279.79 L1199.81 1279.79 L1199.81 1283.59 L1187.33 1283.59 L1187.33 1279.79 Z" fill="#000000" fill-rule="nonzero" fill-opacity="1" /><path clip-path="url(#clip640)" d="M1217.19 1263.19 Q1213.58 1263.19 1211.75 1266.76 Q1209.94 1270.3 1209.94 1277.43 Q1209.94 1284.54 1211.75 1288.1 Q1213.58 1291.64 1217.19 1291.64 Q1220.82 1291.64 1222.63 1288.1 Q1224.46 1284.54 1224.46 1277.43 Q1224.46 1270.3 1222.63 1266.76 Q1220.82 1263.19 1217.19 1263.19 M1217.19 1259.49 Q1223 1259.49 1226.05 1264.1 Q1229.13 1268.68 1229.13 1277.43 Q1229.13 1286.16 1226.05 1290.76 Q1223 1295.35 1217.19 1295.35 Q1211.38 1295.35 1208.3 1290.76 Q1205.24 1286.16 1205.24 1277.43 Q1205.24 1268.68 1208.3 1264.1 Q1211.38 1259.49 1217.19 1259.49 Z" fill="#000000" fill-rule="nonzero" fill-opacity="1" /><path clip-path="url(#clip640)" d="M1251.52 1276.04 Q1254.87 1276.76 1256.75 1279.03 Q1258.65 1281.3 1258.65 1284.63 Q1258.65 1289.74 1255.13 1292.55 Q1251.61 1295.35 1245.13 1295.35 Q1242.95 1295.35 1240.64 1294.91 Q1238.35 1294.49 1235.89 1293.63 L1235.89 1289.12 Q1237.84 1290.25 1240.15 1290.83 Q1242.47 1291.41 1244.99 1291.41 Q1249.39 1291.41 1251.68 1289.67 Q1253.99 1287.94 1253.99 1284.63 Q1253.99 1281.57 1251.84 1279.86 Q1249.71 1278.12 1245.89 1278.12 L1241.87 1278.12 L1241.87 1274.28 L1246.08 1274.28 Q1249.53 1274.28 1251.36 1272.92 Q1253.18 1271.53 1253.18 1268.93 Q1253.18 1266.27 1251.29 1264.86 Q1249.41 1263.42 1245.89 1263.42 Q1243.97 1263.42 1241.77 1263.84 Q1239.57 1264.26 1236.93 1265.14 L1236.93 1260.97 Q1239.6 1260.23 1241.91 1259.86 Q1244.25 1259.49 1246.31 1259.49 Q1251.63 1259.49 1254.74 1261.92 Q1257.84 1264.33 1257.84 1268.45 Q1257.84 1271.32 1256.19 1273.31 Q1254.55 1275.28 1251.52 1276.04 Z" fill="#000000" fill-rule="nonzero" fill-opacity="1" /><path clip-path="url(#clip640)" d="M1264.76 1279.79 L1277.24 1279.79 L1277.24 1283.59 L1264.76 1283.59 L1264.76 1279.79 Z" fill="#000000" fill-rule="nonzero" fill-opacity="1" /><path clip-path="url(#clip640)" d="M1285.43 1290.74 L1293.07 1290.74 L1293.07 1264.37 L1284.76 1266.04 L1284.76 1261.78 L1293.02 1260.11 L1297.7 1260.11 L1297.7 1290.74 L1305.34 1290.74 L1305.34 1294.67 L1285.43 1294.67 L1285.43 1290.74 Z" fill="#000000" fill-rule="nonzero" fill-opacity="1" /><path clip-path="url(#clip640)" d="M1313.6 1260.11 L1335.82 1260.11 L1335.82 1262.11 L1323.28 1294.67 L1318.39 1294.67 L1330.2 1264.05 L1313.6 1264.05 L1313.6 1260.11 Z" fill="#000000" fill-rule="nonzero" fill-opacity="1" /><path clip-path="url(#clip640)" d="M1508.04 1290.74 L1524.36 1290.74 L1524.36 1294.67 L1502.41 1294.67 L1502.41 1290.74 Q1505.08 1287.99 1509.66 1283.36 Q1514.27 1278.7 1515.45 1277.36 Q1517.69 1274.84 1518.57 1273.1 Q1519.47 1271.34 1519.47 1269.65 Q1519.47 1266.9 1517.53 1265.16 Q1515.61 1263.42 1512.51 1263.42 Q1510.31 1263.42 1507.85 1264.19 Q1505.42 1264.95 1502.65 1266.5 L1502.65 1261.78 Q1505.47 1260.65 1507.92 1260.07 Q1510.38 1259.49 1512.41 1259.49 Q1517.78 1259.49 1520.98 1262.17 Q1524.17 1264.86 1524.17 1269.35 Q1524.17 1271.48 1523.36 1273.4 Q1522.58 1275.3 1520.47 1277.89 Q1519.89 1278.56 1516.79 1281.78 Q1513.69 1284.98 1508.04 1290.74 Z" fill="#000000" fill-rule="nonzero" fill-opacity="1" /><path clip-path="url(#clip640)" d="M1544.17 1263.19 Q1540.56 1263.19 1538.73 1266.76 Q1536.93 1270.3 1536.93 1277.43 Q1536.93 1284.54 1538.73 1288.1 Q1540.56 1291.64 1544.17 1291.64 Q1547.81 1291.64 1549.61 1288.1 Q1551.44 1284.54 1551.44 1277.43 Q1551.44 1270.3 1549.61 1266.76 Q1547.81 1263.19 1544.17 1263.19 M1544.17 1259.49 Q1549.98 1259.49 1553.04 1264.1 Q1556.12 1268.68 1556.12 1277.43 Q1556.12 1286.16 1553.04 1290.76 Q1549.98 1295.35 1544.17 1295.35 Q1538.36 1295.35 1535.28 1290.76 Q1532.23 1286.16 1532.23 1277.43 Q1532.23 1268.68 1535.28 1264.1 Q1538.36 1259.49 1544.17 1259.49 Z" fill="#000000" fill-rule="nonzero" fill-opacity="1" /><path clip-path="url(#clip640)" d="M1568.36 1290.74 L1584.68 1290.74 L1584.68 1294.67 L1562.74 1294.67 L1562.74 1290.74 Q1565.4 1287.99 1569.98 1283.36 Q1574.59 1278.7 1575.77 1277.36 Q1578.02 1274.84 1578.89 1273.1 Q1579.8 1271.34 1579.8 1269.65 Q1579.8 1266.9 1577.85 1265.16 Q1575.93 1263.42 1572.83 1263.42 Q1570.63 1263.42 1568.18 1264.19 Q1565.75 1264.95 1562.97 1266.5 L1562.97 1261.78 Q1565.79 1260.65 1568.25 1260.07 Q1570.7 1259.49 1572.74 1259.49 Q1578.11 1259.49 1581.3 1262.17 Q1584.5 1264.86 1584.5 1269.35 Q1584.5 1271.48 1583.69 1273.4 Q1582.9 1275.3 1580.79 1277.89 Q1580.21 1278.56 1577.11 1281.78 Q1574.01 1284.98 1568.36 1290.74 Z" fill="#000000" fill-rule="nonzero" fill-opacity="1" /><path clip-path="url(#clip640)" d="M1604.5 1263.19 Q1600.89 1263.19 1599.06 1266.76 Q1597.25 1270.3 1597.25 1277.43 Q1597.25 1284.54 1599.06 1288.1 Q1600.89 1291.64 1604.5 1291.64 Q1608.13 1291.64 1609.94 1288.1 Q1611.77 1284.54 1611.77 1277.43 Q1611.77 1270.3 1609.94 1266.76 Q1608.13 1263.19 1604.5 1263.19 M1604.5 1259.49 Q1610.31 1259.49 1613.36 1264.1 Q1616.44 1268.68 1616.44 1277.43 Q1616.44 1286.16 1613.36 1290.76 Q1610.31 1295.35 1604.5 1295.35 Q1598.69 1295.35 1595.61 1290.76 Q1592.55 1286.16 1592.55 1277.43 Q1592.55 1268.68 1595.61 1264.1 Q1598.69 1259.49 1604.5 1259.49 Z" fill="#000000" fill-rule="nonzero" fill-opacity="1" /><path clip-path="url(#clip640)" d="M1621.9 1279.79 L1634.38 1279.79 L1634.38 1283.59 L1621.9 1283.59 L1621.9 1279.79 Z" fill="#000000" fill-rule="nonzero" fill-opacity="1" /><path clip-path="url(#clip640)" d="M1651.76 1263.19 Q1648.15 1263.19 1646.33 1266.76 Q1644.52 1270.3 1644.52 1277.43 Q1644.52 1284.54 1646.33 1288.1 Q1648.15 1291.64 1651.76 1291.64 Q1655.4 1291.64 1657.2 1288.1 Q1659.03 1284.54 1659.03 1277.43 Q1659.03 1270.3 1657.2 1266.76 Q1655.4 1263.19 1651.76 1263.19 M1651.76 1259.49 Q1657.58 1259.49 1660.63 1264.1 Q1663.71 1268.68 1663.71 1277.43 Q1663.71 1286.16 1660.63 1290.76 Q1657.58 1295.35 1651.76 1295.35 Q1645.95 1295.35 1642.88 1290.76 Q1639.82 1286.16 1639.82 1277.43 Q1639.82 1268.68 1642.88 1264.1 Q1645.95 1259.49 1651.76 1259.49 Z" fill="#000000" fill-rule="nonzero" fill-opacity="1" /><path clip-path="url(#clip640)" d="M1686.09 1276.04 Q1689.45 1276.76 1691.32 1279.03 Q1693.22 1281.3 1693.22 1284.63 Q1693.22 1289.74 1689.7 1292.55 Q1686.19 1295.35 1679.7 1295.35 Q1677.53 1295.35 1675.21 1294.91 Q1672.92 1294.49 1670.47 1293.63 L1670.47 1289.12 Q1672.41 1290.25 1674.73 1290.83 Q1677.04 1291.41 1679.57 1291.41 Q1683.96 1291.41 1686.26 1289.67 Q1688.57 1287.94 1688.57 1284.63 Q1688.57 1281.57 1686.42 1279.86 Q1684.29 1278.12 1680.47 1278.12 L1676.44 1278.12 L1676.44 1274.28 L1680.65 1274.28 Q1684.1 1274.28 1685.93 1272.92 Q1687.76 1271.53 1687.76 1268.93 Q1687.76 1266.27 1685.86 1264.86 Q1683.99 1263.42 1680.47 1263.42 Q1678.55 1263.42 1676.35 1263.84 Q1674.15 1264.26 1671.51 1265.14 L1671.51 1260.97 Q1674.17 1260.23 1676.49 1259.86 Q1678.82 1259.49 1680.89 1259.49 Q1686.21 1259.49 1689.31 1261.92 Q1692.41 1264.33 1692.41 1268.45 Q1692.41 1271.32 1690.77 1273.31 Q1689.13 1275.28 1686.09 1276.04 Z" fill="#000000" fill-rule="nonzero" fill-opacity="1" /><path clip-path="url(#clip640)" d="M1699.33 1279.79 L1711.81 1279.79 L1711.81 1283.59 L1699.33 1283.59 L1699.33 1279.79 Z" fill="#000000" fill-rule="nonzero" fill-opacity="1" /><path clip-path="url(#clip640)" d="M1723.22 1290.74 L1739.54 1290.74 L1739.54 1294.67 L1717.6 1294.67 L1717.6 1290.74 Q1720.26 1287.99 1724.84 1283.36 Q1729.45 1278.7 1730.63 1277.36 Q1732.88 1274.84 1733.76 1273.1 Q1734.66 1271.34 1734.66 1269.65 Q1734.66 1266.9 1732.71 1265.16 Q1730.79 1263.42 1727.69 1263.42 Q1725.49 1263.42 1723.04 1264.19 Q1720.61 1264.95 1717.83 1266.5 L1717.83 1261.78 Q1720.65 1260.65 1723.11 1260.07 Q1725.56 1259.49 1727.6 1259.49 Q1732.97 1259.49 1736.16 1262.17 Q1739.36 1264.86 1739.36 1269.35 Q1739.36 1271.48 1738.55 1273.4 Q1737.76 1275.3 1735.65 1277.89 Q1735.07 1278.56 1731.97 1281.78 Q1728.87 1284.98 1723.22 1290.74 Z" fill="#000000" fill-rule="nonzero" fill-opacity="1" /><path clip-path="url(#clip640)" d="M1749.4 1260.11 L1767.76 1260.11 L1767.76 1264.05 L1753.69 1264.05 L1753.69 1272.52 Q1754.7 1272.17 1755.72 1272.01 Q1756.74 1271.83 1757.76 1271.83 Q1763.55 1271.83 1766.93 1275 Q1770.31 1278.17 1770.31 1283.59 Q1770.31 1289.17 1766.83 1292.27 Q1763.36 1295.35 1757.04 1295.35 Q1754.87 1295.35 1752.6 1294.98 Q1750.35 1294.61 1747.94 1293.86 L1747.94 1289.17 Q1750.03 1290.3 1752.25 1290.86 Q1754.47 1291.41 1756.95 1291.41 Q1760.95 1291.41 1763.29 1289.3 Q1765.63 1287.2 1765.63 1283.59 Q1765.63 1279.98 1763.29 1277.87 Q1760.95 1275.76 1756.95 1275.76 Q1755.07 1275.76 1753.2 1276.18 Q1751.35 1276.6 1749.4 1277.48 L1749.4 1260.11 Z" fill="#000000" fill-rule="nonzero" fill-opacity="1" /><polyline clip-path="url(#clip642)" style="stroke:#000000; stroke-linecap:round; stroke-linejoin:round; stroke-width:2; stroke-opacity:0.1; fill:none" points="282.326,1192.78 2064.76,1192.78 "/>
<polyline clip-path="url(#clip642)" style="stroke:#000000; stroke-linecap:round; stroke-linejoin:round; stroke-width:2; stroke-opacity:0.1; fill:none" points="282.326,1032.2 2064.76,1032.2 "/>
<polyline clip-path="url(#clip642)" style="stroke:#000000; stroke-linecap:round; stroke-linejoin:round; stroke-width:2; stroke-opacity:0.1; fill:none" points="282.326,871.626 2064.76,871.626 "/>
<polyline clip-path="url(#clip642)" style="stroke:#000000; stroke-linecap:round; stroke-linejoin:round; stroke-width:2; stroke-opacity:0.1; fill:none" points="282.326,711.051 2064.76,711.051 "/>
<polyline clip-path="url(#clip642)" style="stroke:#000000; stroke-linecap:round; stroke-linejoin:round; stroke-width:2; stroke-opacity:0.1; fill:none" points="282.326,550.475 2064.76,550.475 "/>
<polyline clip-path="url(#clip642)" style="stroke:#000000; stroke-linecap:round; stroke-linejoin:round; stroke-width:2; stroke-opacity:0.1; fill:none" points="282.326,389.899 2064.76,389.899 "/>
<polyline clip-path="url(#clip642)" style="stroke:#000000; stroke-linecap:round; stroke-linejoin:round; stroke-width:2; stroke-opacity:0.1; fill:none" points="282.326,229.324 2064.76,229.324 "/>
<polyline clip-path="url(#clip640)" style="stroke:#000000; stroke-linecap:round; stroke-linejoin:round; stroke-width:4; stroke-opacity:1; fill:none" points="282.326,1234.58 282.326,120.723 "/>
<polyline clip-path="url(#clip640)" style="stroke:#000000; stroke-linecap:round; stroke-linejoin:round; stroke-width:4; stroke-opacity:1; fill:none" points="282.326,1192.78 301.224,1192.78 "/>
<polyline clip-path="url(#clip640)" style="stroke:#000000; stroke-linecap:round; stroke-linejoin:round; stroke-width:4; stroke-opacity:1; fill:none" points="282.326,1032.2 301.224,1032.2 "/>
<polyline clip-path="url(#clip640)" style="stroke:#000000; stroke-linecap:round; stroke-linejoin:round; stroke-width:4; stroke-opacity:1; fill:none" points="282.326,871.626 301.224,871.626 "/>
<polyline clip-path="url(#clip640)" style="stroke:#000000; stroke-linecap:round; stroke-linejoin:round; stroke-width:4; stroke-opacity:1; fill:none" points="282.326,711.051 301.224,711.051 "/>
<polyline clip-path="url(#clip640)" style="stroke:#000000; stroke-linecap:round; stroke-linejoin:round; stroke-width:4; stroke-opacity:1; fill:none" points="282.326,550.475 301.224,550.475 "/>
<polyline clip-path="url(#clip640)" style="stroke:#000000; stroke-linecap:round; stroke-linejoin:round; stroke-width:4; stroke-opacity:1; fill:none" points="282.326,389.899 301.224,389.899 "/>
<polyline clip-path="url(#clip640)" style="stroke:#000000; stroke-linecap:round; stroke-linejoin:round; stroke-width:4; stroke-opacity:1; fill:none" points="282.326,229.324 301.224,229.324 "/>
<path clip-path="url(#clip640)" d="M114.536 1193.23 L144.211 1193.23 L144.211 1197.16 L114.536 1197.16 L114.536 1193.23 Z" fill="#000000" fill-rule="nonzero" fill-opacity="1" /><path clip-path="url(#clip640)" d="M164.304 1178.58 Q160.693 1178.58 158.864 1182.14 Q157.058 1185.68 157.058 1192.81 Q157.058 1199.92 158.864 1203.48 Q160.693 1207.03 164.304 1207.03 Q167.938 1207.03 169.744 1203.48 Q171.572 1199.92 171.572 1192.81 Q171.572 1185.68 169.744 1182.14 Q167.938 1178.58 164.304 1178.58 M164.304 1174.87 Q170.114 1174.87 173.169 1179.48 Q176.248 1184.06 176.248 1192.81 Q176.248 1201.54 173.169 1206.15 Q170.114 1210.73 164.304 1210.73 Q158.494 1210.73 155.415 1206.15 Q152.359 1201.54 152.359 1192.81 Q152.359 1184.06 155.415 1179.48 Q158.494 1174.87 164.304 1174.87 Z" fill="#000000" fill-rule="nonzero" fill-opacity="1" /><path clip-path="url(#clip640)" d="M184.466 1204.18 L189.35 1204.18 L189.35 1210.06 L184.466 1210.06 L184.466 1204.18 Z" fill="#000000" fill-rule="nonzero" fill-opacity="1" /><path clip-path="url(#clip640)" d="M198.355 1175.5 L220.577 1175.5 L220.577 1177.49 L208.03 1210.06 L203.146 1210.06 L214.952 1179.43 L198.355 1179.43 L198.355 1175.5 Z" fill="#000000" fill-rule="nonzero" fill-opacity="1" /><path clip-path="url(#clip640)" d="M229.743 1175.5 L248.1 1175.5 L248.1 1179.43 L234.026 1179.43 L234.026 1187.91 Q235.044 1187.56 236.063 1187.4 Q237.081 1187.21 238.1 1187.21 Q243.887 1187.21 247.266 1190.38 Q250.646 1193.55 250.646 1198.97 Q250.646 1204.55 247.174 1207.65 Q243.701 1210.73 237.382 1210.73 Q235.206 1210.73 232.938 1210.36 Q230.692 1209.99 228.285 1209.25 L228.285 1204.55 Q230.368 1205.68 232.59 1206.24 Q234.813 1206.79 237.289 1206.79 Q241.294 1206.79 243.632 1204.69 Q245.97 1202.58 245.97 1198.97 Q245.97 1195.36 243.632 1193.25 Q241.294 1191.15 237.289 1191.15 Q235.415 1191.15 233.54 1191.56 Q231.688 1191.98 229.743 1192.86 L229.743 1175.5 Z" fill="#000000" fill-rule="nonzero" fill-opacity="1" /><path clip-path="url(#clip640)" d="M113.54 1032.65 L143.216 1032.65 L143.216 1036.59 L113.54 1036.59 L113.54 1032.65 Z" fill="#000000" fill-rule="nonzero" fill-opacity="1" /><path clip-path="url(#clip640)" d="M163.308 1018 Q159.697 1018 157.869 1021.57 Q156.063 1025.11 156.063 1032.24 Q156.063 1039.34 157.869 1042.91 Q159.697 1046.45 163.308 1046.45 Q166.943 1046.45 168.748 1042.91 Q170.577 1039.34 170.577 1032.24 Q170.577 1025.11 168.748 1021.57 Q166.943 1018 163.308 1018 M163.308 1014.3 Q169.119 1014.3 172.174 1018.9 Q175.253 1023.49 175.253 1032.24 Q175.253 1040.96 172.174 1045.57 Q169.119 1050.15 163.308 1050.15 Q157.498 1050.15 154.42 1045.57 Q151.364 1040.96 151.364 1032.24 Q151.364 1023.49 154.42 1018.9 Q157.498 1014.3 163.308 1014.3 Z" fill="#000000" fill-rule="nonzero" fill-opacity="1" /><path clip-path="url(#clip640)" d="M183.47 1043.6 L188.355 1043.6 L188.355 1049.48 L183.47 1049.48 L183.47 1043.6 Z" fill="#000000" fill-rule="nonzero" fill-opacity="1" /><path clip-path="url(#clip640)" d="M198.586 1014.92 L216.942 1014.92 L216.942 1018.86 L202.868 1018.86 L202.868 1027.33 Q203.887 1026.98 204.905 1026.82 Q205.924 1026.63 206.942 1026.63 Q212.729 1026.63 216.109 1029.81 Q219.489 1032.98 219.489 1038.39 Q219.489 1043.97 216.016 1047.07 Q212.544 1050.15 206.225 1050.15 Q204.049 1050.15 201.78 1049.78 Q199.535 1049.41 197.128 1048.67 L197.128 1043.97 Q199.211 1045.11 201.433 1045.66 Q203.655 1046.22 206.132 1046.22 Q210.137 1046.22 212.475 1044.11 Q214.813 1042.01 214.813 1038.39 Q214.813 1034.78 212.475 1032.68 Q210.137 1030.57 206.132 1030.57 Q204.257 1030.57 202.382 1030.99 Q200.53 1031.4 198.586 1032.28 L198.586 1014.92 Z" fill="#000000" fill-rule="nonzero" fill-opacity="1" /><path clip-path="url(#clip640)" d="M238.702 1018 Q235.09 1018 233.262 1021.57 Q231.456 1025.11 231.456 1032.24 Q231.456 1039.34 233.262 1042.91 Q235.09 1046.45 238.702 1046.45 Q242.336 1046.45 244.141 1042.91 Q245.97 1039.34 245.97 1032.24 Q245.97 1025.11 244.141 1021.57 Q242.336 1018 238.702 1018 M238.702 1014.3 Q244.512 1014.3 247.567 1018.9 Q250.646 1023.49 250.646 1032.24 Q250.646 1040.96 247.567 1045.57 Q244.512 1050.15 238.702 1050.15 Q232.891 1050.15 229.813 1045.57 Q226.757 1040.96 226.757 1032.24 Q226.757 1023.49 229.813 1018.9 Q232.891 1014.3 238.702 1014.3 Z" fill="#000000" fill-rule="nonzero" fill-opacity="1" /><path clip-path="url(#clip640)" d="M114.536 872.078 L144.211 872.078 L144.211 876.013 L114.536 876.013 L114.536 872.078 Z" fill="#000000" fill-rule="nonzero" fill-opacity="1" /><path clip-path="url(#clip640)" d="M164.304 857.425 Q160.693 857.425 158.864 860.99 Q157.058 864.531 157.058 871.661 Q157.058 878.768 158.864 882.332 Q160.693 885.874 164.304 885.874 Q167.938 885.874 169.744 882.332 Q171.572 878.768 171.572 871.661 Q171.572 864.531 169.744 860.99 Q167.938 857.425 164.304 857.425 M164.304 853.721 Q170.114 853.721 173.169 858.328 Q176.248 862.911 176.248 871.661 Q176.248 880.388 173.169 884.994 Q170.114 889.578 164.304 889.578 Q158.494 889.578 155.415 884.994 Q152.359 880.388 152.359 871.661 Q152.359 862.911 155.415 858.328 Q158.494 853.721 164.304 853.721 Z" fill="#000000" fill-rule="nonzero" fill-opacity="1" /><path clip-path="url(#clip640)" d="M184.466 883.027 L189.35 883.027 L189.35 888.906 L184.466 888.906 L184.466 883.027 Z" fill="#000000" fill-rule="nonzero" fill-opacity="1" /><path clip-path="url(#clip640)" d="M203.563 884.971 L219.882 884.971 L219.882 888.906 L197.938 888.906 L197.938 884.971 Q200.6 882.217 205.183 877.587 Q209.79 872.934 210.97 871.592 Q213.216 869.068 214.095 867.332 Q214.998 865.573 214.998 863.883 Q214.998 861.129 213.054 859.393 Q211.132 857.657 208.03 857.657 Q205.831 857.657 203.378 858.42 Q200.947 859.184 198.169 860.735 L198.169 856.013 Q200.993 854.879 203.447 854.3 Q205.901 853.721 207.938 853.721 Q213.308 853.721 216.503 856.407 Q219.697 859.092 219.697 863.582 Q219.697 865.712 218.887 867.633 Q218.1 869.531 215.993 872.124 Q215.415 872.795 212.313 876.013 Q209.211 879.207 203.563 884.971 Z" fill="#000000" fill-rule="nonzero" fill-opacity="1" /><path clip-path="url(#clip640)" d="M229.743 854.346 L248.1 854.346 L248.1 858.282 L234.026 858.282 L234.026 866.754 Q235.044 866.406 236.063 866.244 Q237.081 866.059 238.1 866.059 Q243.887 866.059 247.266 869.231 Q250.646 872.402 250.646 877.818 Q250.646 883.397 247.174 886.499 Q243.701 889.578 237.382 889.578 Q235.206 889.578 232.938 889.207 Q230.692 888.837 228.285 888.096 L228.285 883.397 Q230.368 884.531 232.59 885.087 Q234.813 885.642 237.289 885.642 Q241.294 885.642 243.632 883.536 Q245.97 881.43 245.97 877.818 Q245.97 874.207 243.632 872.101 Q241.294 869.994 237.289 869.994 Q235.415 869.994 233.54 870.411 Q231.688 870.828 229.743 871.707 L229.743 854.346 Z" fill="#000000" fill-rule="nonzero" fill-opacity="1" /><path clip-path="url(#clip640)" d="M163.308 696.849 Q159.697 696.849 157.869 700.414 Q156.063 703.956 156.063 711.085 Q156.063 718.192 157.869 721.757 Q159.697 725.298 163.308 725.298 Q166.943 725.298 168.748 721.757 Q170.577 718.192 170.577 711.085 Q170.577 703.956 168.748 700.414 Q166.943 696.849 163.308 696.849 M163.308 693.146 Q169.119 693.146 172.174 697.752 Q175.253 702.335 175.253 711.085 Q175.253 719.812 172.174 724.419 Q169.119 729.002 163.308 729.002 Q157.498 729.002 154.42 724.419 Q151.364 719.812 151.364 711.085 Q151.364 702.335 154.42 697.752 Q157.498 693.146 163.308 693.146 Z" fill="#000000" fill-rule="nonzero" fill-opacity="1" /><path clip-path="url(#clip640)" d="M183.47 722.451 L188.355 722.451 L188.355 728.331 L183.47 728.331 L183.47 722.451 Z" fill="#000000" fill-rule="nonzero" fill-opacity="1" /><path clip-path="url(#clip640)" d="M208.54 696.849 Q204.929 696.849 203.1 700.414 Q201.294 703.956 201.294 711.085 Q201.294 718.192 203.1 721.757 Q204.929 725.298 208.54 725.298 Q212.174 725.298 213.979 721.757 Q215.808 718.192 215.808 711.085 Q215.808 703.956 213.979 700.414 Q212.174 696.849 208.54 696.849 M208.54 693.146 Q214.35 693.146 217.405 697.752 Q220.484 702.335 220.484 711.085 Q220.484 719.812 217.405 724.419 Q214.35 729.002 208.54 729.002 Q202.729 729.002 199.651 724.419 Q196.595 719.812 196.595 711.085 Q196.595 702.335 199.651 697.752 Q202.729 693.146 208.54 693.146 Z" fill="#000000" fill-rule="nonzero" fill-opacity="1" /><path clip-path="url(#clip640)" d="M238.702 696.849 Q235.09 696.849 233.262 700.414 Q231.456 703.956 231.456 711.085 Q231.456 718.192 233.262 721.757 Q235.09 725.298 238.702 725.298 Q242.336 725.298 244.141 721.757 Q245.97 718.192 245.97 711.085 Q245.97 703.956 244.141 700.414 Q242.336 696.849 238.702 696.849 M238.702 693.146 Q244.512 693.146 247.567 697.752 Q250.646 702.335 250.646 711.085 Q250.646 719.812 247.567 724.419 Q244.512 729.002 238.702 729.002 Q232.891 729.002 229.813 724.419 Q226.757 719.812 226.757 711.085 Q226.757 702.335 229.813 697.752 Q232.891 693.146 238.702 693.146 Z" fill="#000000" fill-rule="nonzero" fill-opacity="1" /><path clip-path="url(#clip640)" d="M164.304 536.274 Q160.693 536.274 158.864 539.838 Q157.058 543.38 157.058 550.51 Q157.058 557.616 158.864 561.181 Q160.693 564.723 164.304 564.723 Q167.938 564.723 169.744 561.181 Q171.572 557.616 171.572 550.51 Q171.572 543.38 169.744 539.838 Q167.938 536.274 164.304 536.274 M164.304 532.57 Q170.114 532.57 173.169 537.176 Q176.248 541.76 176.248 550.51 Q176.248 559.236 173.169 563.843 Q170.114 568.426 164.304 568.426 Q158.494 568.426 155.415 563.843 Q152.359 559.236 152.359 550.51 Q152.359 541.76 155.415 537.176 Q158.494 532.57 164.304 532.57 Z" fill="#000000" fill-rule="nonzero" fill-opacity="1" /><path clip-path="url(#clip640)" d="M184.466 561.875 L189.35 561.875 L189.35 567.755 L184.466 567.755 L184.466 561.875 Z" fill="#000000" fill-rule="nonzero" fill-opacity="1" /><path clip-path="url(#clip640)" d="M203.563 563.82 L219.882 563.82 L219.882 567.755 L197.938 567.755 L197.938 563.82 Q200.6 561.065 205.183 556.436 Q209.79 551.783 210.97 550.44 Q213.216 547.917 214.095 546.181 Q214.998 544.422 214.998 542.732 Q214.998 539.977 213.054 538.241 Q211.132 536.505 208.03 536.505 Q205.831 536.505 203.378 537.269 Q200.947 538.033 198.169 539.584 L198.169 534.862 Q200.993 533.727 203.447 533.149 Q205.901 532.57 207.938 532.57 Q213.308 532.57 216.503 535.255 Q219.697 537.94 219.697 542.431 Q219.697 544.561 218.887 546.482 Q218.1 548.38 215.993 550.973 Q215.415 551.644 212.313 554.862 Q209.211 558.056 203.563 563.82 Z" fill="#000000" fill-rule="nonzero" fill-opacity="1" /><path clip-path="url(#clip640)" d="M229.743 533.195 L248.1 533.195 L248.1 537.13 L234.026 537.13 L234.026 545.602 Q235.044 545.255 236.063 545.093 Q237.081 544.908 238.1 544.908 Q243.887 544.908 247.266 548.079 Q250.646 551.25 250.646 556.667 Q250.646 562.246 247.174 565.348 Q243.701 568.426 237.382 568.426 Q235.206 568.426 232.938 568.056 Q230.692 567.686 228.285 566.945 L228.285 562.246 Q230.368 563.38 232.59 563.936 Q234.813 564.491 237.289 564.491 Q241.294 564.491 243.632 562.385 Q245.97 560.278 245.97 556.667 Q245.97 553.056 243.632 550.949 Q241.294 548.843 237.289 548.843 Q235.415 548.843 233.54 549.26 Q231.688 549.676 229.743 550.556 L229.743 533.195 Z" fill="#000000" fill-rule="nonzero" fill-opacity="1" /><path clip-path="url(#clip640)" d="M163.308 375.698 Q159.697 375.698 157.869 379.263 Q156.063 382.804 156.063 389.934 Q156.063 397.04 157.869 400.605 Q159.697 404.147 163.308 404.147 Q166.943 404.147 168.748 400.605 Q170.577 397.04 170.577 389.934 Q170.577 382.804 168.748 379.263 Q166.943 375.698 163.308 375.698 M163.308 371.994 Q169.119 371.994 172.174 376.601 Q175.253 381.184 175.253 389.934 Q175.253 398.661 172.174 403.267 Q169.119 407.851 163.308 407.851 Q157.498 407.851 154.42 403.267 Q151.364 398.661 151.364 389.934 Q151.364 381.184 154.42 376.601 Q157.498 371.994 163.308 371.994 Z" fill="#000000" fill-rule="nonzero" fill-opacity="1" /><path clip-path="url(#clip640)" d="M183.47 401.3 L188.355 401.3 L188.355 407.179 L183.47 407.179 L183.47 401.3 Z" fill="#000000" fill-rule="nonzero" fill-opacity="1" /><path clip-path="url(#clip640)" d="M198.586 372.619 L216.942 372.619 L216.942 376.554 L202.868 376.554 L202.868 385.027 Q203.887 384.679 204.905 384.517 Q205.924 384.332 206.942 384.332 Q212.729 384.332 216.109 387.503 Q219.489 390.675 219.489 396.091 Q219.489 401.67 216.016 404.772 Q212.544 407.851 206.225 407.851 Q204.049 407.851 201.78 407.48 Q199.535 407.11 197.128 406.369 L197.128 401.67 Q199.211 402.804 201.433 403.36 Q203.655 403.915 206.132 403.915 Q210.137 403.915 212.475 401.809 Q214.813 399.702 214.813 396.091 Q214.813 392.48 212.475 390.374 Q210.137 388.267 206.132 388.267 Q204.257 388.267 202.382 388.684 Q200.53 389.101 198.586 389.98 L198.586 372.619 Z" fill="#000000" fill-rule="nonzero" fill-opacity="1" /><path clip-path="url(#clip640)" d="M238.702 375.698 Q235.09 375.698 233.262 379.263 Q231.456 382.804 231.456 389.934 Q231.456 397.04 233.262 400.605 Q235.09 404.147 238.702 404.147 Q242.336 404.147 244.141 400.605 Q245.97 397.04 245.97 389.934 Q245.97 382.804 244.141 379.263 Q242.336 375.698 238.702 375.698 M238.702 371.994 Q244.512 371.994 247.567 376.601 Q250.646 381.184 250.646 389.934 Q250.646 398.661 247.567 403.267 Q244.512 407.851 238.702 407.851 Q232.891 407.851 229.813 403.267 Q226.757 398.661 226.757 389.934 Q226.757 381.184 229.813 376.601 Q232.891 371.994 238.702 371.994 Z" fill="#000000" fill-rule="nonzero" fill-opacity="1" /><path clip-path="url(#clip640)" d="M164.304 215.122 Q160.693 215.122 158.864 218.687 Q157.058 222.229 157.058 229.358 Q157.058 236.465 158.864 240.03 Q160.693 243.571 164.304 243.571 Q167.938 243.571 169.744 240.03 Q171.572 236.465 171.572 229.358 Q171.572 222.229 169.744 218.687 Q167.938 215.122 164.304 215.122 M164.304 211.419 Q170.114 211.419 173.169 216.025 Q176.248 220.608 176.248 229.358 Q176.248 238.085 173.169 242.692 Q170.114 247.275 164.304 247.275 Q158.494 247.275 155.415 242.692 Q152.359 238.085 152.359 229.358 Q152.359 220.608 155.415 216.025 Q158.494 211.419 164.304 211.419 Z" fill="#000000" fill-rule="nonzero" fill-opacity="1" /><path clip-path="url(#clip640)" d="M184.466 240.724 L189.35 240.724 L189.35 246.604 L184.466 246.604 L184.466 240.724 Z" fill="#000000" fill-rule="nonzero" fill-opacity="1" /><path clip-path="url(#clip640)" d="M198.355 212.044 L220.577 212.044 L220.577 214.034 L208.03 246.604 L203.146 246.604 L214.952 215.979 L198.355 215.979 L198.355 212.044 Z" fill="#000000" fill-rule="nonzero" fill-opacity="1" /><path clip-path="url(#clip640)" d="M229.743 212.044 L248.1 212.044 L248.1 215.979 L234.026 215.979 L234.026 224.451 Q235.044 224.104 236.063 223.942 Q237.081 223.756 238.1 223.756 Q243.887 223.756 247.266 226.928 Q250.646 230.099 250.646 235.516 Q250.646 241.094 247.174 244.196 Q243.701 247.275 237.382 247.275 Q235.206 247.275 232.938 246.905 Q230.692 246.534 228.285 245.793 L228.285 241.094 Q230.368 242.229 232.59 242.784 Q234.813 243.34 237.289 243.34 Q241.294 243.34 243.632 241.233 Q245.97 239.127 245.97 235.516 Q245.97 231.905 243.632 229.798 Q241.294 227.692 237.289 227.692 Q235.415 227.692 233.54 228.108 Q231.688 228.525 229.743 229.405 L229.743 212.044 Z" fill="#000000" fill-rule="nonzero" fill-opacity="1" /><path clip-path="url(#clip640)" d="M20.0842 925.516 L20.0842 919.023 L60.2518 909.028 L20.0842 899.066 L20.0842 891.841 L60.2518 881.847 L20.0842 871.885 L20.0842 865.36 L67.6042 877.295 L67.6042 885.38 L26.3544 895.406 L67.6042 905.527 L67.6042 913.612 L20.0842 925.516 Z" fill="#000000" fill-rule="nonzero" fill-opacity="1" /><path clip-path="url(#clip640)" d="M49.6847 845.053 Q49.6847 852.151 51.3079 854.888 Q52.9312 857.625 56.8461 857.625 Q59.9653 857.625 61.8114 855.588 Q63.6256 853.519 63.6256 849.987 Q63.6256 845.117 60.1881 842.189 Q56.7188 839.228 50.9897 839.228 L49.6847 839.228 L49.6847 845.053 M47.2657 833.372 L67.6042 833.372 L67.6042 839.228 L62.1933 839.228 Q65.4398 841.234 66.9994 844.226 Q68.5272 847.217 68.5272 851.546 Q68.5272 857.021 65.4716 860.267 Q62.3843 863.482 57.2281 863.482 Q51.2125 863.482 48.1569 859.471 Q45.1014 855.429 45.1014 847.44 L45.1014 839.228 L44.5285 839.228 Q40.4862 839.228 38.2901 841.902 Q36.0621 844.544 36.0621 849.35 Q36.0621 852.405 36.7941 855.302 Q37.5262 858.198 38.9903 860.872 L33.5795 860.872 Q32.3381 857.657 31.7334 854.633 Q31.0968 851.61 31.0968 848.745 Q31.0968 841.011 35.1072 837.191 Q39.1176 833.372 47.2657 833.372 Z" fill="#000000" fill-rule="nonzero" fill-opacity="1" /><path clip-path="url(#clip640)" d="M21.8347 815.516 L31.9562 815.516 L31.9562 803.453 L36.5077 803.453 L36.5077 815.516 L55.8594 815.516 Q60.2199 815.516 61.4613 814.339 Q62.7026 813.129 62.7026 809.469 L62.7026 803.453 L67.6042 803.453 L67.6042 809.469 Q67.6042 816.248 65.0897 818.826 Q62.5434 821.404 55.8594 821.404 L36.5077 821.404 L36.5077 825.701 L31.9562 825.701 L31.9562 821.404 L21.8347 821.404 L21.8347 815.516 Z" fill="#000000" fill-rule="nonzero" fill-opacity="1" /><path clip-path="url(#clip640)" d="M48.3161 765.259 L51.1806 765.259 L51.1806 792.186 Q57.2281 791.804 60.4109 788.557 Q63.5619 785.279 63.5619 779.454 Q63.5619 776.081 62.7344 772.93 Q61.9069 769.747 60.2518 766.628 L65.7899 766.628 Q67.1267 769.779 67.827 773.089 Q68.5272 776.399 68.5272 779.805 Q68.5272 788.335 63.5619 793.332 Q58.5967 798.297 50.1303 798.297 Q41.3774 798.297 36.2531 793.586 Q31.0968 788.844 31.0968 780.823 Q31.0968 773.63 35.7438 769.46 Q40.3589 765.259 48.3161 765.259 M46.5973 771.115 Q41.7912 771.179 38.9266 773.821 Q36.0621 776.431 36.0621 780.759 Q36.0621 785.661 38.8312 788.621 Q41.6002 791.549 46.6292 791.995 L46.5973 771.115 Z" fill="#000000" fill-rule="nonzero" fill-opacity="1" /><path clip-path="url(#clip640)" d="M37.4307 734.99 Q36.8578 735.977 36.6032 737.154 Q36.3167 738.3 36.3167 739.701 Q36.3167 744.666 39.5632 747.339 Q42.7779 749.981 48.8253 749.981 L67.6042 749.981 L67.6042 755.87 L31.9562 755.87 L31.9562 749.981 L37.4944 749.981 Q34.2479 748.135 32.6883 745.175 Q31.0968 742.215 31.0968 737.982 Q31.0968 737.377 31.1923 736.645 Q31.256 735.913 31.4151 735.022 L37.4307 734.99 Z" fill="#000000" fill-rule="nonzero" fill-opacity="1" /><path clip-path="url(#clip640)" d="M18.079 708.127 L18.079 702.27 L67.6042 702.27 L67.6042 708.127 L18.079 708.127 Z" fill="#000000" fill-rule="nonzero" fill-opacity="1" /><path clip-path="url(#clip640)" d="M48.3161 659.525 L51.1806 659.525 L51.1806 686.451 Q57.2281 686.07 60.4109 682.823 Q63.5619 679.545 63.5619 673.72 Q63.5619 670.346 62.7344 667.195 Q61.9069 664.012 60.2518 660.893 L65.7899 660.893 Q67.1267 664.044 67.827 667.354 Q68.5272 670.665 68.5272 674.07 Q68.5272 682.6 63.5619 687.597 Q58.5967 692.563 50.1303 692.563 Q41.3774 692.563 36.2531 687.852 Q31.0968 683.11 31.0968 675.089 Q31.0968 667.895 35.7438 663.726 Q40.3589 659.525 48.3161 659.525 M46.5973 665.381 Q41.7912 665.445 38.9266 668.086 Q36.0621 670.696 36.0621 675.025 Q36.0621 679.927 38.8312 682.887 Q41.6002 685.815 46.6292 686.261 L46.5973 665.381 Z" fill="#000000" fill-rule="nonzero" fill-opacity="1" /><path clip-path="url(#clip640)" d="M31.9562 654.114 L31.9562 647.907 L61.875 636.767 L31.9562 625.627 L31.9562 619.421 L67.6042 632.789 L67.6042 640.746 L31.9562 654.114 Z" fill="#000000" fill-rule="nonzero" fill-opacity="1" /><path clip-path="url(#clip640)" d="M48.3161 580.844 L51.1806 580.844 L51.1806 607.771 Q57.2281 607.389 60.4109 604.143 Q63.5619 600.865 63.5619 595.04 Q63.5619 591.666 62.7344 588.515 Q61.9069 585.332 60.2518 582.213 L65.7899 582.213 Q67.1267 585.364 67.827 588.674 Q68.5272 591.984 68.5272 595.39 Q68.5272 603.92 63.5619 608.917 Q58.5967 613.882 50.1303 613.882 Q41.3774 613.882 36.2531 609.172 Q31.0968 604.429 31.0968 596.409 Q31.0968 589.215 35.7438 585.046 Q40.3589 580.844 48.3161 580.844 M46.5973 586.701 Q41.7912 586.765 38.9266 589.406 Q36.0621 592.016 36.0621 596.345 Q36.0621 601.247 38.8312 604.207 Q41.6002 607.135 46.6292 607.58 L46.5973 586.701 Z" fill="#000000" fill-rule="nonzero" fill-opacity="1" /><path clip-path="url(#clip640)" d="M18.079 571.232 L18.079 565.376 L67.6042 565.376 L67.6042 571.232 L18.079 571.232 Z" fill="#000000" fill-rule="nonzero" fill-opacity="1" /><path clip-path="url(#clip640)" d="M18.1426 518.333 Q25.4632 522.598 32.6246 524.667 Q39.786 526.736 47.1384 526.736 Q54.4908 526.736 61.7159 524.667 Q68.9091 522.566 76.1979 518.333 L76.1979 523.426 Q68.7182 528.2 61.4931 530.587 Q54.268 532.942 47.1384 532.942 Q40.0406 532.942 32.8474 530.587 Q25.6542 528.232 18.1426 523.426 L18.1426 518.333 Z" fill="#000000" fill-rule="nonzero" fill-opacity="1" /><path clip-path="url(#clip640)" d="M38.7993 479.216 Q34.8526 477.02 32.9747 473.964 Q31.0968 470.909 31.0968 466.771 Q31.0968 461.201 35.0117 458.177 Q38.8948 455.154 46.0881 455.154 L67.6042 455.154 L67.6042 461.042 L46.279 461.042 Q41.1546 461.042 38.672 462.856 Q36.1894 464.67 36.1894 468.394 Q36.1894 472.946 39.2131 475.587 Q42.2368 478.229 47.4567 478.229 L67.6042 478.229 L67.6042 484.118 L46.279 484.118 Q41.1228 484.118 38.672 485.932 Q36.1894 487.746 36.1894 491.534 Q36.1894 496.021 39.2449 498.663 Q42.2686 501.305 47.4567 501.305 L67.6042 501.305 L67.6042 507.193 L31.9562 507.193 L31.9562 501.305 L37.4944 501.305 Q34.216 499.3 32.6564 496.499 Q31.0968 493.698 31.0968 489.847 Q31.0968 485.964 33.0702 483.258 Q35.0436 480.521 38.7993 479.216 Z" fill="#000000" fill-rule="nonzero" fill-opacity="1" /><path clip-path="url(#clip640)" d="M18.1426 444.396 L18.1426 439.303 Q25.6542 434.529 32.8474 432.173 Q40.0406 429.786 47.1384 429.786 Q54.268 429.786 61.4931 432.173 Q68.7182 434.529 76.1979 439.303 L76.1979 444.396 Q68.9091 440.162 61.7159 438.093 Q54.4908 435.993 47.1384 435.993 Q39.786 435.993 32.6246 438.093 Q25.4632 440.162 18.1426 444.396 Z" fill="#000000" fill-rule="nonzero" fill-opacity="1" /><path clip-path="url(#clip640)" d="M498.539 12.096 L506.803 12.096 L519.522 63.2184 L532.202 12.096 L541.397 12.096 L554.117 63.2184 L566.796 12.096 L575.101 12.096 L559.91 72.576 L549.621 72.576 L536.86 20.0763 L523.978 72.576 L513.689 72.576 L498.539 12.096 Z" fill="#000000" fill-rule="nonzero" fill-opacity="1" /><path clip-path="url(#clip640)" d="M600.946 49.7694 Q591.912 49.7694 588.428 51.8354 Q584.945 53.9013 584.945 58.8839 Q584.945 62.8538 587.537 65.2034 Q590.17 67.5124 594.667 67.5124 Q600.865 67.5124 604.591 63.1374 Q608.359 58.7219 608.359 51.4303 L608.359 49.7694 L600.946 49.7694 M615.812 46.6907 L615.812 72.576 L608.359 72.576 L608.359 65.6895 Q605.807 69.8214 601.999 71.8063 Q598.191 73.7508 592.682 73.7508 Q585.714 73.7508 581.582 69.8619 Q577.491 65.9325 577.491 59.3701 Q577.491 51.7138 582.595 47.825 Q587.74 43.9361 597.907 43.9361 L608.359 43.9361 L608.359 43.2069 Q608.359 38.0623 604.956 35.2672 Q601.594 32.4315 595.477 32.4315 Q591.588 32.4315 587.902 33.3632 Q584.215 34.295 580.813 36.1584 L580.813 29.2718 Q584.904 27.692 588.752 26.9223 Q592.601 26.1121 596.247 26.1121 Q606.09 26.1121 610.951 31.2163 Q615.812 36.3204 615.812 46.6907 Z" fill="#000000" fill-rule="nonzero" fill-opacity="1" /><path clip-path="url(#clip640)" d="M638.538 14.324 L638.538 27.2059 L653.891 27.2059 L653.891 32.9987 L638.538 32.9987 L638.538 57.6282 Q638.538 63.1779 640.037 64.7578 Q641.576 66.3376 646.235 66.3376 L653.891 66.3376 L653.891 72.576 L646.235 72.576 Q637.606 72.576 634.325 69.3758 Q631.044 66.1351 631.044 57.6282 L631.044 32.9987 L625.575 32.9987 L625.575 27.2059 L631.044 27.2059 L631.044 14.324 L638.538 14.324 Z" fill="#000000" fill-rule="nonzero" fill-opacity="1" /><path clip-path="url(#clip640)" d="M702.502 48.0275 L702.502 51.6733 L668.231 51.6733 Q668.717 59.3701 672.849 63.421 Q677.022 67.4314 684.435 67.4314 Q688.729 67.4314 692.739 66.3781 Q696.79 65.3249 700.76 63.2184 L700.76 70.267 Q696.749 71.9684 692.537 72.8596 Q688.324 73.7508 683.989 73.7508 Q673.133 73.7508 666.773 67.4314 Q660.453 61.1119 660.453 50.3365 Q660.453 39.1965 666.449 32.6746 Q672.485 26.1121 682.693 26.1121 Q691.848 26.1121 697.155 32.0264 Q702.502 37.9003 702.502 48.0275 M695.048 45.84 Q694.967 39.7232 691.605 36.0774 Q688.283 32.4315 682.774 32.4315 Q676.535 32.4315 672.768 35.9558 Q669.041 39.4801 668.474 45.8805 L695.048 45.84 Z" fill="#000000" fill-rule="nonzero" fill-opacity="1" /><path clip-path="url(#clip640)" d="M741.026 34.1734 Q739.77 33.4443 738.271 33.1202 Q736.813 32.7556 735.031 32.7556 Q728.711 32.7556 725.308 36.8875 Q721.946 40.9789 721.946 48.6757 L721.946 72.576 L714.452 72.576 L714.452 27.2059 L721.946 27.2059 L721.946 34.2544 Q724.296 30.1225 728.063 28.1376 Q731.83 26.1121 737.218 26.1121 Q737.988 26.1121 738.919 26.2337 Q739.851 26.3147 740.985 26.5172 L741.026 34.1734 Z" fill="#000000" fill-rule="nonzero" fill-opacity="1" /><path clip-path="url(#clip640)" d="M775.215 9.54393 L782.669 9.54393 L782.669 72.576 L775.215 72.576 L775.215 9.54393 Z" fill="#000000" fill-rule="nonzero" fill-opacity="1" /><path clip-path="url(#clip640)" d="M837.073 48.0275 L837.073 51.6733 L802.802 51.6733 Q803.288 59.3701 807.42 63.421 Q811.593 67.4314 819.006 67.4314 Q823.3 67.4314 827.31 66.3781 Q831.361 65.3249 835.331 63.2184 L835.331 70.267 Q831.321 71.9684 827.108 72.8596 Q822.895 73.7508 818.56 73.7508 Q807.704 73.7508 801.344 67.4314 Q795.024 61.1119 795.024 50.3365 Q795.024 39.1965 801.02 32.6746 Q807.056 26.1121 817.264 26.1121 Q826.419 26.1121 831.726 32.0264 Q837.073 37.9003 837.073 48.0275 M829.619 45.84 Q829.538 39.7232 826.176 36.0774 Q822.854 32.4315 817.345 32.4315 Q811.107 32.4315 807.339 35.9558 Q803.612 39.4801 803.045 45.8805 L829.619 45.84 Z" fill="#000000" fill-rule="nonzero" fill-opacity="1" /><path clip-path="url(#clip640)" d="M843.959 27.2059 L851.859 27.2059 L866.037 65.2844 L880.215 27.2059 L888.114 27.2059 L871.1 72.576 L860.973 72.576 L843.959 27.2059 Z" fill="#000000" fill-rule="nonzero" fill-opacity="1" /><path clip-path="url(#clip640)" d="M937.211 48.0275 L937.211 51.6733 L902.941 51.6733 Q903.427 59.3701 907.559 63.421 Q911.731 67.4314 919.144 67.4314 Q923.438 67.4314 927.448 66.3781 Q931.499 65.3249 935.469 63.2184 L935.469 70.267 Q931.459 71.9684 927.246 72.8596 Q923.033 73.7508 918.699 73.7508 Q907.842 73.7508 901.482 67.4314 Q895.163 61.1119 895.163 50.3365 Q895.163 39.1965 901.158 32.6746 Q907.194 26.1121 917.402 26.1121 Q926.557 26.1121 931.864 32.0264 Q937.211 37.9003 937.211 48.0275 M929.757 45.84 Q929.676 39.7232 926.314 36.0774 Q922.992 32.4315 917.483 32.4315 Q911.245 32.4315 907.478 35.9558 Q903.751 39.4801 903.184 45.8805 L929.757 45.84 Z" fill="#000000" fill-rule="nonzero" fill-opacity="1" /><path clip-path="url(#clip640)" d="M949.445 9.54393 L956.899 9.54393 L956.899 72.576 L949.445 72.576 L949.445 9.54393 Z" fill="#000000" fill-rule="nonzero" fill-opacity="1" /><path clip-path="url(#clip640)" d="M1001.42 28.5427 L1001.42 35.5912 Q998.258 33.9709 994.856 33.1607 Q991.453 32.3505 987.807 32.3505 Q982.257 32.3505 979.462 34.0519 Q976.707 35.7533 976.707 39.156 Q976.707 41.7486 978.692 43.2475 Q980.677 44.7058 986.673 46.0426 L989.225 46.6097 Q997.165 48.3111 1000.49 51.4303 Q1003.85 54.509 1003.85 60.0587 Q1003.85 66.3781 998.825 70.0644 Q993.843 73.7508 985.093 73.7508 Q981.447 73.7508 977.477 73.0216 Q973.548 72.3329 969.173 70.9151 L969.173 63.2184 Q973.305 65.3654 977.315 66.4591 Q981.325 67.5124 985.255 67.5124 Q990.521 67.5124 993.357 65.73 Q996.192 63.9071 996.192 60.6258 Q996.192 57.5877 994.126 55.9673 Q992.101 54.3469 985.174 52.8481 L982.581 52.2405 Q975.654 50.7821 972.576 47.7845 Q969.497 44.7463 969.497 39.4801 Q969.497 33.0797 974.034 29.5959 Q978.571 26.1121 986.916 26.1121 Q991.048 26.1121 994.693 26.7198 Q998.339 27.3274 1001.42 28.5427 Z" fill="#000000" fill-rule="nonzero" fill-opacity="1" /><path clip-path="url(#clip640)" d="M1062.71 49.7694 Q1053.67 49.7694 1050.19 51.8354 Q1046.71 53.9013 1046.71 58.8839 Q1046.71 62.8538 1049.3 65.2034 Q1051.93 67.5124 1056.43 67.5124 Q1062.63 67.5124 1066.35 63.1374 Q1070.12 58.7219 1070.12 51.4303 L1070.12 49.7694 L1062.71 49.7694 M1077.57 46.6907 L1077.57 72.576 L1070.12 72.576 L1070.12 65.6895 Q1067.57 69.8214 1063.76 71.8063 Q1059.95 73.7508 1054.44 73.7508 Q1047.48 73.7508 1043.34 69.8619 Q1039.25 65.9325 1039.25 59.3701 Q1039.25 51.7138 1044.36 47.825 Q1049.5 43.9361 1059.67 43.9361 L1070.12 43.9361 L1070.12 43.2069 Q1070.12 38.0623 1066.72 35.2672 Q1063.36 32.4315 1057.24 32.4315 Q1053.35 32.4315 1049.66 33.3632 Q1045.98 34.295 1042.58 36.1584 L1042.58 29.2718 Q1046.67 27.692 1050.51 26.9223 Q1054.36 26.1121 1058.01 26.1121 Q1067.85 26.1121 1072.71 31.2163 Q1077.57 36.3204 1077.57 46.6907 Z" fill="#000000" fill-rule="nonzero" fill-opacity="1" /><path clip-path="url(#clip640)" d="M1100.3 14.324 L1100.3 27.2059 L1115.65 27.2059 L1115.65 32.9987 L1100.3 32.9987 L1100.3 57.6282 Q1100.3 63.1779 1101.8 64.7578 Q1103.34 66.3376 1108 66.3376 L1115.65 66.3376 L1115.65 72.576 L1108 72.576 Q1099.37 72.576 1096.09 69.3758 Q1092.81 66.1351 1092.81 57.6282 L1092.81 32.9987 L1087.34 32.9987 L1087.34 27.2059 L1092.81 27.2059 L1092.81 14.324 L1100.3 14.324 Z" fill="#000000" fill-rule="nonzero" fill-opacity="1" /><path clip-path="url(#clip640)" d="M1188.41 14.0809 L1188.41 22.0612 Q1183.75 19.8332 1179.62 18.7395 Q1175.49 17.6457 1171.64 17.6457 Q1164.95 17.6457 1161.31 20.2383 Q1157.7 22.8309 1157.7 27.611 Q1157.7 31.6214 1160.09 33.6873 Q1162.52 35.7128 1169.25 36.9686 L1174.19 37.9813 Q1183.34 39.7232 1187.68 44.1387 Q1192.05 48.5136 1192.05 55.8863 Q1192.05 64.6767 1186.14 69.2137 Q1180.27 73.7508 1168.88 73.7508 Q1164.59 73.7508 1159.73 72.7785 Q1154.91 71.8063 1149.72 69.9024 L1149.72 61.4765 Q1154.7 64.2716 1159.48 65.6895 Q1164.26 67.1073 1168.88 67.1073 Q1175.89 67.1073 1179.7 64.3527 Q1183.51 61.598 1183.51 56.4939 Q1183.51 52.0379 1180.75 49.5264 Q1178.04 47.0148 1171.8 45.759 L1166.82 44.7868 Q1157.66 42.9639 1153.57 39.075 Q1149.48 35.1862 1149.48 28.2591 Q1149.48 20.2383 1155.11 15.6203 Q1160.78 11.0023 1170.71 11.0023 Q1174.96 11.0023 1179.37 11.7719 Q1183.79 12.5416 1188.41 14.0809 Z" fill="#000000" fill-rule="nonzero" fill-opacity="1" /><path clip-path="url(#clip640)" d="M1243.3 48.0275 L1243.3 51.6733 L1209.03 51.6733 Q1209.51 59.3701 1213.64 63.421 Q1217.82 67.4314 1225.23 67.4314 Q1229.52 67.4314 1233.53 66.3781 Q1237.59 65.3249 1241.56 63.2184 L1241.56 70.267 Q1237.55 71.9684 1233.33 72.8596 Q1229.12 73.7508 1224.78 73.7508 Q1213.93 73.7508 1207.57 67.4314 Q1201.25 61.1119 1201.25 50.3365 Q1201.25 39.1965 1207.24 32.6746 Q1213.28 26.1121 1223.49 26.1121 Q1232.64 26.1121 1237.95 32.0264 Q1243.3 37.9003 1243.3 48.0275 M1235.84 45.84 Q1235.76 39.7232 1232.4 36.0774 Q1229.08 32.4315 1223.57 32.4315 Q1217.33 32.4315 1213.56 35.9558 Q1209.84 39.4801 1209.27 45.8805 L1235.84 45.84 Z" fill="#000000" fill-rule="nonzero" fill-opacity="1" /><path clip-path="url(#clip640)" d="M1251.2 27.2059 L1258.65 27.2059 L1267.97 62.6108 L1277.24 27.2059 L1286.03 27.2059 L1295.35 62.6108 L1304.63 27.2059 L1312.08 27.2059 L1300.21 72.576 L1291.42 72.576 L1281.66 35.3887 L1271.86 72.576 L1263.07 72.576 L1251.2 27.2059 Z" fill="#000000" fill-rule="nonzero" fill-opacity="1" /><path clip-path="url(#clip640)" d="M1362.19 48.0275 L1362.19 51.6733 L1327.92 51.6733 Q1328.41 59.3701 1332.54 63.421 Q1336.71 67.4314 1344.12 67.4314 Q1348.42 67.4314 1352.43 66.3781 Q1356.48 65.3249 1360.45 63.2184 L1360.45 70.267 Q1356.44 71.9684 1352.23 72.8596 Q1348.01 73.7508 1343.68 73.7508 Q1332.82 73.7508 1326.46 67.4314 Q1320.14 61.1119 1320.14 50.3365 Q1320.14 39.1965 1326.14 32.6746 Q1332.17 26.1121 1342.38 26.1121 Q1351.54 26.1121 1356.84 32.0264 Q1362.19 37.9003 1362.19 48.0275 M1354.74 45.84 Q1354.66 39.7232 1351.29 36.0774 Q1347.97 32.4315 1342.46 32.4315 Q1336.23 32.4315 1332.46 35.9558 Q1328.73 39.4801 1328.16 45.8805 L1354.74 45.84 Z" fill="#000000" fill-rule="nonzero" fill-opacity="1" /><path clip-path="url(#clip640)" d="M1374.43 9.54393 L1381.88 9.54393 L1381.88 72.576 L1374.43 72.576 L1374.43 9.54393 Z" fill="#000000" fill-rule="nonzero" fill-opacity="1" /><path clip-path="url(#clip640)" d="M1397.47 9.54393 L1404.93 9.54393 L1404.93 72.576 L1397.47 72.576 L1397.47 9.54393 Z" fill="#000000" fill-rule="nonzero" fill-opacity="1" /><path clip-path="url(#clip640)" d="M1449.45 28.5427 L1449.45 35.5912 Q1446.29 33.9709 1442.89 33.1607 Q1439.48 32.3505 1435.84 32.3505 Q1430.29 32.3505 1427.49 34.0519 Q1424.74 35.7533 1424.74 39.156 Q1424.74 41.7486 1426.72 43.2475 Q1428.71 44.7058 1434.7 46.0426 L1437.25 46.6097 Q1445.19 48.3111 1448.52 51.4303 Q1451.88 54.509 1451.88 60.0587 Q1451.88 66.3781 1446.86 70.0644 Q1441.87 73.7508 1433.12 73.7508 Q1429.48 73.7508 1425.51 73.0216 Q1421.58 72.3329 1417.2 70.9151 L1417.2 63.2184 Q1421.33 65.3654 1425.35 66.4591 Q1429.36 67.5124 1433.28 67.5124 Q1438.55 67.5124 1441.39 65.73 Q1444.22 63.9071 1444.22 60.6258 Q1444.22 57.5877 1442.16 55.9673 Q1440.13 54.3469 1433.2 52.8481 L1430.61 52.2405 Q1423.68 50.7821 1420.61 47.7845 Q1417.53 44.7463 1417.53 39.4801 Q1417.53 33.0797 1422.06 29.5959 Q1426.6 26.1121 1434.95 26.1121 Q1439.08 26.1121 1442.72 26.7198 Q1446.37 27.3274 1449.45 28.5427 Z" fill="#000000" fill-rule="nonzero" fill-opacity="1" /><path clip-path="url(#clip640)" d="M1498.63 18.8205 L1498.63 41.5461 L1508.92 41.5461 Q1514.63 41.5461 1517.75 38.5889 Q1520.87 35.6318 1520.87 30.163 Q1520.87 24.7348 1517.75 21.7777 Q1514.63 18.8205 1508.92 18.8205 L1498.63 18.8205 M1490.44 12.096 L1508.92 12.096 Q1519.08 12.096 1524.27 16.714 Q1529.49 21.2916 1529.49 30.163 Q1529.49 39.1155 1524.27 43.6931 Q1519.08 48.2706 1508.92 48.2706 L1498.63 48.2706 L1498.63 72.576 L1490.44 72.576 L1490.44 12.096 Z" fill="#000000" fill-rule="nonzero" fill-opacity="1" /><path clip-path="url(#clip640)" d="M1554.77 32.4315 Q1548.78 32.4315 1545.29 37.1306 Q1541.81 41.7891 1541.81 49.9314 Q1541.81 58.0738 1545.25 62.7728 Q1548.74 67.4314 1554.77 67.4314 Q1560.73 67.4314 1564.21 62.7323 Q1567.69 58.0333 1567.69 49.9314 Q1567.69 41.8701 1564.21 37.1711 Q1560.73 32.4315 1554.77 32.4315 M1554.77 26.1121 Q1564.49 26.1121 1570.04 32.4315 Q1575.59 38.7509 1575.59 49.9314 Q1575.59 61.0714 1570.04 67.4314 Q1564.49 73.7508 1554.77 73.7508 Q1545.01 73.7508 1539.46 67.4314 Q1533.95 61.0714 1533.95 49.9314 Q1533.95 38.7509 1539.46 32.4315 Q1545.01 26.1121 1554.77 26.1121 Z" fill="#000000" fill-rule="nonzero" fill-opacity="1" /><path clip-path="url(#clip640)" d="M1587.95 27.2059 L1595.4 27.2059 L1595.4 72.576 L1587.95 72.576 L1587.95 27.2059 M1587.95 9.54393 L1595.4 9.54393 L1595.4 18.9825 L1587.95 18.9825 L1587.95 9.54393 Z" fill="#000000" fill-rule="nonzero" fill-opacity="1" /><path clip-path="url(#clip640)" d="M1648.71 45.1919 L1648.71 72.576 L1641.26 72.576 L1641.26 45.4349 Q1641.26 38.994 1638.75 35.7938 Q1636.24 32.5936 1631.21 32.5936 Q1625.18 32.5936 1621.69 36.4419 Q1618.21 40.2903 1618.21 46.9338 L1618.21 72.576 L1610.71 72.576 L1610.71 27.2059 L1618.21 27.2059 L1618.21 34.2544 Q1620.88 30.163 1624.49 28.1376 Q1628.13 26.1121 1632.87 26.1121 Q1640.69 26.1121 1644.7 30.9732 Q1648.71 35.7938 1648.71 45.1919 Z" fill="#000000" fill-rule="nonzero" fill-opacity="1" /><path clip-path="url(#clip640)" d="M1670.95 14.324 L1670.95 27.2059 L1686.3 27.2059 L1686.3 32.9987 L1670.95 32.9987 L1670.95 57.6282 Q1670.95 63.1779 1672.45 64.7578 Q1673.99 66.3376 1678.65 66.3376 L1686.3 66.3376 L1686.3 72.576 L1678.65 72.576 Q1670.02 72.576 1666.74 69.3758 Q1663.46 66.1351 1663.46 57.6282 L1663.46 32.9987 L1657.99 32.9987 L1657.99 27.2059 L1663.46 27.2059 L1663.46 14.324 L1670.95 14.324 Z" fill="#000000" fill-rule="nonzero" fill-opacity="1" /><path clip-path="url(#clip640)" d="M1698.01 62.2867 L1706.56 62.2867 L1706.56 69.2543 L1699.92 82.2172 L1694.69 82.2172 L1698.01 69.2543 L1698.01 62.2867 Z" fill="#000000" fill-rule="nonzero" fill-opacity="1" /><path clip-path="url(#clip640)" d="M1764.77 72.576 L1741.68 12.096 L1750.23 12.096 L1769.39 63.0159 L1788.59 12.096 L1797.1 12.096 L1774.05 72.576 L1764.77 72.576 Z" fill="#000000" fill-rule="nonzero" fill-opacity="1" /><path clip-path="url(#clip640)" d="M1820.83 20.1573 L1809.74 50.2555 L1831.97 50.2555 L1820.83 20.1573 M1816.22 12.096 L1825.49 12.096 L1848.54 72.576 L1840.04 72.576 L1834.53 57.061 L1807.26 57.061 L1801.76 72.576 L1793.13 72.576 L1816.22 12.096 Z" fill="#000000" fill-rule="nonzero" fill-opacity="1" /><polyline clip-path="url(#clip642)" style="stroke:#009af9; stroke-linecap:round; stroke-linejoin:round; stroke-width:4; stroke-opacity:1; fill:none" points="332.772,1005.23 335.035,1000.73 337.298,937.784 339.562,832.446 341.825,732.247 344.088,631.405 346.351,611.494 348.614,624.982 350.877,686.643 353.141,769.5 355.404,846.577 357.667,912.734 359.93,944.849 362.193,928.791 364.456,878.692 366.72,818.315 368.983,743.808 371.246,668.659 373.509,626.267 375.772,638.47 378.036,691.782 380.299,786.842 382.562,870.342 384.825,936.499 387.088,960.906 389.351,940.995 391.615,888.326 393.878,829.234 396.141,752.8 398.404,680.862 400.667,617.917 402.93,612.778 405.194,646.178 407.457,705.27 409.72,781.704 411.983,852.357 414.246,905.026 416.509,912.091 418.773,895.392 421.036,849.788 423.299,776.566 425.562,702.058 427.825,642.324 430.088,611.494 432.352,639.113 434.615,691.139 436.878,779.135 439.141,844.65 441.404,890.895 443.668,928.149 445.931,919.799 448.194,880.619 450.457,824.738 452.72,739.312 454.983,658.382 457.247,621.771 459.51,614.705 461.773,639.755 464.036,696.278 466.299,763.719 468.562,841.438 470.826,885.757 473.089,896.034 475.352,879.976 477.615,838.227 479.878,768.858 482.141,677.651 484.405,627.551 486.668,601.217 488.931,637.828 491.194,713.62 493.457,807.396 495.721,855.569 497.984,906.311 500.247,926.864 502.51,897.961 504.773,860.065 507.036,788.127 509.3,697.562 511.563,612.136 513.826,543.41 516.089,517.075 518.352,547.906 520.615,596.078 522.879,680.22 525.142,768.858 527.405,851.073 529.668,874.838 531.931,872.269 534.194,827.307 536.458,754.727 538.721,682.147 540.984,622.413 543.247,608.282 545.51,622.413 547.773,680.22 550.037,758.581 552.3,855.569 554.563,928.149 556.826,961.549 559.089,941.637 561.353,882.545 563.616,810.608 565.879,707.839 568.142,632.69 570.405,565.248 572.668,530.564 574.932,525.425 577.195,571.029 579.458,637.828 581.721,723.254 583.984,804.827 586.247,864.561 588.511,883.83 590.774,864.561 593.037,802.9 595.3,721.327 597.563,663.52 599.826,628.194 602.09,623.697 604.353,652.601 606.616,727.108 608.879,822.811 611.142,915.303 613.406,970.541 615.669,962.191 617.932,885.757 620.195,784.915 622.458,673.155 624.721,540.84 626.985,460.553 629.248,445.137 631.511,465.049 633.774,528.637 636.037,631.405 638.3,754.085 640.564,832.446 642.827,880.619 645.09,870.984 647.353,826.023 649.616,738.67 651.879,614.063 654.143,491.383 656.406,436.787 658.669,428.437 660.932,486.245 663.195,592.867 665.459,716.189 667.722,811.892 669.985,851.715 672.248,853.642 674.511,783.631 676.774,648.105 679.038,499.733 681.301,378.338 683.564,297.408 685.827,255.016 688.09,260.796 690.353,323.1 692.617,427.795 694.88,569.102 697.143,698.847 699.406,779.135 701.669,802.9 703.932,736.1 706.196,643.609 708.459,514.506 710.722,409.168 712.985,355.215 715.248,375.126 717.511,443.853 719.775,560.752 722.038,710.408 724.301,844.65 726.564,924.937 728.827,928.149 731.091,856.853 733.354,715.547 735.617,553.044 737.88,416.234 740.143,318.604 742.406,279.423 744.67,315.392 746.933,410.453 749.196,553.044 751.459,714.262 753.722,841.438 755.985,895.392 758.249,881.903 760.512,797.119 762.775,670.586 765.038,511.937 767.301,394.395 769.564,341.084 771.828,376.411 774.091,481.106 776.354,641.04 778.617,804.827 780.88,930.718 783.144,998.802 785.407,1004.58 787.67,919.799 789.933,788.769 792.196,622.413 794.459,471.472 796.723,393.753 798.986,397.607 801.249,466.333 803.512,596.721 805.775,760.508 808.038,920.441 810.302,1025.14 812.565,1066.89 814.828,1028.35 817.091,935.857 819.354,780.419 821.617,629.478 823.881,520.929 826.144,491.383 828.407,534.417 830.67,651.316 832.933,808.038 835.197,972.468 837.46,1099.64 839.723,1174.79 841.986,1165.16 844.249,1077.81 846.512,910.807 848.776,738.027 851.039,599.29 853.302,522.214 855.565,524.783 857.828,592.225 860.091,724.539 862.355,900.53 864.618,1052.11 866.881,1154.88 869.144,1203.05 871.407,1152.31 873.67,1008.44 875.934,826.665 878.197,677.009 880.46,569.102 882.723,539.556 884.986,561.394 887.249,651.316 889.513,825.381 891.776,980.818 894.039,1095.79 896.302,1156.17 898.565,1098.36 900.829,979.533 903.092,800.331 905.355,626.909 907.618,504.871 909.881,443.853 912.144,450.918 914.408,529.921 916.671,664.805 918.934,824.096 921.197,961.549 923.46,1043.12 925.723,1049.54 927.987,953.841 930.25,792.623 932.513,626.267 934.776,479.179 937.039,375.769 939.302,344.296 941.566,393.111 943.829,500.375 946.092,666.089 948.355,824.738 950.618,940.995 952.882,983.387 955.145,943.564 957.408,838.227 959.671,673.155 961.934,524.141 964.197,397.607 966.461,338.515 968.724,375.769 970.987,456.056 973.25,611.494 975.513,754.727 977.776,880.619 980.04,940.353 982.303,917.872 984.566,818.315 986.829,665.447 989.092,505.514 991.355,369.346 993.619,298.692 995.882,283.919 998.145,340.442 1000.41,447.064 1002.67,605.713 1004.93,773.996 1007.2,872.911 1009.46,917.23 1011.72,878.049 1013.99,800.973 1016.25,657.74 1018.51,528.637 1020.78,427.795 1023.04,391.826 1025.3,425.868 1027.57,508.725 1029.83,644.251 1032.09,788.127 1034.36,888.326 1036.62,932.645 1038.88,899.888 1041.15,802.258 1043.41,668.659 1045.67,517.075 1047.93,389.899 1050.2,308.969 1052.46,320.531 1054.72,386.688 1056.99,516.433 1059.25,655.17 1061.51,775.281 1063.78,856.853 1066.04,890.895 1068.3,863.919 1070.57,781.704 1072.83,668.659 1075.09,557.54 1077.36,481.749 1079.62,468.903 1081.88,527.352 1084.15,629.478 1086.41,757.939 1088.67,880.619 1090.94,957.053 1093.2,980.818 1095.46,960.906 1097.72,890.253 1099.99,779.777 1102.25,635.259 1104.51,522.856 1106.78,465.691 1109.04,481.749 1111.3,529.279 1113.57,623.697 1115.83,721.97 1118.09,801.615 1120.36,864.561 1122.62,897.961 1124.88,878.049 1127.15,799.688 1129.41,703.985 1131.67,580.021 1133.94,517.075 1136.2,508.083 1138.46,547.263 1140.72,631.405 1142.99,732.889 1145.25,835.015 1147.51,896.034 1149.78,917.872 1152.04,901.172 1154.3,835.015 1156.57,726.466 1158.83,608.925 1161.09,520.929 1163.36,470.187 1165.62,478.537 1167.88,511.937 1170.15,589.013 1172.41,698.205 1174.67,793.908 1176.94,847.219 1179.2,844.007 1181.46,809.323 1183.73,742.523 1185.99,657.74 1188.25,565.248 1190.51,513.864 1192.78,486.887 1195.04,504.871 1197.3,559.467 1199.57,635.259 1201.83,721.327 1204.09,795.835 1206.36,837.584 1208.62,813.177 1210.88,750.873 1213.15,635.901 1215.41,511.294 1217.67,424.584 1219.94,393.753 1222.2,393.111 1224.46,427.795 1226.73,498.448 1228.99,587.729 1231.25,689.212 1233.51,765.646 1235.78,795.835 1238.04,773.354 1240.3,717.474 1242.57,624.34 1244.83,533.775 1247.09,481.106 1249.36,469.545 1251.62,493.31 1253.88,547.906 1256.15,633.974 1258.41,716.831 1260.67,784.915 1262.94,823.454 1265.2,813.819 1267.46,746.377 1269.73,639.755 1271.99,521.571 1274.25,436.787 1276.52,369.346 1278.78,368.703 1281.04,414.949 1283.3,490.099 1285.57,577.452 1287.83,663.52 1290.09,736.743 1292.36,775.281 1294.62,781.062 1296.88,734.816 1299.15,664.163 1301.41,604.428 1303.67,562.036 1305.94,552.402 1308.2,553.686 1310.46,600.575 1312.73,693.066 1314.99,801.615 1317.25,892.18 1319.52,926.222 1321.78,900.53 1324.04,840.154 1326.31,736.1 1328.57,641.682 1330.83,558.183 1333.09,511.294 1335.36,506.156 1337.62,560.752 1339.88,630.763 1342.15,739.954 1344.41,844.65 1346.67,910.807 1348.94,920.441 1351.2,887.684 1353.46,828.592 1355.73,736.1 1357.99,644.893 1360.25,571.671 1362.52,533.775 1364.78,549.19 1367.04,620.486 1369.31,720.043 1371.57,822.169 1373.83,900.53 1376.09,933.287 1378.36,919.799 1380.62,852.357 1382.88,756.654 1385.15,653.243 1387.41,577.452 1389.67,534.417 1391.94,535.702 1394.2,584.517 1396.46,671.228 1398.73,788.769 1400.99,887.684 1403.25,952.556 1405.52,980.176 1407.78,944.849 1410.04,879.334 1412.31,793.265 1414.57,693.066 1416.83,614.705 1419.1,583.232 1421.36,610.851 1423.62,692.424 1425.88,802.9 1428.15,911.449 1430.41,998.802 1432.67,1021.28 1434.94,1005.87 1437.2,935.214 1439.46,822.169 1441.73,691.782 1443.99,597.363 1446.25,544.052 1448.52,535.702 1450.78,532.49 1453.04,591.582 1455.31,703.985 1457.57,808.038 1459.83,863.919 1462.1,872.269 1464.36,832.446 1466.62,750.231 1468.89,650.032 1471.15,562.036 1473.41,504.871 1475.67,501.66 1477.94,556.898 1480.2,651.959 1482.46,772.069 1484.73,884.472 1486.99,964.118 1489.25,991.737 1491.52,967.972 1493.78,878.049 1496.04,750.873 1498.31,634.617 1500.57,528.637 1502.83,479.179 1505.1,491.383 1507.36,549.19 1509.62,648.105 1511.89,759.866 1514.15,851.715 1516.41,892.822 1518.67,874.196 1520.94,808.681 1523.2,698.205 1525.46,559.467 1527.73,447.064 1529.99,373.199 1532.25,377.696 1534.52,423.299 1536.78,510.652 1539.04,595.436 1541.31,669.943 1543.57,714.904 1545.83,698.847 1548.1,603.786 1550.36,499.733 1552.62,388.615 1554.89,310.254 1557.15,239.6 1559.41,254.373 1561.68,317.319 1563.94,434.218 1566.2,577.452 1568.46,701.416 1570.73,799.688 1572.99,820.884 1575.25,773.996 1577.52,680.862 1579.78,583.875 1582.04,454.13 1584.31,368.061 1586.57,355.857 1588.83,398.892 1591.1,493.952 1593.36,593.509 1595.62,720.685 1597.89,811.25 1600.15,858.138 1602.41,826.665 1604.68,732.247 1606.94,599.932 1609.2,470.829 1611.46,380.265 1613.73,346.865 1615.99,373.199 1618.25,432.934 1620.52,538.271 1622.78,666.089 1625.04,772.712 1627.31,836.942 1629.57,837.584 1631.83,750.873 1634.1,633.332 1636.36,524.141 1638.62,431.649 1640.89,389.899 1643.15,398.892 1645.41,435.503 1647.68,537.629 1649.94,651.959 1652.2,761.15 1654.47,822.811 1656.73,799.688 1658.99,723.254 1661.25,594.152 1663.52,458.626 1665.78,332.092 1668.04,237.674 1670.31,219.047 1672.57,249.235 1674.83,302.546 1677.1,405.957 1679.36,526.067 1681.62,603.786 1683.89,627.551 1686.15,577.452 1688.41,483.675 1690.68,391.826 1692.94,269.789 1695.2,181.793 1697.47,152.247 1699.73,177.939 1701.99,262.723 1704.26,368.061 1706.52,506.156 1708.78,622.413 1711.04,684.716 1713.31,689.212 1715.57,637.186 1717.83,539.556 1720.1,441.283 1722.36,348.792 1724.62,305.758 1726.89,314.108 1729.15,391.184 1731.41,494.595 1733.68,624.34 1735.94,731.604 1738.2,790.054 1740.47,769.5 1742.73,705.27 1744.99,596.078 1747.26,468.903 1749.52,360.996 1751.78,319.888 1754.04,325.027 1756.31,393.753 1758.57,508.083 1760.83,614.063 1763.1,744.45 1765.36,811.892 1767.62,849.146 1769.89,799.046 1772.15,714.904 1774.41,606.355 1776.68,482.391 1778.94,383.476 1781.2,376.411 1783.47,401.461 1785.73,472.756 1787.99,583.875 1790.26,680.862 1792.52,759.866 1794.78,773.354 1797.05,734.816 1799.31,636.544 1801.57,506.798 1803.83,394.395 1806.1,314.108 1808.36,290.985 1810.62,328.238 1812.89,411.095 1815.15,506.156 1817.41,626.267 1819.68,732.889 1821.94,783.631 1824.2,763.719 1826.47,714.262 1828.73,623.055 1830.99,525.425 1833.26,413.664 1835.52,387.33 1837.78,391.826 1840.05,477.252 1842.31,567.175 1844.57,668.016 1846.83,769.5 1849.1,840.154 1851.36,811.25 1853.62,726.466 1855.89,631.405 1858.15,514.506 1860.41,413.664 1862.68,352.646 1864.94,356.5 1867.2,382.192 1869.47,461.837 1871.73,568.459 1873.99,690.497 1876.26,770.143 1878.52,785.558 1880.78,757.296 1883.05,687.285 1885.31,605.713 1887.57,507.441 1889.84,440.641 1892.1,423.299 1894.36,430.364 1896.62,492.025 1898.89,588.371 1901.15,683.432 1903.41,757.939 1905.68,767.573 1907.94,737.385 1910.2,668.659 1912.47,569.744 1914.73,477.252 1916.99,400.176 1919.26,364.849 1921.52,365.492 1923.78,390.542 1926.05,462.479 1928.31,560.752 1930.57,637.828 1932.84,677.009 1935.1,687.928 1937.36,671.228 1939.63,623.055 1941.89,542.125 1944.15,467.618 1946.41,421.372 1948.68,416.876 1950.94,452.845 1953.2,522.856 1955.47,606.355 1957.73,691.782 1959.99,746.377 1962.26,763.077 1964.52,723.897 1966.78,654.528 1969.05,538.271 1971.31,389.257 1973.57,294.838 1975.84,276.854 1978.1,301.261 1980.36,358.426 1982.63,470.829 1984.89,565.248 1987.15,651.316 1989.41,704.628 1991.68,698.205 1993.94,661.593 1996.2,600.575 1998.47,524.783 2000.73,446.422 2002.99,387.972 2005.26,380.265 2007.52,411.095 2009.78,462.479 2012.05,522.214 2014.31,553.686 "/>
</svg>
