<?xml version="1.0" encoding="utf-8"?>
<svg xmlns="http://www.w3.org/2000/svg" xmlns:xlink="http://www.w3.org/1999/xlink" width="528" height="336" viewBox="0 0 2112 1344">
<defs>
  <clipPath id="clip700">
    <rect x="0" y="0" width="2112" height="1344"/>
  </clipPath>
</defs>
<path clip-path="url(#clip700)" d="M0 1344 L2112 1344 L2112 0 L0 0  Z" fill="#ffffff" fill-rule="evenodd" fill-opacity="1"/>
<defs>
  <clipPath id="clip701">
    <rect x="422" y="0" width="1479" height="1344"/>
  </clipPath>
</defs>
<path clip-path="url(#clip700)" d="M282.326 1173.47 L2064.76 1173.47 L2064.76 47.2441 L282.326 47.2441  Z" fill="#ffffff" fill-rule="evenodd" fill-opacity="1"/>
<defs>
  <clipPath id="clip702">
    <rect x="282" y="47" width="1783" height="1127"/>
  </clipPath>
</defs>
<polyline clip-path="url(#clip702)" style="stroke:#000000; stroke-linecap:round; stroke-linejoin:round; stroke-width:2; stroke-opacity:0.1; fill:none" points="332.772,1173.47 332.772,47.2441 "/>
<polyline clip-path="url(#clip702)" style="stroke:#000000; stroke-linecap:round; stroke-linejoin:round; stroke-width:2; stroke-opacity:0.1; fill:none" points="485.639,1173.47 485.639,47.2441 "/>
<polyline clip-path="url(#clip702)" style="stroke:#000000; stroke-linecap:round; stroke-linejoin:round; stroke-width:2; stroke-opacity:0.1; fill:none" points="638.506,1173.47 638.506,47.2441 "/>
<polyline clip-path="url(#clip702)" style="stroke:#000000; stroke-linecap:round; stroke-linejoin:round; stroke-width:2; stroke-opacity:0.1; fill:none" points="791.373,1173.47 791.373,47.2441 "/>
<polyline clip-path="url(#clip702)" style="stroke:#000000; stroke-linecap:round; stroke-linejoin:round; stroke-width:2; stroke-opacity:0.1; fill:none" points="944.24,1173.47 944.24,47.2441 "/>
<polyline clip-path="url(#clip702)" style="stroke:#000000; stroke-linecap:round; stroke-linejoin:round; stroke-width:2; stroke-opacity:0.1; fill:none" points="1097.11,1173.47 1097.11,47.2441 "/>
<polyline clip-path="url(#clip702)" style="stroke:#000000; stroke-linecap:round; stroke-linejoin:round; stroke-width:2; stroke-opacity:0.1; fill:none" points="1249.97,1173.47 1249.97,47.2441 "/>
<polyline clip-path="url(#clip702)" style="stroke:#000000; stroke-linecap:round; stroke-linejoin:round; stroke-width:2; stroke-opacity:0.1; fill:none" points="1402.84,1173.47 1402.84,47.2441 "/>
<polyline clip-path="url(#clip702)" style="stroke:#000000; stroke-linecap:round; stroke-linejoin:round; stroke-width:2; stroke-opacity:0.1; fill:none" points="1555.71,1173.47 1555.71,47.2441 "/>
<polyline clip-path="url(#clip702)" style="stroke:#000000; stroke-linecap:round; stroke-linejoin:round; stroke-width:2; stroke-opacity:0.1; fill:none" points="1708.58,1173.47 1708.58,47.2441 "/>
<polyline clip-path="url(#clip702)" style="stroke:#000000; stroke-linecap:round; stroke-linejoin:round; stroke-width:2; stroke-opacity:0.1; fill:none" points="1861.44,1173.47 1861.44,47.2441 "/>
<polyline clip-path="url(#clip702)" style="stroke:#000000; stroke-linecap:round; stroke-linejoin:round; stroke-width:2; stroke-opacity:0.1; fill:none" points="2014.31,1173.47 2014.31,47.2441 "/>
<polyline clip-path="url(#clip700)" style="stroke:#000000; stroke-linecap:round; stroke-linejoin:round; stroke-width:4; stroke-opacity:1; fill:none" points="282.326,1173.47 2064.76,1173.47 "/>
<polyline clip-path="url(#clip700)" style="stroke:#000000; stroke-linecap:round; stroke-linejoin:round; stroke-width:4; stroke-opacity:1; fill:none" points="332.772,1173.47 332.772,1154.57 "/>
<polyline clip-path="url(#clip700)" style="stroke:#000000; stroke-linecap:round; stroke-linejoin:round; stroke-width:4; stroke-opacity:1; fill:none" points="485.639,1173.47 485.639,1154.57 "/>
<polyline clip-path="url(#clip700)" style="stroke:#000000; stroke-linecap:round; stroke-linejoin:round; stroke-width:4; stroke-opacity:1; fill:none" points="638.506,1173.47 638.506,1154.57 "/>
<polyline clip-path="url(#clip700)" style="stroke:#000000; stroke-linecap:round; stroke-linejoin:round; stroke-width:4; stroke-opacity:1; fill:none" points="791.373,1173.47 791.373,1154.57 "/>
<polyline clip-path="url(#clip700)" style="stroke:#000000; stroke-linecap:round; stroke-linejoin:round; stroke-width:4; stroke-opacity:1; fill:none" points="944.24,1173.47 944.24,1154.57 "/>
<polyline clip-path="url(#clip700)" style="stroke:#000000; stroke-linecap:round; stroke-linejoin:round; stroke-width:4; stroke-opacity:1; fill:none" points="1097.11,1173.47 1097.11,1154.57 "/>
<polyline clip-path="url(#clip700)" style="stroke:#000000; stroke-linecap:round; stroke-linejoin:round; stroke-width:4; stroke-opacity:1; fill:none" points="1249.97,1173.47 1249.97,1154.57 "/>
<polyline clip-path="url(#clip700)" style="stroke:#000000; stroke-linecap:round; stroke-linejoin:round; stroke-width:4; stroke-opacity:1; fill:none" points="1402.84,1173.47 1402.84,1154.57 "/>
<polyline clip-path="url(#clip700)" style="stroke:#000000; stroke-linecap:round; stroke-linejoin:round; stroke-width:4; stroke-opacity:1; fill:none" points="1555.71,1173.47 1555.71,1154.57 "/>
<polyline clip-path="url(#clip700)" style="stroke:#000000; stroke-linecap:round; stroke-linejoin:round; stroke-width:4; stroke-opacity:1; fill:none" points="1708.58,1173.47 1708.58,1154.57 "/>
<polyline clip-path="url(#clip700)" style="stroke:#000000; stroke-linecap:round; stroke-linejoin:round; stroke-width:4; stroke-opacity:1; fill:none" points="1861.44,1173.47 1861.44,1154.57 "/>
<polyline clip-path="url(#clip700)" style="stroke:#000000; stroke-linecap:round; stroke-linejoin:round; stroke-width:4; stroke-opacity:1; fill:none" points="2014.31,1173.47 2014.31,1154.57 "/>
<path clip-path="url(#clip700)" d="M323.154 1229.63 L330.793 1229.63 L330.793 1203.27 L322.483 1204.93 L322.483 1200.67 L330.747 1199.01 L335.422 1199.01 L335.422 1229.63 L343.061 1229.63 L343.061 1233.57 L323.154 1233.57 L323.154 1229.63 Z" fill="#000000" fill-rule="nonzero" fill-opacity="1" /><path clip-path="url(#clip700)" d="M480.292 1229.63 L496.611 1229.63 L496.611 1233.57 L474.667 1233.57 L474.667 1229.63 Q477.329 1226.88 481.912 1222.25 Q486.519 1217.59 487.699 1216.25 Q489.945 1213.73 490.824 1211.99 Q491.727 1210.23 491.727 1208.54 Q491.727 1205.79 489.783 1204.05 Q487.861 1202.32 484.759 1202.32 Q482.56 1202.32 480.107 1203.08 Q477.676 1203.84 474.898 1205.4 L474.898 1200.67 Q477.722 1199.54 480.176 1198.96 Q482.63 1198.38 484.667 1198.38 Q490.037 1198.38 493.232 1201.07 Q496.426 1203.75 496.426 1208.24 Q496.426 1210.37 495.616 1212.29 Q494.829 1214.19 492.722 1216.78 Q492.144 1217.46 489.042 1220.67 Q485.94 1223.87 480.292 1229.63 Z" fill="#000000" fill-rule="nonzero" fill-opacity="1" /><path clip-path="url(#clip700)" d="M642.754 1214.93 Q646.11 1215.65 647.985 1217.92 Q649.883 1220.19 649.883 1223.52 Q649.883 1228.64 646.365 1231.44 Q642.846 1234.24 636.365 1234.24 Q634.189 1234.24 631.874 1233.8 Q629.583 1233.38 627.129 1232.53 L627.129 1228.01 Q629.073 1229.15 631.388 1229.72 Q633.703 1230.3 636.226 1230.3 Q640.624 1230.3 642.916 1228.57 Q645.231 1226.83 645.231 1223.52 Q645.231 1220.46 643.078 1218.75 Q640.948 1217.02 637.129 1217.02 L633.101 1217.02 L633.101 1213.17 L637.314 1213.17 Q640.763 1213.17 642.592 1211.81 Q644.42 1210.42 644.42 1207.83 Q644.42 1205.16 642.522 1203.75 Q640.647 1202.32 637.129 1202.32 Q635.208 1202.32 633.009 1202.73 Q630.809 1203.15 628.171 1204.03 L628.171 1199.86 Q630.833 1199.12 633.147 1198.75 Q635.485 1198.38 637.546 1198.38 Q642.87 1198.38 645.971 1200.81 Q649.073 1203.22 649.073 1207.34 Q649.073 1210.21 647.43 1212.2 Q645.786 1214.17 642.754 1214.93 Z" fill="#000000" fill-rule="nonzero" fill-opacity="1" /><path clip-path="url(#clip700)" d="M794.382 1203.08 L782.577 1221.53 L794.382 1221.53 L794.382 1203.08 M793.156 1199.01 L799.035 1199.01 L799.035 1221.53 L803.966 1221.53 L803.966 1225.42 L799.035 1225.42 L799.035 1233.57 L794.382 1233.57 L794.382 1225.42 L778.781 1225.42 L778.781 1220.9 L793.156 1199.01 Z" fill="#000000" fill-rule="nonzero" fill-opacity="1" /><path clip-path="url(#clip700)" d="M934.518 1199.01 L952.875 1199.01 L952.875 1202.94 L938.801 1202.94 L938.801 1211.41 Q939.819 1211.07 940.838 1210.9 Q941.856 1210.72 942.875 1210.72 Q948.662 1210.72 952.041 1213.89 Q955.421 1217.06 955.421 1222.48 Q955.421 1228.06 951.949 1231.16 Q948.476 1234.24 942.157 1234.24 Q939.981 1234.24 937.713 1233.87 Q935.467 1233.5 933.06 1232.76 L933.06 1228.06 Q935.143 1229.19 937.365 1229.75 Q939.588 1230.3 942.064 1230.3 Q946.069 1230.3 948.407 1228.2 Q950.745 1226.09 950.745 1222.48 Q950.745 1218.87 948.407 1216.76 Q946.069 1214.65 942.064 1214.65 Q940.189 1214.65 938.314 1215.07 Q936.463 1215.49 934.518 1216.37 L934.518 1199.01 Z" fill="#000000" fill-rule="nonzero" fill-opacity="1" /><path clip-path="url(#clip700)" d="M1097.51 1214.42 Q1094.36 1214.42 1092.51 1216.58 Q1090.68 1218.73 1090.68 1222.48 Q1090.68 1226.21 1092.51 1228.38 Q1094.36 1230.53 1097.51 1230.53 Q1100.66 1230.53 1102.49 1228.38 Q1104.34 1226.21 1104.34 1222.48 Q1104.34 1218.73 1102.49 1216.58 Q1100.66 1214.42 1097.51 1214.42 M1106.79 1199.77 L1106.79 1204.03 Q1105.04 1203.2 1103.23 1202.76 Q1101.45 1202.32 1099.69 1202.32 Q1095.06 1202.32 1092.61 1205.44 Q1090.17 1208.57 1089.83 1214.89 Q1091.19 1212.87 1093.25 1211.81 Q1095.31 1210.72 1097.79 1210.72 Q1103 1210.72 1106.01 1213.89 Q1109.04 1217.04 1109.04 1222.48 Q1109.04 1227.8 1105.89 1231.02 Q1102.74 1234.24 1097.51 1234.24 Q1091.52 1234.24 1088.35 1229.65 Q1085.17 1225.05 1085.17 1216.32 Q1085.17 1208.13 1089.06 1203.27 Q1092.95 1198.38 1099.5 1198.38 Q1101.26 1198.38 1103.04 1198.73 Q1104.85 1199.08 1106.79 1199.77 Z" fill="#000000" fill-rule="nonzero" fill-opacity="1" /><path clip-path="url(#clip700)" d="M1238.86 1199.01 L1261.09 1199.01 L1261.09 1201 L1248.54 1233.57 L1243.66 1233.57 L1255.46 1202.94 L1238.86 1202.94 L1238.86 1199.01 Z" fill="#000000" fill-rule="nonzero" fill-opacity="1" /><path clip-path="url(#clip700)" d="M1402.84 1217.15 Q1399.51 1217.15 1397.59 1218.94 Q1395.69 1220.72 1395.69 1223.84 Q1395.69 1226.97 1397.59 1228.75 Q1399.51 1230.53 1402.84 1230.53 Q1406.17 1230.53 1408.1 1228.75 Q1410.02 1226.95 1410.02 1223.84 Q1410.02 1220.72 1408.1 1218.94 Q1406.2 1217.15 1402.84 1217.15 M1398.17 1215.16 Q1395.16 1214.42 1393.47 1212.36 Q1391.8 1210.3 1391.8 1207.34 Q1391.8 1203.2 1394.74 1200.79 Q1397.7 1198.38 1402.84 1198.38 Q1408 1198.38 1410.94 1200.79 Q1413.88 1203.2 1413.88 1207.34 Q1413.88 1210.3 1412.19 1212.36 Q1410.53 1214.42 1407.54 1215.16 Q1410.92 1215.95 1412.8 1218.24 Q1414.69 1220.53 1414.69 1223.84 Q1414.69 1228.87 1411.61 1231.55 Q1408.56 1234.24 1402.84 1234.24 Q1397.12 1234.24 1394.05 1231.55 Q1390.99 1228.87 1390.99 1223.84 Q1390.99 1220.53 1392.89 1218.24 Q1394.79 1215.95 1398.17 1215.16 M1396.45 1207.78 Q1396.45 1210.47 1398.12 1211.97 Q1399.81 1213.47 1402.84 1213.47 Q1405.85 1213.47 1407.54 1211.97 Q1409.25 1210.47 1409.25 1207.78 Q1409.25 1205.09 1407.54 1203.59 Q1405.85 1202.09 1402.84 1202.09 Q1399.81 1202.09 1398.12 1203.59 Q1396.45 1205.09 1396.45 1207.78 Z" fill="#000000" fill-rule="nonzero" fill-opacity="1" /><path clip-path="url(#clip700)" d="M1546.01 1232.85 L1546.01 1228.59 Q1547.77 1229.42 1549.57 1229.86 Q1551.38 1230.3 1553.12 1230.3 Q1557.75 1230.3 1560.18 1227.2 Q1562.63 1224.08 1562.98 1217.73 Q1561.63 1219.72 1559.57 1220.79 Q1557.51 1221.85 1555.01 1221.85 Q1549.83 1221.85 1546.8 1218.73 Q1543.79 1215.58 1543.79 1210.14 Q1543.79 1204.82 1546.94 1201.6 Q1550.08 1198.38 1555.32 1198.38 Q1561.31 1198.38 1564.46 1202.99 Q1567.63 1207.57 1567.63 1216.32 Q1567.63 1224.49 1563.74 1229.38 Q1559.88 1234.24 1553.32 1234.24 Q1551.57 1234.24 1549.76 1233.89 Q1547.95 1233.54 1546.01 1232.85 M1555.32 1218.2 Q1558.46 1218.2 1560.29 1216.04 Q1562.14 1213.89 1562.14 1210.14 Q1562.14 1206.41 1560.29 1204.26 Q1558.46 1202.09 1555.32 1202.09 Q1552.17 1202.09 1550.32 1204.26 Q1548.49 1206.41 1548.49 1210.14 Q1548.49 1213.89 1550.32 1216.04 Q1552.17 1218.2 1555.32 1218.2 Z" fill="#000000" fill-rule="nonzero" fill-opacity="1" /><path clip-path="url(#clip700)" d="M1683.26 1229.63 L1690.9 1229.63 L1690.9 1203.27 L1682.59 1204.93 L1682.59 1200.67 L1690.86 1199.01 L1695.53 1199.01 L1695.53 1229.63 L1703.17 1229.63 L1703.17 1233.57 L1683.26 1233.57 L1683.26 1229.63 Z" fill="#000000" fill-rule="nonzero" fill-opacity="1" /><path clip-path="url(#clip700)" d="M1722.61 1202.09 Q1719 1202.09 1717.18 1205.65 Q1715.37 1209.19 1715.37 1216.32 Q1715.37 1223.43 1717.18 1226.99 Q1719 1230.53 1722.61 1230.53 Q1726.25 1230.53 1728.05 1226.99 Q1729.88 1223.43 1729.88 1216.32 Q1729.88 1209.19 1728.05 1205.65 Q1726.25 1202.09 1722.61 1202.09 M1722.61 1198.38 Q1728.43 1198.38 1731.48 1202.99 Q1734.56 1207.57 1734.56 1216.32 Q1734.56 1225.05 1731.48 1229.65 Q1728.43 1234.24 1722.61 1234.24 Q1716.8 1234.24 1713.73 1229.65 Q1710.67 1225.05 1710.67 1216.32 Q1710.67 1207.57 1713.73 1202.99 Q1716.8 1198.38 1722.61 1198.38 Z" fill="#000000" fill-rule="nonzero" fill-opacity="1" /><path clip-path="url(#clip700)" d="M1836.74 1229.63 L1844.38 1229.63 L1844.38 1203.27 L1836.07 1204.93 L1836.07 1200.67 L1844.34 1199.01 L1849.01 1199.01 L1849.01 1229.63 L1856.65 1229.63 L1856.65 1233.57 L1836.74 1233.57 L1836.74 1229.63 Z" fill="#000000" fill-rule="nonzero" fill-opacity="1" /><path clip-path="url(#clip700)" d="M1866.91 1229.63 L1874.54 1229.63 L1874.54 1203.27 L1866.23 1204.93 L1866.23 1200.67 L1874.5 1199.01 L1879.17 1199.01 L1879.17 1229.63 L1886.81 1229.63 L1886.81 1233.57 L1866.91 1233.57 L1866.91 1229.63 Z" fill="#000000" fill-rule="nonzero" fill-opacity="1" /><path clip-path="url(#clip700)" d="M1989.8 1229.63 L1997.43 1229.63 L1997.43 1203.27 L1989.12 1204.93 L1989.12 1200.67 L1997.39 1199.01 L2002.06 1199.01 L2002.06 1229.63 L2009.7 1229.63 L2009.7 1233.57 L1989.8 1233.57 L1989.8 1229.63 Z" fill="#000000" fill-rule="nonzero" fill-opacity="1" /><path clip-path="url(#clip700)" d="M2023.18 1229.63 L2039.49 1229.63 L2039.49 1233.57 L2017.55 1233.57 L2017.55 1229.63 Q2020.21 1226.88 2024.8 1222.25 Q2029.4 1217.59 2030.58 1216.25 Q2032.83 1213.73 2033.71 1211.99 Q2034.61 1210.23 2034.61 1208.54 Q2034.61 1205.79 2032.67 1204.05 Q2030.74 1202.32 2027.64 1202.32 Q2025.44 1202.32 2022.99 1203.08 Q2020.56 1203.84 2017.78 1205.4 L2017.78 1200.67 Q2020.61 1199.54 2023.06 1198.96 Q2025.51 1198.38 2027.55 1198.38 Q2032.92 1198.38 2036.12 1201.07 Q2039.31 1203.75 2039.31 1208.24 Q2039.31 1210.37 2038.5 1212.29 Q2037.71 1214.19 2035.61 1216.78 Q2035.03 1217.46 2031.93 1220.67 Q2028.82 1223.87 2023.18 1229.63 Z" fill="#000000" fill-rule="nonzero" fill-opacity="1" /><path clip-path="url(#clip700)" d="M1077.36 1266.49 L1086.94 1266.49 L1099.06 1298.83 L1111.25 1266.49 L1120.83 1266.49 L1120.83 1314.01 L1114.56 1314.01 L1114.56 1272.29 L1102.31 1304.88 L1095.85 1304.88 L1083.59 1272.29 L1083.59 1314.01 L1077.36 1314.01 L1077.36 1266.49 Z" fill="#000000" fill-rule="nonzero" fill-opacity="1" /><path clip-path="url(#clip700)" d="M1147.16 1282.47 Q1142.44 1282.47 1139.71 1286.16 Q1136.97 1289.83 1136.97 1296.22 Q1136.97 1302.62 1139.68 1306.31 Q1142.41 1309.97 1147.16 1309.97 Q1151.83 1309.97 1154.57 1306.28 Q1157.31 1302.59 1157.31 1296.22 Q1157.31 1289.89 1154.57 1286.2 Q1151.83 1282.47 1147.16 1282.47 M1147.16 1277.51 Q1154.79 1277.51 1159.15 1282.47 Q1163.51 1287.44 1163.51 1296.22 Q1163.51 1304.98 1159.15 1309.97 Q1154.79 1314.94 1147.16 1314.94 Q1139.48 1314.94 1135.12 1309.97 Q1130.8 1304.98 1130.8 1296.22 Q1130.8 1287.44 1135.12 1282.47 Q1139.48 1277.51 1147.16 1277.51 Z" fill="#000000" fill-rule="nonzero" fill-opacity="1" /><path clip-path="url(#clip700)" d="M1202.85 1292.5 L1202.85 1314.01 L1197 1314.01 L1197 1292.69 Q1197 1287.63 1195.03 1285.11 Q1193.05 1282.6 1189.11 1282.6 Q1184.36 1282.6 1181.63 1285.62 Q1178.89 1288.65 1178.89 1293.87 L1178.89 1314.01 L1173 1314.01 L1173 1278.37 L1178.89 1278.37 L1178.89 1283.9 Q1180.99 1280.69 1183.82 1279.1 Q1186.69 1277.51 1190.41 1277.51 Q1196.55 1277.51 1199.7 1281.33 Q1202.85 1285.11 1202.85 1292.5 Z" fill="#000000" fill-rule="nonzero" fill-opacity="1" /><path clip-path="url(#clip700)" d="M1220.33 1268.25 L1220.33 1278.37 L1232.39 1278.37 L1232.39 1282.92 L1220.33 1282.92 L1220.33 1302.27 Q1220.33 1306.63 1221.51 1307.87 Q1222.72 1309.11 1226.38 1309.11 L1232.39 1309.11 L1232.39 1314.01 L1226.38 1314.01 Q1219.6 1314.01 1217.02 1311.5 Q1214.44 1308.95 1214.44 1302.27 L1214.44 1282.92 L1210.14 1282.92 L1210.14 1278.37 L1214.44 1278.37 L1214.44 1268.25 L1220.33 1268.25 Z" fill="#000000" fill-rule="nonzero" fill-opacity="1" /><path clip-path="url(#clip700)" d="M1269.73 1292.5 L1269.73 1314.01 L1263.87 1314.01 L1263.87 1292.69 Q1263.87 1287.63 1261.9 1285.11 Q1259.92 1282.6 1255.98 1282.6 Q1251.23 1282.6 1248.5 1285.62 Q1245.76 1288.65 1245.76 1293.87 L1245.76 1314.01 L1239.87 1314.01 L1239.87 1264.49 L1245.76 1264.49 L1245.76 1283.9 Q1247.86 1280.69 1250.69 1279.1 Q1253.56 1277.51 1257.28 1277.51 Q1263.42 1277.51 1266.58 1281.33 Q1269.73 1285.11 1269.73 1292.5 Z" fill="#000000" fill-rule="nonzero" fill-opacity="1" /><polyline clip-path="url(#clip702)" style="stroke:#000000; stroke-linecap:round; stroke-linejoin:round; stroke-width:2; stroke-opacity:0.1; fill:none" points="282.326,952.155 2064.76,952.155 "/>
<polyline clip-path="url(#clip702)" style="stroke:#000000; stroke-linecap:round; stroke-linejoin:round; stroke-width:2; stroke-opacity:0.1; fill:none" points="282.326,677.62 2064.76,677.62 "/>
<polyline clip-path="url(#clip702)" style="stroke:#000000; stroke-linecap:round; stroke-linejoin:round; stroke-width:2; stroke-opacity:0.1; fill:none" points="282.326,403.084 2064.76,403.084 "/>
<polyline clip-path="url(#clip702)" style="stroke:#000000; stroke-linecap:round; stroke-linejoin:round; stroke-width:2; stroke-opacity:0.1; fill:none" points="282.326,128.549 2064.76,128.549 "/>
<polyline clip-path="url(#clip700)" style="stroke:#000000; stroke-linecap:round; stroke-linejoin:round; stroke-width:4; stroke-opacity:1; fill:none" points="282.326,1173.47 282.326,47.2441 "/>
<polyline clip-path="url(#clip700)" style="stroke:#000000; stroke-linecap:round; stroke-linejoin:round; stroke-width:4; stroke-opacity:1; fill:none" points="282.326,952.155 301.224,952.155 "/>
<polyline clip-path="url(#clip700)" style="stroke:#000000; stroke-linecap:round; stroke-linejoin:round; stroke-width:4; stroke-opacity:1; fill:none" points="282.326,677.62 301.224,677.62 "/>
<polyline clip-path="url(#clip700)" style="stroke:#000000; stroke-linecap:round; stroke-linejoin:round; stroke-width:4; stroke-opacity:1; fill:none" points="282.326,403.084 301.224,403.084 "/>
<polyline clip-path="url(#clip700)" style="stroke:#000000; stroke-linecap:round; stroke-linejoin:round; stroke-width:4; stroke-opacity:1; fill:none" points="282.326,128.549 301.224,128.549 "/>
<path clip-path="url(#clip700)" d="M113.54 952.606 L143.216 952.606 L143.216 956.541 L113.54 956.541 L113.54 952.606 Z" fill="#000000" fill-rule="nonzero" fill-opacity="1" /><path clip-path="url(#clip700)" d="M163.308 937.954 Q159.697 937.954 157.869 941.518 Q156.063 945.06 156.063 952.19 Q156.063 959.296 157.869 962.861 Q159.697 966.403 163.308 966.403 Q166.943 966.403 168.748 962.861 Q170.577 959.296 170.577 952.19 Q170.577 945.06 168.748 941.518 Q166.943 937.954 163.308 937.954 M163.308 934.25 Q169.119 934.25 172.174 938.856 Q175.253 943.44 175.253 952.19 Q175.253 960.916 172.174 965.523 Q169.119 970.106 163.308 970.106 Q157.498 970.106 154.42 965.523 Q151.364 960.916 151.364 952.19 Q151.364 943.44 154.42 938.856 Q157.498 934.25 163.308 934.25 Z" fill="#000000" fill-rule="nonzero" fill-opacity="1" /><path clip-path="url(#clip700)" d="M183.47 963.555 L188.355 963.555 L188.355 969.435 L183.47 969.435 L183.47 963.555 Z" fill="#000000" fill-rule="nonzero" fill-opacity="1" /><path clip-path="url(#clip700)" d="M202.567 965.5 L218.887 965.5 L218.887 969.435 L196.942 969.435 L196.942 965.5 Q199.605 962.745 204.188 958.116 Q208.794 953.463 209.975 952.12 Q212.22 949.597 213.1 947.861 Q214.003 946.102 214.003 944.412 Q214.003 941.657 212.058 939.921 Q210.137 938.185 207.035 938.185 Q204.836 938.185 202.382 938.949 Q199.952 939.713 197.174 941.264 L197.174 936.542 Q199.998 935.407 202.452 934.829 Q204.905 934.25 206.942 934.25 Q212.313 934.25 215.507 936.935 Q218.702 939.62 218.702 944.111 Q218.702 946.241 217.891 948.162 Q217.104 950.06 214.998 952.653 Q214.419 953.324 211.317 956.541 Q208.216 959.736 202.567 965.5 Z" fill="#000000" fill-rule="nonzero" fill-opacity="1" /><path clip-path="url(#clip700)" d="M238.702 937.954 Q235.09 937.954 233.262 941.518 Q231.456 945.06 231.456 952.19 Q231.456 959.296 233.262 962.861 Q235.09 966.403 238.702 966.403 Q242.336 966.403 244.141 962.861 Q245.97 959.296 245.97 952.19 Q245.97 945.06 244.141 941.518 Q242.336 937.954 238.702 937.954 M238.702 934.25 Q244.512 934.25 247.567 938.856 Q250.646 943.44 250.646 952.19 Q250.646 960.916 247.567 965.523 Q244.512 970.106 238.702 970.106 Q232.891 970.106 229.813 965.523 Q226.757 960.916 226.757 952.19 Q226.757 943.44 229.813 938.856 Q232.891 934.25 238.702 934.25 Z" fill="#000000" fill-rule="nonzero" fill-opacity="1" /><path clip-path="url(#clip700)" d="M114.536 678.071 L144.211 678.071 L144.211 682.006 L114.536 682.006 L114.536 678.071 Z" fill="#000000" fill-rule="nonzero" fill-opacity="1" /><path clip-path="url(#clip700)" d="M164.304 663.418 Q160.693 663.418 158.864 666.983 Q157.058 670.525 157.058 677.654 Q157.058 684.761 158.864 688.326 Q160.693 691.867 164.304 691.867 Q167.938 691.867 169.744 688.326 Q171.572 684.761 171.572 677.654 Q171.572 670.525 169.744 666.983 Q167.938 663.418 164.304 663.418 M164.304 659.715 Q170.114 659.715 173.169 664.321 Q176.248 668.904 176.248 677.654 Q176.248 686.381 173.169 690.988 Q170.114 695.571 164.304 695.571 Q158.494 695.571 155.415 690.988 Q152.359 686.381 152.359 677.654 Q152.359 668.904 155.415 664.321 Q158.494 659.715 164.304 659.715 Z" fill="#000000" fill-rule="nonzero" fill-opacity="1" /><path clip-path="url(#clip700)" d="M184.466 689.02 L189.35 689.02 L189.35 694.9 L184.466 694.9 L184.466 689.02 Z" fill="#000000" fill-rule="nonzero" fill-opacity="1" /><path clip-path="url(#clip700)" d="M200.345 690.964 L207.984 690.964 L207.984 664.599 L199.674 666.265 L199.674 662.006 L207.938 660.34 L212.614 660.34 L212.614 690.964 L220.253 690.964 L220.253 694.9 L200.345 694.9 L200.345 690.964 Z" fill="#000000" fill-rule="nonzero" fill-opacity="1" /><path clip-path="url(#clip700)" d="M229.743 660.34 L248.1 660.34 L248.1 664.275 L234.026 664.275 L234.026 672.747 Q235.044 672.4 236.063 672.238 Q237.081 672.052 238.1 672.052 Q243.887 672.052 247.266 675.224 Q250.646 678.395 250.646 683.812 Q250.646 689.39 247.174 692.492 Q243.701 695.571 237.382 695.571 Q235.206 695.571 232.938 695.201 Q230.692 694.83 228.285 694.089 L228.285 689.39 Q230.368 690.525 232.59 691.08 Q234.813 691.636 237.289 691.636 Q241.294 691.636 243.632 689.529 Q245.97 687.423 245.97 683.812 Q245.97 680.201 243.632 678.094 Q241.294 675.988 237.289 675.988 Q235.415 675.988 233.54 676.404 Q231.688 676.821 229.743 677.701 L229.743 660.34 Z" fill="#000000" fill-rule="nonzero" fill-opacity="1" /><path clip-path="url(#clip700)" d="M113.54 403.536 L143.216 403.536 L143.216 407.471 L113.54 407.471 L113.54 403.536 Z" fill="#000000" fill-rule="nonzero" fill-opacity="1" /><path clip-path="url(#clip700)" d="M163.308 388.883 Q159.697 388.883 157.869 392.448 Q156.063 395.989 156.063 403.119 Q156.063 410.225 157.869 413.79 Q159.697 417.332 163.308 417.332 Q166.943 417.332 168.748 413.79 Q170.577 410.225 170.577 403.119 Q170.577 395.989 168.748 392.448 Q166.943 388.883 163.308 388.883 M163.308 385.179 Q169.119 385.179 172.174 389.786 Q175.253 394.369 175.253 403.119 Q175.253 411.846 172.174 416.452 Q169.119 421.036 163.308 421.036 Q157.498 421.036 154.42 416.452 Q151.364 411.846 151.364 403.119 Q151.364 394.369 154.42 389.786 Q157.498 385.179 163.308 385.179 Z" fill="#000000" fill-rule="nonzero" fill-opacity="1" /><path clip-path="url(#clip700)" d="M183.47 414.485 L188.355 414.485 L188.355 420.364 L183.47 420.364 L183.47 414.485 Z" fill="#000000" fill-rule="nonzero" fill-opacity="1" /><path clip-path="url(#clip700)" d="M199.35 416.429 L206.989 416.429 L206.989 390.063 L198.679 391.73 L198.679 387.471 L206.942 385.804 L211.618 385.804 L211.618 416.429 L219.257 416.429 L219.257 420.364 L199.35 420.364 L199.35 416.429 Z" fill="#000000" fill-rule="nonzero" fill-opacity="1" /><path clip-path="url(#clip700)" d="M238.702 388.883 Q235.09 388.883 233.262 392.448 Q231.456 395.989 231.456 403.119 Q231.456 410.225 233.262 413.79 Q235.09 417.332 238.702 417.332 Q242.336 417.332 244.141 413.79 Q245.97 410.225 245.97 403.119 Q245.97 395.989 244.141 392.448 Q242.336 388.883 238.702 388.883 M238.702 385.179 Q244.512 385.179 247.567 389.786 Q250.646 394.369 250.646 403.119 Q250.646 411.846 247.567 416.452 Q244.512 421.036 238.702 421.036 Q232.891 421.036 229.813 416.452 Q226.757 411.846 226.757 403.119 Q226.757 394.369 229.813 389.786 Q232.891 385.179 238.702 385.179 Z" fill="#000000" fill-rule="nonzero" fill-opacity="1" /><path clip-path="url(#clip700)" d="M114.536 129 L144.211 129 L144.211 132.935 L114.536 132.935 L114.536 129 Z" fill="#000000" fill-rule="nonzero" fill-opacity="1" /><path clip-path="url(#clip700)" d="M164.304 114.348 Q160.693 114.348 158.864 117.912 Q157.058 121.454 157.058 128.584 Q157.058 135.69 158.864 139.255 Q160.693 142.797 164.304 142.797 Q167.938 142.797 169.744 139.255 Q171.572 135.69 171.572 128.584 Q171.572 121.454 169.744 117.912 Q167.938 114.348 164.304 114.348 M164.304 110.644 Q170.114 110.644 173.169 115.25 Q176.248 119.834 176.248 128.584 Q176.248 137.31 173.169 141.917 Q170.114 146.5 164.304 146.5 Q158.494 146.5 155.415 141.917 Q152.359 137.31 152.359 128.584 Q152.359 119.834 155.415 115.25 Q158.494 110.644 164.304 110.644 Z" fill="#000000" fill-rule="nonzero" fill-opacity="1" /><path clip-path="url(#clip700)" d="M184.466 139.949 L189.35 139.949 L189.35 145.829 L184.466 145.829 L184.466 139.949 Z" fill="#000000" fill-rule="nonzero" fill-opacity="1" /><path clip-path="url(#clip700)" d="M209.535 114.348 Q205.924 114.348 204.095 117.912 Q202.29 121.454 202.29 128.584 Q202.29 135.69 204.095 139.255 Q205.924 142.797 209.535 142.797 Q213.169 142.797 214.975 139.255 Q216.803 135.69 216.803 128.584 Q216.803 121.454 214.975 117.912 Q213.169 114.348 209.535 114.348 M209.535 110.644 Q215.345 110.644 218.401 115.25 Q221.479 119.834 221.479 128.584 Q221.479 137.31 218.401 141.917 Q215.345 146.5 209.535 146.5 Q203.725 146.5 200.646 141.917 Q197.591 137.31 197.591 128.584 Q197.591 119.834 200.646 115.25 Q203.725 110.644 209.535 110.644 Z" fill="#000000" fill-rule="nonzero" fill-opacity="1" /><path clip-path="url(#clip700)" d="M229.743 111.269 L248.1 111.269 L248.1 115.204 L234.026 115.204 L234.026 123.676 Q235.044 123.329 236.063 123.167 Q237.081 122.982 238.1 122.982 Q243.887 122.982 247.266 126.153 Q250.646 129.324 250.646 134.741 Q250.646 140.32 247.174 143.422 Q243.701 146.5 237.382 146.5 Q235.206 146.5 232.938 146.13 Q230.692 145.759 228.285 145.019 L228.285 140.32 Q230.368 141.454 232.59 142.009 Q234.813 142.565 237.289 142.565 Q241.294 142.565 243.632 140.459 Q245.97 138.352 245.97 134.741 Q245.97 131.13 243.632 129.023 Q241.294 126.917 237.289 126.917 Q235.415 126.917 233.54 127.334 Q231.688 127.75 229.743 128.63 L229.743 111.269 Z" fill="#000000" fill-rule="nonzero" fill-opacity="1" /><path clip-path="url(#clip700)" d="M26.418 981.478 L50.0666 990.199 L50.0666 972.725 L26.418 981.478 M20.0842 985.107 L20.0842 977.818 L67.6042 959.707 L67.6042 966.391 L55.4138 970.72 L55.4138 992.141 L67.6042 996.469 L67.6042 1003.25 L20.0842 985.107 Z" fill="#000000" fill-rule="nonzero" fill-opacity="1" /><path clip-path="url(#clip700)" d="M31.9562 961.044 L31.9562 954.838 L61.875 943.698 L31.9562 932.558 L31.9562 926.351 L67.6042 939.719 L67.6042 947.676 L31.9562 961.044 Z" fill="#000000" fill-rule="nonzero" fill-opacity="1" /><path clip-path="url(#clip700)" d="M48.3161 887.775 L51.1806 887.775 L51.1806 914.702 Q57.2281 914.32 60.4109 911.073 Q63.5619 907.795 63.5619 901.97 Q63.5619 898.597 62.7344 895.446 Q61.9069 892.263 60.2518 889.144 L65.7899 889.144 Q67.1267 892.295 67.827 895.605 Q68.5272 898.915 68.5272 902.321 Q68.5272 910.851 63.5619 915.848 Q58.5967 920.813 50.1303 920.813 Q41.3774 920.813 36.2531 916.102 Q31.0968 911.36 31.0968 903.339 Q31.0968 896.146 35.7438 891.976 Q40.3589 887.775 48.3161 887.775 M46.5973 893.631 Q41.7912 893.695 38.9266 896.337 Q36.0621 898.947 36.0621 903.275 Q36.0621 908.177 38.8312 911.137 Q41.6002 914.065 46.6292 914.511 L46.5973 893.631 Z" fill="#000000" fill-rule="nonzero" fill-opacity="1" /><path clip-path="url(#clip700)" d="M37.4307 857.506 Q36.8578 858.493 36.6032 859.67 Q36.3167 860.816 36.3167 862.217 Q36.3167 867.182 39.5632 869.855 Q42.7779 872.497 48.8253 872.497 L67.6042 872.497 L67.6042 878.386 L31.9562 878.386 L31.9562 872.497 L37.4944 872.497 Q34.2479 870.651 32.6883 867.691 Q31.0968 864.731 31.0968 860.498 Q31.0968 859.893 31.1923 859.161 Q31.256 858.429 31.4151 857.538 L37.4307 857.506 Z" fill="#000000" fill-rule="nonzero" fill-opacity="1" /><path clip-path="url(#clip700)" d="M49.6847 835.162 Q49.6847 842.26 51.3079 844.997 Q52.9312 847.735 56.8461 847.735 Q59.9653 847.735 61.8114 845.698 Q63.6256 843.629 63.6256 840.096 Q63.6256 835.226 60.1881 832.298 Q56.7188 829.338 50.9897 829.338 L49.6847 829.338 L49.6847 835.162 M47.2657 823.481 L67.6042 823.481 L67.6042 829.338 L62.1933 829.338 Q65.4398 831.343 66.9994 834.335 Q68.5272 837.327 68.5272 841.655 Q68.5272 847.13 65.4716 850.376 Q62.3843 853.591 57.2281 853.591 Q51.2125 853.591 48.1569 849.581 Q45.1014 845.538 45.1014 837.549 L45.1014 829.338 L44.5285 829.338 Q40.4862 829.338 38.2901 832.011 Q36.0621 834.653 36.0621 839.459 Q36.0621 842.515 36.7941 845.411 Q37.5262 848.308 38.9903 850.981 L33.5795 850.981 Q32.3381 847.766 31.7334 844.743 Q31.0968 841.719 31.0968 838.854 Q31.0968 831.12 35.1072 827.301 Q39.1176 823.481 47.2657 823.481 Z" fill="#000000" fill-rule="nonzero" fill-opacity="1" /><path clip-path="url(#clip700)" d="M49.3664 787.961 Q43.0007 787.961 39.4996 790.602 Q35.9984 793.212 35.9984 797.955 Q35.9984 802.665 39.4996 805.307 Q43.0007 807.917 49.3664 807.917 Q55.7003 807.917 59.2014 805.307 Q62.7026 802.665 62.7026 797.955 Q62.7026 793.212 59.2014 790.602 Q55.7003 787.961 49.3664 787.961 M63.18 782.104 Q72.283 782.104 76.7071 786.146 Q81.1631 790.189 81.1631 798.528 Q81.1631 801.615 80.6857 804.352 Q80.2401 807.09 79.2852 809.668 L73.5879 809.668 Q74.9884 807.09 75.6568 804.575 Q76.3252 802.061 76.3252 799.451 Q76.3252 793.69 73.3015 790.825 Q70.3096 787.961 64.2303 787.961 L61.3339 787.961 Q64.485 789.775 66.0446 792.608 Q67.6042 795.44 67.6042 799.387 Q67.6042 805.944 62.6071 809.954 Q57.61 813.965 49.3664 813.965 Q41.091 813.965 36.0939 809.954 Q31.0968 805.944 31.0968 799.387 Q31.0968 795.44 32.6564 792.608 Q34.216 789.775 37.3671 787.961 L31.9562 787.961 L31.9562 782.104 L63.18 782.104 Z" fill="#000000" fill-rule="nonzero" fill-opacity="1" /><path clip-path="url(#clip700)" d="M48.3161 739.549 L51.1806 739.549 L51.1806 766.476 Q57.2281 766.094 60.4109 762.848 Q63.5619 759.57 63.5619 753.745 Q63.5619 750.371 62.7344 747.22 Q61.9069 744.037 60.2518 740.918 L65.7899 740.918 Q67.1267 744.069 67.827 747.379 Q68.5272 750.689 68.5272 754.095 Q68.5272 762.625 63.5619 767.622 Q58.5967 772.587 50.1303 772.587 Q41.3774 772.587 36.2531 767.877 Q31.0968 763.134 31.0968 755.114 Q31.0968 747.92 35.7438 743.751 Q40.3589 739.549 48.3161 739.549 M46.5973 745.406 Q41.7912 745.47 38.9266 748.111 Q36.0621 750.721 36.0621 755.05 Q36.0621 759.952 38.8312 762.912 Q41.6002 765.84 46.6292 766.285 L46.5973 745.406 Z" fill="#000000" fill-rule="nonzero" fill-opacity="1" /><path clip-path="url(#clip700)" d="M20.0842 713.195 L20.0842 706.702 L60.2518 696.708 L20.0842 686.746 L20.0842 679.521 L60.2518 669.527 L20.0842 659.564 L20.0842 653.039 L67.6042 664.975 L67.6042 673.06 L26.3544 683.086 L67.6042 693.207 L67.6042 701.292 L20.0842 713.195 Z" fill="#000000" fill-rule="nonzero" fill-opacity="1" /><path clip-path="url(#clip700)" d="M49.6847 632.733 Q49.6847 639.831 51.3079 642.568 Q52.9312 645.305 56.8461 645.305 Q59.9653 645.305 61.8114 643.268 Q63.6256 641.199 63.6256 637.666 Q63.6256 632.797 60.1881 629.868 Q56.7188 626.908 50.9897 626.908 L49.6847 626.908 L49.6847 632.733 M47.2657 621.052 L67.6042 621.052 L67.6042 626.908 L62.1933 626.908 Q65.4398 628.913 66.9994 631.905 Q68.5272 634.897 68.5272 639.226 Q68.5272 644.7 65.4716 647.947 Q62.3843 651.162 57.2281 651.162 Q51.2125 651.162 48.1569 647.151 Q45.1014 643.109 45.1014 635.12 L45.1014 626.908 L44.5285 626.908 Q40.4862 626.908 38.2901 629.582 Q36.0621 632.224 36.0621 637.03 Q36.0621 640.085 36.7941 642.982 Q37.5262 645.878 38.9903 648.552 L33.5795 648.552 Q32.3381 645.337 31.7334 642.313 Q31.0968 639.29 31.0968 636.425 Q31.0968 628.691 35.1072 624.871 Q39.1176 621.052 47.2657 621.052 Z" fill="#000000" fill-rule="nonzero" fill-opacity="1" /><path clip-path="url(#clip700)" d="M21.8347 603.196 L31.9562 603.196 L31.9562 591.133 L36.5077 591.133 L36.5077 603.196 L55.8594 603.196 Q60.2199 603.196 61.4613 602.018 Q62.7026 600.809 62.7026 597.149 L62.7026 591.133 L67.6042 591.133 L67.6042 597.149 Q67.6042 603.928 65.0897 606.506 Q62.5434 609.084 55.8594 609.084 L36.5077 609.084 L36.5077 613.381 L31.9562 613.381 L31.9562 609.084 L21.8347 609.084 L21.8347 603.196 Z" fill="#000000" fill-rule="nonzero" fill-opacity="1" /><path clip-path="url(#clip700)" d="M48.3161 552.939 L51.1806 552.939 L51.1806 579.866 Q57.2281 579.484 60.4109 576.237 Q63.5619 572.959 63.5619 567.134 Q63.5619 563.76 62.7344 560.609 Q61.9069 557.427 60.2518 554.307 L65.7899 554.307 Q67.1267 557.458 67.827 560.769 Q68.5272 564.079 68.5272 567.484 Q68.5272 576.014 63.5619 581.012 Q58.5967 585.977 50.1303 585.977 Q41.3774 585.977 36.2531 581.266 Q31.0968 576.524 31.0968 568.503 Q31.0968 561.31 35.7438 557.14 Q40.3589 552.939 48.3161 552.939 M46.5973 558.795 Q41.7912 558.859 38.9266 561.501 Q36.0621 564.111 36.0621 568.439 Q36.0621 573.341 38.8312 576.301 Q41.6002 579.229 46.6292 579.675 L46.5973 558.795 Z" fill="#000000" fill-rule="nonzero" fill-opacity="1" /><path clip-path="url(#clip700)" d="M37.4307 522.67 Q36.8578 523.656 36.6032 524.834 Q36.3167 525.98 36.3167 527.38 Q36.3167 532.346 39.5632 535.019 Q42.7779 537.661 48.8253 537.661 L67.6042 537.661 L67.6042 543.549 L31.9562 543.549 L31.9562 537.661 L37.4944 537.661 Q34.2479 535.815 32.6883 532.855 Q31.0968 529.895 31.0968 525.662 Q31.0968 525.057 31.1923 524.325 Q31.256 523.593 31.4151 522.702 L37.4307 522.67 Z" fill="#000000" fill-rule="nonzero" fill-opacity="1" /><path clip-path="url(#clip700)" d="M18.079 495.807 L18.079 489.95 L67.6042 489.95 L67.6042 495.807 L18.079 495.807 Z" fill="#000000" fill-rule="nonzero" fill-opacity="1" /><path clip-path="url(#clip700)" d="M48.3161 447.204 L51.1806 447.204 L51.1806 474.131 Q57.2281 473.749 60.4109 470.503 Q63.5619 467.225 63.5619 461.4 Q63.5619 458.026 62.7344 454.875 Q61.9069 451.692 60.2518 448.573 L65.7899 448.573 Q67.1267 451.724 67.827 455.034 Q68.5272 458.344 68.5272 461.75 Q68.5272 470.28 63.5619 475.277 Q58.5967 480.242 50.1303 480.242 Q41.3774 480.242 36.2531 475.532 Q31.0968 470.789 31.0968 462.769 Q31.0968 455.575 35.7438 451.406 Q40.3589 447.204 48.3161 447.204 M46.5973 453.061 Q41.7912 453.124 38.9266 455.766 Q36.0621 458.376 36.0621 462.705 Q36.0621 467.606 38.8312 470.567 Q41.6002 473.495 46.6292 473.94 L46.5973 453.061 Z" fill="#000000" fill-rule="nonzero" fill-opacity="1" /><path clip-path="url(#clip700)" d="M31.9562 441.794 L31.9562 435.587 L61.875 424.447 L31.9562 413.307 L31.9562 407.1 L67.6042 420.468 L67.6042 428.426 L31.9562 441.794 Z" fill="#000000" fill-rule="nonzero" fill-opacity="1" /><path clip-path="url(#clip700)" d="M48.3161 368.524 L51.1806 368.524 L51.1806 395.451 Q57.2281 395.069 60.4109 391.823 Q63.5619 388.544 63.5619 382.72 Q63.5619 379.346 62.7344 376.195 Q61.9069 373.012 60.2518 369.893 L65.7899 369.893 Q67.1267 373.044 67.827 376.354 Q68.5272 379.664 68.5272 383.07 Q68.5272 391.6 63.5619 396.597 Q58.5967 401.562 50.1303 401.562 Q41.3774 401.562 36.2531 396.852 Q31.0968 392.109 31.0968 384.088 Q31.0968 376.895 35.7438 372.726 Q40.3589 368.524 48.3161 368.524 M46.5973 374.381 Q41.7912 374.444 38.9266 377.086 Q36.0621 379.696 36.0621 384.025 Q36.0621 388.926 38.8312 391.886 Q41.6002 394.815 46.6292 395.26 L46.5973 374.381 Z" fill="#000000" fill-rule="nonzero" fill-opacity="1" /><path clip-path="url(#clip700)" d="M18.079 358.912 L18.079 353.056 L67.6042 353.056 L67.6042 358.912 L18.079 358.912 Z" fill="#000000" fill-rule="nonzero" fill-opacity="1" /><path clip-path="url(#clip700)" d="M18.1426 306.013 Q25.4632 310.278 32.6246 312.347 Q39.786 314.416 47.1384 314.416 Q54.4908 314.416 61.7159 312.347 Q68.9091 310.246 76.1979 306.013 L76.1979 311.106 Q68.7182 315.88 61.4931 318.267 Q54.268 320.622 47.1384 320.622 Q40.0406 320.622 32.8474 318.267 Q25.6542 315.912 18.1426 311.106 L18.1426 306.013 Z" fill="#000000" fill-rule="nonzero" fill-opacity="1" /><path clip-path="url(#clip700)" d="M38.7993 266.896 Q34.8526 264.7 32.9747 261.644 Q31.0968 258.588 31.0968 254.451 Q31.0968 248.881 35.0117 245.857 Q38.8948 242.833 46.0881 242.833 L67.6042 242.833 L67.6042 248.722 L46.279 248.722 Q41.1546 248.722 38.672 250.536 Q36.1894 252.35 36.1894 256.074 Q36.1894 260.626 39.2131 263.267 Q42.2368 265.909 47.4567 265.909 L67.6042 265.909 L67.6042 271.797 L46.279 271.797 Q41.1228 271.797 38.672 273.612 Q36.1894 275.426 36.1894 279.213 Q36.1894 283.701 39.2449 286.343 Q42.2686 288.985 47.4567 288.985 L67.6042 288.985 L67.6042 294.873 L31.9562 294.873 L31.9562 288.985 L37.4944 288.985 Q34.216 286.98 32.6564 284.179 Q31.0968 281.378 31.0968 277.526 Q31.0968 273.643 33.0702 270.938 Q35.0436 268.201 38.7993 266.896 Z" fill="#000000" fill-rule="nonzero" fill-opacity="1" /><path clip-path="url(#clip700)" d="M18.1426 232.075 L18.1426 226.983 Q25.6542 222.208 32.8474 219.853 Q40.0406 217.466 47.1384 217.466 Q54.268 217.466 61.4931 219.853 Q68.7182 222.208 76.1979 226.983 L76.1979 232.075 Q68.9091 227.842 61.7159 225.773 Q54.4908 223.673 47.1384 223.673 Q39.786 223.673 32.6246 225.773 Q25.4632 227.842 18.1426 232.075 Z" fill="#000000" fill-rule="nonzero" fill-opacity="1" /><polyline clip-path="url(#clip702)" style="stroke:#009af9; stroke-linecap:round; stroke-linejoin:round; stroke-width:12; stroke-opacity:1; fill:none" points="332.772,1141.6 485.639,1053.5 638.506,886.026 791.373,747.796 944.24,624.832 1097.11,576.981 1249.97,718.298 1402.84,486.261 1555.71,79.1184 1708.58,158.411 1861.44,581.365 2014.31,1013.5 "/>
</svg>
