<?xml version="1.0" encoding="utf-8"?>
<svg xmlns="http://www.w3.org/2000/svg" xmlns:xlink="http://www.w3.org/1999/xlink" width="528" height="336" viewBox="0 0 2112 1344">
<defs>
  <clipPath id="clip760">
    <rect x="0" y="0" width="2112" height="1344"/>
  </clipPath>
</defs>
<path clip-path="url(#clip760)" d="M0 1344 L2112 1344 L2112 0 L0 0  Z" fill="#ffffff" fill-rule="evenodd" fill-opacity="1"/>
<defs>
  <clipPath id="clip761">
    <rect x="422" y="0" width="1479" height="1344"/>
  </clipPath>
</defs>
<path clip-path="url(#clip760)" d="M282.326 1173.47 L2064.76 1173.47 L2064.76 47.2441 L282.326 47.2441  Z" fill="#ffffff" fill-rule="evenodd" fill-opacity="1"/>
<defs>
  <clipPath id="clip762">
    <rect x="282" y="47" width="1783" height="1127"/>
  </clipPath>
</defs>
<polyline clip-path="url(#clip762)" style="stroke:#000000; stroke-linecap:round; stroke-linejoin:round; stroke-width:2; stroke-opacity:0.1; fill:none" points="332.772,1173.47 332.772,47.2441 "/>
<polyline clip-path="url(#clip762)" style="stroke:#000000; stroke-linecap:round; stroke-linejoin:round; stroke-width:2; stroke-opacity:0.1; fill:none" points="470.981,1173.47 470.981,47.2441 "/>
<polyline clip-path="url(#clip762)" style="stroke:#000000; stroke-linecap:round; stroke-linejoin:round; stroke-width:2; stroke-opacity:0.1; fill:none" points="609.189,1173.47 609.189,47.2441 "/>
<polyline clip-path="url(#clip762)" style="stroke:#000000; stroke-linecap:round; stroke-linejoin:round; stroke-width:2; stroke-opacity:0.1; fill:none" points="747.398,1173.47 747.398,47.2441 "/>
<polyline clip-path="url(#clip762)" style="stroke:#000000; stroke-linecap:round; stroke-linejoin:round; stroke-width:2; stroke-opacity:0.1; fill:none" points="885.606,1173.47 885.606,47.2441 "/>
<polyline clip-path="url(#clip762)" style="stroke:#000000; stroke-linecap:round; stroke-linejoin:round; stroke-width:2; stroke-opacity:0.1; fill:none" points="1023.81,1173.47 1023.81,47.2441 "/>
<polyline clip-path="url(#clip762)" style="stroke:#000000; stroke-linecap:round; stroke-linejoin:round; stroke-width:2; stroke-opacity:0.1; fill:none" points="1162.02,1173.47 1162.02,47.2441 "/>
<polyline clip-path="url(#clip762)" style="stroke:#000000; stroke-linecap:round; stroke-linejoin:round; stroke-width:2; stroke-opacity:0.1; fill:none" points="1300.23,1173.47 1300.23,47.2441 "/>
<polyline clip-path="url(#clip762)" style="stroke:#000000; stroke-linecap:round; stroke-linejoin:round; stroke-width:2; stroke-opacity:0.1; fill:none" points="1438.44,1173.47 1438.44,47.2441 "/>
<polyline clip-path="url(#clip762)" style="stroke:#000000; stroke-linecap:round; stroke-linejoin:round; stroke-width:2; stroke-opacity:0.1; fill:none" points="1576.65,1173.47 1576.65,47.2441 "/>
<polyline clip-path="url(#clip762)" style="stroke:#000000; stroke-linecap:round; stroke-linejoin:round; stroke-width:2; stroke-opacity:0.1; fill:none" points="1714.86,1173.47 1714.86,47.2441 "/>
<polyline clip-path="url(#clip762)" style="stroke:#000000; stroke-linecap:round; stroke-linejoin:round; stroke-width:2; stroke-opacity:0.1; fill:none" points="1853.07,1173.47 1853.07,47.2441 "/>
<polyline clip-path="url(#clip762)" style="stroke:#000000; stroke-linecap:round; stroke-linejoin:round; stroke-width:2; stroke-opacity:0.1; fill:none" points="1991.28,1173.47 1991.28,47.2441 "/>
<polyline clip-path="url(#clip760)" style="stroke:#000000; stroke-linecap:round; stroke-linejoin:round; stroke-width:4; stroke-opacity:1; fill:none" points="282.326,1173.47 2064.76,1173.47 "/>
<polyline clip-path="url(#clip760)" style="stroke:#000000; stroke-linecap:round; stroke-linejoin:round; stroke-width:4; stroke-opacity:1; fill:none" points="332.772,1173.47 332.772,1154.57 "/>
<polyline clip-path="url(#clip760)" style="stroke:#000000; stroke-linecap:round; stroke-linejoin:round; stroke-width:4; stroke-opacity:1; fill:none" points="470.981,1173.47 470.981,1154.57 "/>
<polyline clip-path="url(#clip760)" style="stroke:#000000; stroke-linecap:round; stroke-linejoin:round; stroke-width:4; stroke-opacity:1; fill:none" points="609.189,1173.47 609.189,1154.57 "/>
<polyline clip-path="url(#clip760)" style="stroke:#000000; stroke-linecap:round; stroke-linejoin:round; stroke-width:4; stroke-opacity:1; fill:none" points="747.398,1173.47 747.398,1154.57 "/>
<polyline clip-path="url(#clip760)" style="stroke:#000000; stroke-linecap:round; stroke-linejoin:round; stroke-width:4; stroke-opacity:1; fill:none" points="885.606,1173.47 885.606,1154.57 "/>
<polyline clip-path="url(#clip760)" style="stroke:#000000; stroke-linecap:round; stroke-linejoin:round; stroke-width:4; stroke-opacity:1; fill:none" points="1023.81,1173.47 1023.81,1154.57 "/>
<polyline clip-path="url(#clip760)" style="stroke:#000000; stroke-linecap:round; stroke-linejoin:round; stroke-width:4; stroke-opacity:1; fill:none" points="1162.02,1173.47 1162.02,1154.57 "/>
<polyline clip-path="url(#clip760)" style="stroke:#000000; stroke-linecap:round; stroke-linejoin:round; stroke-width:4; stroke-opacity:1; fill:none" points="1300.23,1173.47 1300.23,1154.57 "/>
<polyline clip-path="url(#clip760)" style="stroke:#000000; stroke-linecap:round; stroke-linejoin:round; stroke-width:4; stroke-opacity:1; fill:none" points="1438.44,1173.47 1438.44,1154.57 "/>
<polyline clip-path="url(#clip760)" style="stroke:#000000; stroke-linecap:round; stroke-linejoin:round; stroke-width:4; stroke-opacity:1; fill:none" points="1576.65,1173.47 1576.65,1154.57 "/>
<polyline clip-path="url(#clip760)" style="stroke:#000000; stroke-linecap:round; stroke-linejoin:round; stroke-width:4; stroke-opacity:1; fill:none" points="1714.86,1173.47 1714.86,1154.57 "/>
<polyline clip-path="url(#clip760)" style="stroke:#000000; stroke-linecap:round; stroke-linejoin:round; stroke-width:4; stroke-opacity:1; fill:none" points="1853.07,1173.47 1853.07,1154.57 "/>
<polyline clip-path="url(#clip760)" style="stroke:#000000; stroke-linecap:round; stroke-linejoin:round; stroke-width:4; stroke-opacity:1; fill:none" points="1991.28,1173.47 1991.28,1154.57 "/>
<path clip-path="url(#clip760)" d="M323.154 1229.63 L330.793 1229.63 L330.793 1203.27 L322.483 1204.93 L322.483 1200.67 L330.747 1199.01 L335.422 1199.01 L335.422 1229.63 L343.061 1229.63 L343.061 1233.57 L323.154 1233.57 L323.154 1229.63 Z" fill="#000000" fill-rule="nonzero" fill-opacity="1" /><path clip-path="url(#clip760)" d="M460.437 1214.93 Q463.793 1215.65 465.668 1217.92 Q467.566 1220.19 467.566 1223.52 Q467.566 1228.64 464.048 1231.44 Q460.529 1234.24 454.048 1234.24 Q451.872 1234.24 449.557 1233.8 Q447.265 1233.38 444.812 1232.53 L444.812 1228.01 Q446.756 1229.15 449.071 1229.72 Q451.386 1230.3 453.909 1230.3 Q458.307 1230.3 460.599 1228.57 Q462.914 1226.83 462.914 1223.52 Q462.914 1220.46 460.761 1218.75 Q458.631 1217.02 454.812 1217.02 L450.784 1217.02 L450.784 1213.17 L454.997 1213.17 Q458.446 1213.17 460.275 1211.81 Q462.103 1210.42 462.103 1207.83 Q462.103 1205.16 460.205 1203.75 Q458.33 1202.32 454.812 1202.32 Q452.89 1202.32 450.691 1202.73 Q448.492 1203.15 445.853 1204.03 L445.853 1199.86 Q448.515 1199.12 450.83 1198.75 Q453.168 1198.38 455.228 1198.38 Q460.552 1198.38 463.654 1200.81 Q466.756 1203.22 466.756 1207.34 Q466.756 1210.21 465.113 1212.2 Q463.469 1214.17 460.437 1214.93 Z" fill="#000000" fill-rule="nonzero" fill-opacity="1" /><path clip-path="url(#clip760)" d="M477.242 1229.63 L484.881 1229.63 L484.881 1203.27 L476.571 1204.93 L476.571 1200.67 L484.835 1199.01 L489.511 1199.01 L489.511 1229.63 L497.149 1229.63 L497.149 1233.57 L477.242 1233.57 L477.242 1229.63 Z" fill="#000000" fill-rule="nonzero" fill-opacity="1" /><path clip-path="url(#clip760)" d="M595.208 1214.42 Q592.06 1214.42 590.208 1216.58 Q588.379 1218.73 588.379 1222.48 Q588.379 1226.21 590.208 1228.38 Q592.06 1230.53 595.208 1230.53 Q598.356 1230.53 600.185 1228.38 Q602.036 1226.21 602.036 1222.48 Q602.036 1218.73 600.185 1216.58 Q598.356 1214.42 595.208 1214.42 M604.49 1199.77 L604.49 1204.03 Q602.731 1203.2 600.925 1202.76 Q599.143 1202.32 597.384 1202.32 Q592.754 1202.32 590.3 1205.44 Q587.87 1208.57 587.523 1214.89 Q588.888 1212.87 590.949 1211.81 Q593.009 1210.72 595.486 1210.72 Q600.694 1210.72 603.703 1213.89 Q606.736 1217.04 606.736 1222.48 Q606.736 1227.8 603.587 1231.02 Q600.439 1234.24 595.208 1234.24 Q589.212 1234.24 586.041 1229.65 Q582.87 1225.05 582.87 1216.32 Q582.87 1208.13 586.759 1203.27 Q590.648 1198.38 597.199 1198.38 Q598.958 1198.38 600.74 1198.73 Q602.546 1199.08 604.49 1199.77 Z" fill="#000000" fill-rule="nonzero" fill-opacity="1" /><path clip-path="url(#clip760)" d="M615.601 1229.63 L623.24 1229.63 L623.24 1203.27 L614.93 1204.93 L614.93 1200.67 L623.194 1199.01 L627.87 1199.01 L627.87 1229.63 L635.509 1229.63 L635.509 1233.57 L615.601 1233.57 L615.601 1229.63 Z" fill="#000000" fill-rule="nonzero" fill-opacity="1" /><path clip-path="url(#clip760)" d="M723.139 1232.85 L723.139 1228.59 Q724.898 1229.42 726.703 1229.86 Q728.509 1230.3 730.245 1230.3 Q734.875 1230.3 737.305 1227.2 Q739.759 1224.08 740.106 1217.73 Q738.764 1219.72 736.703 1220.79 Q734.643 1221.85 732.143 1221.85 Q726.958 1221.85 723.926 1218.73 Q720.916 1215.58 720.916 1210.14 Q720.916 1204.82 724.065 1201.6 Q727.213 1198.38 732.444 1198.38 Q738.439 1198.38 741.588 1202.99 Q744.759 1207.57 744.759 1216.32 Q744.759 1224.49 740.87 1229.38 Q737.004 1234.24 730.453 1234.24 Q728.694 1234.24 726.889 1233.89 Q725.083 1233.54 723.139 1232.85 M732.444 1218.2 Q735.592 1218.2 737.421 1216.04 Q739.273 1213.89 739.273 1210.14 Q739.273 1206.41 737.421 1204.26 Q735.592 1202.09 732.444 1202.09 Q729.296 1202.09 727.444 1204.26 Q725.615 1206.41 725.615 1210.14 Q725.615 1213.89 727.444 1216.04 Q729.296 1218.2 732.444 1218.2 Z" fill="#000000" fill-rule="nonzero" fill-opacity="1" /><path clip-path="url(#clip760)" d="M753.972 1229.63 L761.611 1229.63 L761.611 1203.27 L753.301 1204.93 L753.301 1200.67 L761.564 1199.01 L766.24 1199.01 L766.24 1229.63 L773.879 1229.63 L773.879 1233.57 L753.972 1233.57 L753.972 1229.63 Z" fill="#000000" fill-rule="nonzero" fill-opacity="1" /><path clip-path="url(#clip760)" d="M845.826 1229.63 L853.465 1229.63 L853.465 1203.27 L845.155 1204.93 L845.155 1200.67 L853.419 1199.01 L858.095 1199.01 L858.095 1229.63 L865.734 1229.63 L865.734 1233.57 L845.826 1233.57 L845.826 1229.63 Z" fill="#000000" fill-rule="nonzero" fill-opacity="1" /><path clip-path="url(#clip760)" d="M879.206 1229.63 L895.525 1229.63 L895.525 1233.57 L873.581 1233.57 L873.581 1229.63 Q876.243 1226.88 880.826 1222.25 Q885.433 1217.59 886.613 1216.25 Q888.859 1213.73 889.738 1211.99 Q890.641 1210.23 890.641 1208.54 Q890.641 1205.79 888.697 1204.05 Q886.775 1202.32 883.674 1202.32 Q881.474 1202.32 879.021 1203.08 Q876.59 1203.84 873.812 1205.4 L873.812 1200.67 Q876.637 1199.54 879.09 1198.96 Q881.544 1198.38 883.581 1198.38 Q888.951 1198.38 892.146 1201.07 Q895.34 1203.75 895.34 1208.24 Q895.34 1210.37 894.53 1212.29 Q893.743 1214.19 891.636 1216.78 Q891.058 1217.46 887.956 1220.67 Q884.854 1223.87 879.206 1229.63 Z" fill="#000000" fill-rule="nonzero" fill-opacity="1" /><path clip-path="url(#clip760)" d="M906.15 1229.63 L913.789 1229.63 L913.789 1203.27 L905.479 1204.93 L905.479 1200.67 L913.743 1199.01 L918.419 1199.01 L918.419 1229.63 L926.058 1229.63 L926.058 1233.57 L906.15 1233.57 L906.15 1229.63 Z" fill="#000000" fill-rule="nonzero" fill-opacity="1" /><path clip-path="url(#clip760)" d="M984.035 1229.63 L991.674 1229.63 L991.674 1203.27 L983.364 1204.93 L983.364 1200.67 L991.628 1199.01 L996.304 1199.01 L996.304 1229.63 L1003.94 1229.63 L1003.94 1233.57 L984.035 1233.57 L984.035 1229.63 Z" fill="#000000" fill-rule="nonzero" fill-opacity="1" /><path clip-path="url(#clip760)" d="M1013.43 1199.01 L1031.79 1199.01 L1031.79 1202.94 L1017.72 1202.94 L1017.72 1211.41 Q1018.73 1211.07 1019.75 1210.9 Q1020.77 1210.72 1021.79 1210.72 Q1027.58 1210.72 1030.96 1213.89 Q1034.34 1217.06 1034.34 1222.48 Q1034.34 1228.06 1030.86 1231.16 Q1027.39 1234.24 1021.07 1234.24 Q1018.9 1234.24 1016.63 1233.87 Q1014.38 1233.5 1011.97 1232.76 L1011.97 1228.06 Q1014.06 1229.19 1016.28 1229.75 Q1018.5 1230.3 1020.98 1230.3 Q1024.98 1230.3 1027.32 1228.2 Q1029.66 1226.09 1029.66 1222.48 Q1029.66 1218.87 1027.32 1216.76 Q1024.98 1214.65 1020.98 1214.65 Q1019.1 1214.65 1017.23 1215.07 Q1015.38 1215.49 1013.43 1216.37 L1013.43 1199.01 Z" fill="#000000" fill-rule="nonzero" fill-opacity="1" /><path clip-path="url(#clip760)" d="M1044.36 1229.63 L1052 1229.63 L1052 1203.27 L1043.69 1204.93 L1043.69 1200.67 L1051.95 1199.01 L1056.63 1199.01 L1056.63 1229.63 L1064.27 1229.63 L1064.27 1233.57 L1044.36 1233.57 L1044.36 1229.63 Z" fill="#000000" fill-rule="nonzero" fill-opacity="1" /><path clip-path="url(#clip760)" d="M1122.24 1229.63 L1129.88 1229.63 L1129.88 1203.27 L1121.57 1204.93 L1121.57 1200.67 L1129.84 1199.01 L1134.51 1199.01 L1134.51 1229.63 L1142.15 1229.63 L1142.15 1233.57 L1122.24 1233.57 L1122.24 1229.63 Z" fill="#000000" fill-rule="nonzero" fill-opacity="1" /><path clip-path="url(#clip760)" d="M1161.6 1217.15 Q1158.26 1217.15 1156.34 1218.94 Q1154.44 1220.72 1154.44 1223.84 Q1154.44 1226.97 1156.34 1228.75 Q1158.26 1230.53 1161.6 1230.53 Q1164.93 1230.53 1166.85 1228.75 Q1168.77 1226.95 1168.77 1223.84 Q1168.77 1220.72 1166.85 1218.94 Q1164.95 1217.15 1161.6 1217.15 M1156.92 1215.16 Q1153.91 1214.42 1152.22 1212.36 Q1150.55 1210.3 1150.55 1207.34 Q1150.55 1203.2 1153.49 1200.79 Q1156.46 1198.38 1161.6 1198.38 Q1166.76 1198.38 1169.7 1200.79 Q1172.64 1203.2 1172.64 1207.34 Q1172.64 1210.3 1170.95 1212.36 Q1169.28 1214.42 1166.29 1215.16 Q1169.67 1215.95 1171.55 1218.24 Q1173.45 1220.53 1173.45 1223.84 Q1173.45 1228.87 1170.37 1231.55 Q1167.31 1234.24 1161.6 1234.24 Q1155.88 1234.24 1152.8 1231.55 Q1149.74 1228.87 1149.74 1223.84 Q1149.74 1220.53 1151.64 1218.24 Q1153.54 1215.95 1156.92 1215.16 M1155.21 1207.78 Q1155.21 1210.47 1156.87 1211.97 Q1158.56 1213.47 1161.6 1213.47 Q1164.6 1213.47 1166.29 1211.97 Q1168.01 1210.47 1168.01 1207.78 Q1168.01 1205.09 1166.29 1203.59 Q1164.6 1202.09 1161.6 1202.09 Q1158.56 1202.09 1156.87 1203.59 Q1155.21 1205.09 1155.21 1207.78 Z" fill="#000000" fill-rule="nonzero" fill-opacity="1" /><path clip-path="url(#clip760)" d="M1182.57 1229.63 L1190.21 1229.63 L1190.21 1203.27 L1181.9 1204.93 L1181.9 1200.67 L1190.16 1199.01 L1194.84 1199.01 L1194.84 1229.63 L1202.47 1229.63 L1202.47 1233.57 L1182.57 1233.57 L1182.57 1229.63 Z" fill="#000000" fill-rule="nonzero" fill-opacity="1" /><path clip-path="url(#clip760)" d="M1264.54 1229.63 L1280.86 1229.63 L1280.86 1233.57 L1258.91 1233.57 L1258.91 1229.63 Q1261.57 1226.88 1266.16 1222.25 Q1270.76 1217.59 1271.95 1216.25 Q1274.19 1213.73 1275.07 1211.99 Q1275.97 1210.23 1275.97 1208.54 Q1275.97 1205.79 1274.03 1204.05 Q1272.11 1202.32 1269.01 1202.32 Q1266.81 1202.32 1264.35 1203.08 Q1261.92 1203.84 1259.14 1205.4 L1259.14 1200.67 Q1261.97 1199.54 1264.42 1198.96 Q1266.88 1198.38 1268.91 1198.38 Q1274.28 1198.38 1277.48 1201.07 Q1280.67 1203.75 1280.67 1208.24 Q1280.67 1210.37 1279.86 1212.29 Q1279.07 1214.19 1276.97 1216.78 Q1276.39 1217.46 1273.29 1220.67 Q1270.19 1223.87 1264.54 1229.63 Z" fill="#000000" fill-rule="nonzero" fill-opacity="1" /><path clip-path="url(#clip760)" d="M1291.48 1229.63 L1299.12 1229.63 L1299.12 1203.27 L1290.81 1204.93 L1290.81 1200.67 L1299.07 1199.01 L1303.75 1199.01 L1303.75 1229.63 L1311.39 1229.63 L1311.39 1233.57 L1291.48 1233.57 L1291.48 1229.63 Z" fill="#000000" fill-rule="nonzero" fill-opacity="1" /><path clip-path="url(#clip760)" d="M1321.64 1229.63 L1329.28 1229.63 L1329.28 1203.27 L1320.97 1204.93 L1320.97 1200.67 L1329.24 1199.01 L1333.91 1199.01 L1333.91 1229.63 L1341.55 1229.63 L1341.55 1233.57 L1321.64 1233.57 L1321.64 1229.63 Z" fill="#000000" fill-rule="nonzero" fill-opacity="1" /><path clip-path="url(#clip760)" d="M1402.75 1229.63 L1419.07 1229.63 L1419.07 1233.57 L1397.12 1233.57 L1397.12 1229.63 Q1399.78 1226.88 1404.37 1222.25 Q1408.97 1217.59 1410.15 1216.25 Q1412.4 1213.73 1413.28 1211.99 Q1414.18 1210.23 1414.18 1208.54 Q1414.18 1205.79 1412.24 1204.05 Q1410.32 1202.32 1407.21 1202.32 Q1405.01 1202.32 1402.56 1203.08 Q1400.13 1203.84 1397.35 1205.4 L1397.35 1200.67 Q1400.18 1199.54 1402.63 1198.96 Q1405.08 1198.38 1407.12 1198.38 Q1412.49 1198.38 1415.69 1201.07 Q1418.88 1203.75 1418.88 1208.24 Q1418.88 1210.37 1418.07 1212.29 Q1417.28 1214.19 1415.18 1216.78 Q1414.6 1217.46 1411.5 1220.67 Q1408.39 1223.87 1402.75 1229.63 Z" fill="#000000" fill-rule="nonzero" fill-opacity="1" /><path clip-path="url(#clip760)" d="M1441.73 1203.08 L1429.92 1221.53 L1441.73 1221.53 L1441.73 1203.08 M1440.5 1199.01 L1446.38 1199.01 L1446.38 1221.53 L1451.31 1221.53 L1451.31 1225.42 L1446.38 1225.42 L1446.38 1233.57 L1441.73 1233.57 L1441.73 1225.42 L1426.13 1225.42 L1426.13 1220.9 L1440.5 1199.01 Z" fill="#000000" fill-rule="nonzero" fill-opacity="1" /><path clip-path="url(#clip760)" d="M1459.85 1229.63 L1467.49 1229.63 L1467.49 1203.27 L1459.18 1204.93 L1459.18 1200.67 L1467.45 1199.01 L1472.12 1199.01 L1472.12 1229.63 L1479.76 1229.63 L1479.76 1233.57 L1459.85 1233.57 L1459.85 1229.63 Z" fill="#000000" fill-rule="nonzero" fill-opacity="1" /><path clip-path="url(#clip760)" d="M1540.96 1229.63 L1557.27 1229.63 L1557.27 1233.57 L1535.33 1233.57 L1535.33 1229.63 Q1537.99 1226.88 1542.58 1222.25 Q1547.18 1217.59 1548.36 1216.25 Q1550.61 1213.73 1551.49 1211.99 Q1552.39 1210.23 1552.39 1208.54 Q1552.39 1205.79 1550.45 1204.05 Q1548.52 1202.32 1545.42 1202.32 Q1543.22 1202.32 1540.77 1203.08 Q1538.34 1203.84 1535.56 1205.4 L1535.56 1200.67 Q1538.39 1199.54 1540.84 1198.96 Q1543.29 1198.38 1545.33 1198.38 Q1550.7 1198.38 1553.89 1201.07 Q1557.09 1203.75 1557.09 1208.24 Q1557.09 1210.37 1556.28 1212.29 Q1555.49 1214.19 1553.39 1216.78 Q1552.81 1217.46 1549.7 1220.67 Q1546.6 1223.87 1540.96 1229.63 Z" fill="#000000" fill-rule="nonzero" fill-opacity="1" /><path clip-path="url(#clip760)" d="M1565.91 1199.01 L1588.13 1199.01 L1588.13 1201 L1575.58 1233.57 L1570.7 1233.57 L1582.51 1202.94 L1565.91 1202.94 L1565.91 1199.01 Z" fill="#000000" fill-rule="nonzero" fill-opacity="1" /><path clip-path="url(#clip760)" d="M1598.06 1229.63 L1605.7 1229.63 L1605.7 1203.27 L1597.39 1204.93 L1597.39 1200.67 L1605.65 1199.01 L1610.33 1199.01 L1610.33 1229.63 L1617.97 1229.63 L1617.97 1233.57 L1598.06 1233.57 L1598.06 1229.63 Z" fill="#000000" fill-rule="nonzero" fill-opacity="1" /><path clip-path="url(#clip760)" d="M1689.23 1214.93 Q1692.59 1215.65 1694.46 1217.92 Q1696.36 1220.19 1696.36 1223.52 Q1696.36 1228.64 1692.84 1231.44 Q1689.33 1234.24 1682.84 1234.24 Q1680.67 1234.24 1678.35 1233.8 Q1676.06 1233.38 1673.61 1232.53 L1673.61 1228.01 Q1675.55 1229.15 1677.87 1229.72 Q1680.18 1230.3 1682.71 1230.3 Q1687.1 1230.3 1689.4 1228.57 Q1691.71 1226.83 1691.71 1223.52 Q1691.71 1220.46 1689.56 1218.75 Q1687.43 1217.02 1683.61 1217.02 L1679.58 1217.02 L1679.58 1213.17 L1683.79 1213.17 Q1687.24 1213.17 1689.07 1211.81 Q1690.9 1210.42 1690.9 1207.83 Q1690.9 1205.16 1689 1203.75 Q1687.13 1202.32 1683.61 1202.32 Q1681.69 1202.32 1679.49 1202.73 Q1677.29 1203.15 1674.65 1204.03 L1674.65 1199.86 Q1677.31 1199.12 1679.63 1198.75 Q1681.96 1198.38 1684.02 1198.38 Q1689.35 1198.38 1692.45 1200.81 Q1695.55 1203.22 1695.55 1207.34 Q1695.55 1210.21 1693.91 1212.2 Q1692.27 1214.17 1689.23 1214.93 Z" fill="#000000" fill-rule="nonzero" fill-opacity="1" /><path clip-path="url(#clip760)" d="M1715.23 1202.09 Q1711.62 1202.09 1709.79 1205.65 Q1707.98 1209.19 1707.98 1216.32 Q1707.98 1223.43 1709.79 1226.99 Q1711.62 1230.53 1715.23 1230.53 Q1718.86 1230.53 1720.67 1226.99 Q1722.5 1223.43 1722.5 1216.32 Q1722.5 1209.19 1720.67 1205.65 Q1718.86 1202.09 1715.23 1202.09 M1715.23 1198.38 Q1721.04 1198.38 1724.09 1202.99 Q1727.17 1207.57 1727.17 1216.32 Q1727.17 1225.05 1724.09 1229.65 Q1721.04 1234.24 1715.23 1234.24 Q1709.42 1234.24 1706.34 1229.65 Q1703.28 1225.05 1703.28 1216.32 Q1703.28 1207.57 1706.34 1202.99 Q1709.42 1198.38 1715.23 1198.38 Z" fill="#000000" fill-rule="nonzero" fill-opacity="1" /><path clip-path="url(#clip760)" d="M1736.2 1229.63 L1743.84 1229.63 L1743.84 1203.27 L1735.53 1204.93 L1735.53 1200.67 L1743.79 1199.01 L1748.47 1199.01 L1748.47 1229.63 L1756.11 1229.63 L1756.11 1233.57 L1736.2 1233.57 L1736.2 1229.63 Z" fill="#000000" fill-rule="nonzero" fill-opacity="1" /><path clip-path="url(#clip760)" d="M1827.44 1214.93 Q1830.8 1215.65 1832.67 1217.92 Q1834.57 1220.19 1834.57 1223.52 Q1834.57 1228.64 1831.05 1231.44 Q1827.53 1234.24 1821.05 1234.24 Q1818.88 1234.24 1816.56 1233.8 Q1814.27 1233.38 1811.82 1232.53 L1811.82 1228.01 Q1813.76 1229.15 1816.08 1229.72 Q1818.39 1230.3 1820.91 1230.3 Q1825.31 1230.3 1827.6 1228.57 Q1829.92 1226.83 1829.92 1223.52 Q1829.92 1220.46 1827.77 1218.75 Q1825.64 1217.02 1821.82 1217.02 L1817.79 1217.02 L1817.79 1213.17 L1822 1213.17 Q1825.45 1213.17 1827.28 1211.81 Q1829.11 1210.42 1829.11 1207.83 Q1829.11 1205.16 1827.21 1203.75 Q1825.34 1202.32 1821.82 1202.32 Q1819.9 1202.32 1817.7 1202.73 Q1815.5 1203.15 1812.86 1204.03 L1812.86 1199.86 Q1815.52 1199.12 1817.84 1198.75 Q1820.17 1198.38 1822.23 1198.38 Q1827.56 1198.38 1830.66 1200.81 Q1833.76 1203.22 1833.76 1207.34 Q1833.76 1210.21 1832.12 1212.2 Q1830.47 1214.17 1827.44 1214.93 Z" fill="#000000" fill-rule="nonzero" fill-opacity="1" /><path clip-path="url(#clip760)" d="M1857.6 1214.93 Q1860.96 1215.65 1862.83 1217.92 Q1864.73 1220.19 1864.73 1223.52 Q1864.73 1228.64 1861.21 1231.44 Q1857.7 1234.24 1851.21 1234.24 Q1849.04 1234.24 1846.72 1233.8 Q1844.43 1233.38 1841.98 1232.53 L1841.98 1228.01 Q1843.92 1229.15 1846.24 1229.72 Q1848.55 1230.3 1851.08 1230.3 Q1855.47 1230.3 1857.77 1228.57 Q1860.08 1226.83 1860.08 1223.52 Q1860.08 1220.46 1857.93 1218.75 Q1855.8 1217.02 1851.98 1217.02 L1847.95 1217.02 L1847.95 1213.17 L1852.16 1213.17 Q1855.61 1213.17 1857.44 1211.81 Q1859.27 1210.42 1859.27 1207.83 Q1859.27 1205.16 1857.37 1203.75 Q1855.5 1202.32 1851.98 1202.32 Q1850.06 1202.32 1847.86 1202.73 Q1845.66 1203.15 1843.02 1204.03 L1843.02 1199.86 Q1845.68 1199.12 1848 1198.75 Q1850.33 1198.38 1852.4 1198.38 Q1857.72 1198.38 1860.82 1200.81 Q1863.92 1203.22 1863.92 1207.34 Q1863.92 1210.21 1862.28 1212.2 Q1860.64 1214.17 1857.6 1214.93 Z" fill="#000000" fill-rule="nonzero" fill-opacity="1" /><path clip-path="url(#clip760)" d="M1874.41 1229.63 L1882.05 1229.63 L1882.05 1203.27 L1873.74 1204.93 L1873.74 1200.67 L1882 1199.01 L1886.68 1199.01 L1886.68 1229.63 L1894.32 1229.63 L1894.32 1233.57 L1874.41 1233.57 L1874.41 1229.63 Z" fill="#000000" fill-rule="nonzero" fill-opacity="1" /><path clip-path="url(#clip760)" d="M1965.65 1214.93 Q1969.01 1215.65 1970.88 1217.92 Q1972.78 1220.19 1972.78 1223.52 Q1972.78 1228.64 1969.26 1231.44 Q1965.74 1234.24 1959.26 1234.24 Q1957.09 1234.24 1954.77 1233.8 Q1952.48 1233.38 1950.03 1232.53 L1950.03 1228.01 Q1951.97 1229.15 1954.28 1229.72 Q1956.6 1230.3 1959.12 1230.3 Q1963.52 1230.3 1965.81 1228.57 Q1968.13 1226.83 1968.13 1223.52 Q1968.13 1220.46 1965.97 1218.75 Q1963.84 1217.02 1960.03 1217.02 L1956 1217.02 L1956 1213.17 L1960.21 1213.17 Q1963.66 1213.17 1965.49 1211.81 Q1967.32 1210.42 1967.32 1207.83 Q1967.32 1205.16 1965.42 1203.75 Q1963.54 1202.32 1960.03 1202.32 Q1958.1 1202.32 1955.9 1202.73 Q1953.71 1203.15 1951.07 1204.03 L1951.07 1199.86 Q1953.73 1199.12 1956.04 1198.75 Q1958.38 1198.38 1960.44 1198.38 Q1965.77 1198.38 1968.87 1200.81 Q1971.97 1203.22 1971.97 1207.34 Q1971.97 1210.21 1970.33 1212.2 Q1968.68 1214.17 1965.65 1214.93 Z" fill="#000000" fill-rule="nonzero" fill-opacity="1" /><path clip-path="url(#clip760)" d="M1992.22 1214.42 Q1989.08 1214.42 1987.22 1216.58 Q1985.4 1218.73 1985.4 1222.48 Q1985.4 1226.21 1987.22 1228.38 Q1989.08 1230.53 1992.22 1230.53 Q1995.37 1230.53 1997.2 1228.38 Q1999.05 1226.21 1999.05 1222.48 Q1999.05 1218.73 1997.2 1216.58 Q1995.37 1214.42 1992.22 1214.42 M2001.51 1199.77 L2001.51 1204.03 Q1999.75 1203.2 1997.94 1202.76 Q1996.16 1202.32 1994.4 1202.32 Q1989.77 1202.32 1987.32 1205.44 Q1984.89 1208.57 1984.54 1214.89 Q1985.9 1212.87 1987.96 1211.81 Q1990.03 1210.72 1992.5 1210.72 Q1997.71 1210.72 2000.72 1213.89 Q2003.75 1217.04 2003.75 1222.48 Q2003.75 1227.8 2000.6 1231.02 Q1997.46 1234.24 1992.22 1234.24 Q1986.23 1234.24 1983.06 1229.65 Q1979.89 1225.05 1979.89 1216.32 Q1979.89 1208.13 1983.78 1203.27 Q1987.66 1198.38 1994.21 1198.38 Q1995.97 1198.38 1997.76 1198.73 Q1999.56 1199.08 2001.51 1199.77 Z" fill="#000000" fill-rule="nonzero" fill-opacity="1" /><path clip-path="url(#clip760)" d="M2012.62 1229.63 L2020.26 1229.63 L2020.26 1203.27 L2011.95 1204.93 L2011.95 1200.67 L2020.21 1199.01 L2024.89 1199.01 L2024.89 1229.63 L2032.52 1229.63 L2032.52 1233.57 L2012.62 1233.57 L2012.62 1229.63 Z" fill="#000000" fill-rule="nonzero" fill-opacity="1" /><path clip-path="url(#clip760)" d="M1119.78 1271.78 L1119.78 1308.73 L1127.55 1308.73 Q1137.38 1308.73 1141.94 1304.28 Q1146.52 1299.82 1146.52 1290.21 Q1146.52 1280.66 1141.94 1276.23 Q1137.38 1271.78 1127.55 1271.78 L1119.78 1271.78 M1113.35 1266.49 L1126.56 1266.49 Q1140.38 1266.49 1146.84 1272.26 Q1153.3 1277.98 1153.3 1290.21 Q1153.3 1302.49 1146.8 1308.25 Q1140.31 1314.01 1126.56 1314.01 L1113.35 1314.01 L1113.35 1266.49 Z" fill="#000000" fill-rule="nonzero" fill-opacity="1" /><path clip-path="url(#clip760)" d="M1179.49 1296.1 Q1172.4 1296.1 1169.66 1297.72 Q1166.92 1299.34 1166.92 1303.26 Q1166.92 1306.38 1168.96 1308.22 Q1171.03 1310.04 1174.56 1310.04 Q1179.43 1310.04 1182.36 1306.6 Q1185.32 1303.13 1185.32 1297.4 L1185.32 1296.1 L1179.49 1296.1 M1191.17 1293.68 L1191.17 1314.01 L1185.32 1314.01 L1185.32 1308.6 Q1183.31 1311.85 1180.32 1313.41 Q1177.33 1314.94 1173 1314.94 Q1167.53 1314.94 1164.28 1311.88 Q1161.06 1308.79 1161.06 1303.64 Q1161.06 1297.62 1165.07 1294.57 Q1169.12 1291.51 1177.11 1291.51 L1185.32 1291.51 L1185.32 1290.94 Q1185.32 1286.9 1182.64 1284.7 Q1180 1282.47 1175.2 1282.47 Q1172.14 1282.47 1169.24 1283.2 Q1166.35 1283.94 1163.67 1285.4 L1163.67 1279.99 Q1166.89 1278.75 1169.91 1278.14 Q1172.94 1277.51 1175.8 1277.51 Q1183.54 1277.51 1187.35 1281.52 Q1191.17 1285.53 1191.17 1293.68 Z" fill="#000000" fill-rule="nonzero" fill-opacity="1" /><path clip-path="url(#clip760)" d="M1218.07 1317.32 Q1215.59 1323.69 1213.23 1325.63 Q1210.88 1327.57 1206.93 1327.57 L1202.25 1327.57 L1202.25 1322.67 L1205.69 1322.67 Q1208.11 1322.67 1209.44 1321.53 Q1210.78 1320.38 1212.4 1316.12 L1213.45 1313.44 L1199.04 1278.37 L1205.24 1278.37 L1216.38 1306.25 L1227.52 1278.37 L1233.73 1278.37 L1218.07 1317.32 Z" fill="#000000" fill-rule="nonzero" fill-opacity="1" /><polyline clip-path="url(#clip762)" style="stroke:#000000; stroke-linecap:round; stroke-linejoin:round; stroke-width:2; stroke-opacity:0.1; fill:none" points="282.326,1031 2064.76,1031 "/>
<polyline clip-path="url(#clip762)" style="stroke:#000000; stroke-linecap:round; stroke-linejoin:round; stroke-width:2; stroke-opacity:0.1; fill:none" points="282.326,830.56 2064.76,830.56 "/>
<polyline clip-path="url(#clip762)" style="stroke:#000000; stroke-linecap:round; stroke-linejoin:round; stroke-width:2; stroke-opacity:0.1; fill:none" points="282.326,630.116 2064.76,630.116 "/>
<polyline clip-path="url(#clip762)" style="stroke:#000000; stroke-linecap:round; stroke-linejoin:round; stroke-width:2; stroke-opacity:0.1; fill:none" points="282.326,429.673 2064.76,429.673 "/>
<polyline clip-path="url(#clip762)" style="stroke:#000000; stroke-linecap:round; stroke-linejoin:round; stroke-width:2; stroke-opacity:0.1; fill:none" points="282.326,229.229 2064.76,229.229 "/>
<polyline clip-path="url(#clip760)" style="stroke:#000000; stroke-linecap:round; stroke-linejoin:round; stroke-width:4; stroke-opacity:1; fill:none" points="282.326,1173.47 282.326,47.2441 "/>
<polyline clip-path="url(#clip760)" style="stroke:#000000; stroke-linecap:round; stroke-linejoin:round; stroke-width:4; stroke-opacity:1; fill:none" points="282.326,1031 301.224,1031 "/>
<polyline clip-path="url(#clip760)" style="stroke:#000000; stroke-linecap:round; stroke-linejoin:round; stroke-width:4; stroke-opacity:1; fill:none" points="282.326,830.56 301.224,830.56 "/>
<polyline clip-path="url(#clip760)" style="stroke:#000000; stroke-linecap:round; stroke-linejoin:round; stroke-width:4; stroke-opacity:1; fill:none" points="282.326,630.116 301.224,630.116 "/>
<polyline clip-path="url(#clip760)" style="stroke:#000000; stroke-linecap:round; stroke-linejoin:round; stroke-width:4; stroke-opacity:1; fill:none" points="282.326,429.673 301.224,429.673 "/>
<polyline clip-path="url(#clip760)" style="stroke:#000000; stroke-linecap:round; stroke-linejoin:round; stroke-width:4; stroke-opacity:1; fill:none" points="282.326,229.229 301.224,229.229 "/>
<path clip-path="url(#clip760)" d="M114.536 1031.46 L144.211 1031.46 L144.211 1035.39 L114.536 1035.39 L114.536 1031.46 Z" fill="#000000" fill-rule="nonzero" fill-opacity="1" /><path clip-path="url(#clip760)" d="M164.304 1016.8 Q160.693 1016.8 158.864 1020.37 Q157.058 1023.91 157.058 1031.04 Q157.058 1038.15 158.864 1041.71 Q160.693 1045.25 164.304 1045.25 Q167.938 1045.25 169.744 1041.71 Q171.572 1038.15 171.572 1031.04 Q171.572 1023.91 169.744 1020.37 Q167.938 1016.8 164.304 1016.8 M164.304 1013.1 Q170.114 1013.1 173.169 1017.71 Q176.248 1022.29 176.248 1031.04 Q176.248 1039.77 173.169 1044.37 Q170.114 1048.96 164.304 1048.96 Q158.494 1048.96 155.415 1044.37 Q152.359 1039.77 152.359 1031.04 Q152.359 1022.29 155.415 1017.71 Q158.494 1013.1 164.304 1013.1 Z" fill="#000000" fill-rule="nonzero" fill-opacity="1" /><path clip-path="url(#clip760)" d="M184.466 1042.4 L189.35 1042.4 L189.35 1048.28 L184.466 1048.28 L184.466 1042.4 Z" fill="#000000" fill-rule="nonzero" fill-opacity="1" /><path clip-path="url(#clip760)" d="M203.563 1044.35 L219.882 1044.35 L219.882 1048.28 L197.938 1048.28 L197.938 1044.35 Q200.6 1041.59 205.183 1036.96 Q209.79 1032.31 210.97 1030.97 Q213.216 1028.45 214.095 1026.71 Q214.998 1024.95 214.998 1023.26 Q214.998 1020.51 213.054 1018.77 Q211.132 1017.03 208.03 1017.03 Q205.831 1017.03 203.378 1017.8 Q200.947 1018.56 198.169 1020.11 L198.169 1015.39 Q200.993 1014.26 203.447 1013.68 Q205.901 1013.1 207.938 1013.1 Q213.308 1013.1 216.503 1015.78 Q219.697 1018.47 219.697 1022.96 Q219.697 1025.09 218.887 1027.01 Q218.1 1028.91 215.993 1031.5 Q215.415 1032.17 212.313 1035.39 Q209.211 1038.59 203.563 1044.35 Z" fill="#000000" fill-rule="nonzero" fill-opacity="1" /><path clip-path="url(#clip760)" d="M229.743 1013.72 L248.1 1013.72 L248.1 1017.66 L234.026 1017.66 L234.026 1026.13 Q235.044 1025.78 236.063 1025.62 Q237.081 1025.44 238.1 1025.44 Q243.887 1025.44 247.266 1028.61 Q250.646 1031.78 250.646 1037.2 Q250.646 1042.78 247.174 1045.88 Q243.701 1048.96 237.382 1048.96 Q235.206 1048.96 232.938 1048.59 Q230.692 1048.21 228.285 1047.47 L228.285 1042.78 Q230.368 1043.91 232.59 1044.46 Q234.813 1045.02 237.289 1045.02 Q241.294 1045.02 243.632 1042.91 Q245.97 1040.81 245.97 1037.2 Q245.97 1033.59 243.632 1031.48 Q241.294 1029.37 237.289 1029.37 Q235.415 1029.37 233.54 1029.79 Q231.688 1030.21 229.743 1031.09 L229.743 1013.72 Z" fill="#000000" fill-rule="nonzero" fill-opacity="1" /><path clip-path="url(#clip760)" d="M113.54 831.012 L143.216 831.012 L143.216 834.947 L113.54 834.947 L113.54 831.012 Z" fill="#000000" fill-rule="nonzero" fill-opacity="1" /><path clip-path="url(#clip760)" d="M163.308 816.359 Q159.697 816.359 157.869 819.924 Q156.063 823.465 156.063 830.595 Q156.063 837.702 157.869 841.266 Q159.697 844.808 163.308 844.808 Q166.943 844.808 168.748 841.266 Q170.577 837.702 170.577 830.595 Q170.577 823.465 168.748 819.924 Q166.943 816.359 163.308 816.359 M163.308 812.655 Q169.119 812.655 172.174 817.262 Q175.253 821.845 175.253 830.595 Q175.253 839.322 172.174 843.928 Q169.119 848.512 163.308 848.512 Q157.498 848.512 154.42 843.928 Q151.364 839.322 151.364 830.595 Q151.364 821.845 154.42 817.262 Q157.498 812.655 163.308 812.655 Z" fill="#000000" fill-rule="nonzero" fill-opacity="1" /><path clip-path="url(#clip760)" d="M183.47 841.961 L188.355 841.961 L188.355 847.84 L183.47 847.84 L183.47 841.961 Z" fill="#000000" fill-rule="nonzero" fill-opacity="1" /><path clip-path="url(#clip760)" d="M202.567 843.905 L218.887 843.905 L218.887 847.84 L196.942 847.84 L196.942 843.905 Q199.605 841.151 204.188 836.521 Q208.794 831.868 209.975 830.526 Q212.22 828.003 213.1 826.266 Q214.003 824.507 214.003 822.817 Q214.003 820.063 212.058 818.327 Q210.137 816.591 207.035 816.591 Q204.836 816.591 202.382 817.354 Q199.952 818.118 197.174 819.669 L197.174 814.947 Q199.998 813.813 202.452 813.234 Q204.905 812.655 206.942 812.655 Q212.313 812.655 215.507 815.341 Q218.702 818.026 218.702 822.516 Q218.702 824.646 217.891 826.567 Q217.104 828.465 214.998 831.058 Q214.419 831.729 211.317 834.947 Q208.216 838.141 202.567 843.905 Z" fill="#000000" fill-rule="nonzero" fill-opacity="1" /><path clip-path="url(#clip760)" d="M238.702 816.359 Q235.09 816.359 233.262 819.924 Q231.456 823.465 231.456 830.595 Q231.456 837.702 233.262 841.266 Q235.09 844.808 238.702 844.808 Q242.336 844.808 244.141 841.266 Q245.97 837.702 245.97 830.595 Q245.97 823.465 244.141 819.924 Q242.336 816.359 238.702 816.359 M238.702 812.655 Q244.512 812.655 247.567 817.262 Q250.646 821.845 250.646 830.595 Q250.646 839.322 247.567 843.928 Q244.512 848.512 238.702 848.512 Q232.891 848.512 229.813 843.928 Q226.757 839.322 226.757 830.595 Q226.757 821.845 229.813 817.262 Q232.891 812.655 238.702 812.655 Z" fill="#000000" fill-rule="nonzero" fill-opacity="1" /><path clip-path="url(#clip760)" d="M114.536 630.568 L144.211 630.568 L144.211 634.503 L114.536 634.503 L114.536 630.568 Z" fill="#000000" fill-rule="nonzero" fill-opacity="1" /><path clip-path="url(#clip760)" d="M164.304 615.915 Q160.693 615.915 158.864 619.48 Q157.058 623.022 157.058 630.151 Q157.058 637.258 158.864 640.822 Q160.693 644.364 164.304 644.364 Q167.938 644.364 169.744 640.822 Q171.572 637.258 171.572 630.151 Q171.572 623.022 169.744 619.48 Q167.938 615.915 164.304 615.915 M164.304 612.211 Q170.114 612.211 173.169 616.818 Q176.248 621.401 176.248 630.151 Q176.248 638.878 173.169 643.484 Q170.114 648.068 164.304 648.068 Q158.494 648.068 155.415 643.484 Q152.359 638.878 152.359 630.151 Q152.359 621.401 155.415 616.818 Q158.494 612.211 164.304 612.211 Z" fill="#000000" fill-rule="nonzero" fill-opacity="1" /><path clip-path="url(#clip760)" d="M184.466 641.517 L189.35 641.517 L189.35 647.396 L184.466 647.396 L184.466 641.517 Z" fill="#000000" fill-rule="nonzero" fill-opacity="1" /><path clip-path="url(#clip760)" d="M200.345 643.461 L207.984 643.461 L207.984 617.096 L199.674 618.762 L199.674 614.503 L207.938 612.836 L212.614 612.836 L212.614 643.461 L220.253 643.461 L220.253 647.396 L200.345 647.396 L200.345 643.461 Z" fill="#000000" fill-rule="nonzero" fill-opacity="1" /><path clip-path="url(#clip760)" d="M229.743 612.836 L248.1 612.836 L248.1 616.772 L234.026 616.772 L234.026 625.244 Q235.044 624.897 236.063 624.735 Q237.081 624.549 238.1 624.549 Q243.887 624.549 247.266 627.721 Q250.646 630.892 250.646 636.309 Q250.646 641.887 247.174 644.989 Q243.701 648.068 237.382 648.068 Q235.206 648.068 232.938 647.697 Q230.692 647.327 228.285 646.586 L228.285 641.887 Q230.368 643.021 232.59 643.577 Q234.813 644.133 237.289 644.133 Q241.294 644.133 243.632 642.026 Q245.97 639.92 245.97 636.309 Q245.97 632.697 243.632 630.591 Q241.294 628.485 237.289 628.485 Q235.415 628.485 233.54 628.901 Q231.688 629.318 229.743 630.197 L229.743 612.836 Z" fill="#000000" fill-rule="nonzero" fill-opacity="1" /><path clip-path="url(#clip760)" d="M113.54 430.124 L143.216 430.124 L143.216 434.059 L113.54 434.059 L113.54 430.124 Z" fill="#000000" fill-rule="nonzero" fill-opacity="1" /><path clip-path="url(#clip760)" d="M163.308 415.471 Q159.697 415.471 157.869 419.036 Q156.063 422.578 156.063 429.707 Q156.063 436.814 157.869 440.379 Q159.697 443.92 163.308 443.92 Q166.943 443.92 168.748 440.379 Q170.577 436.814 170.577 429.707 Q170.577 422.578 168.748 419.036 Q166.943 415.471 163.308 415.471 M163.308 411.768 Q169.119 411.768 172.174 416.374 Q175.253 420.957 175.253 429.707 Q175.253 438.434 172.174 443.041 Q169.119 447.624 163.308 447.624 Q157.498 447.624 154.42 443.041 Q151.364 438.434 151.364 429.707 Q151.364 420.957 154.42 416.374 Q157.498 411.768 163.308 411.768 Z" fill="#000000" fill-rule="nonzero" fill-opacity="1" /><path clip-path="url(#clip760)" d="M183.47 441.073 L188.355 441.073 L188.355 446.953 L183.47 446.953 L183.47 441.073 Z" fill="#000000" fill-rule="nonzero" fill-opacity="1" /><path clip-path="url(#clip760)" d="M199.35 443.017 L206.989 443.017 L206.989 416.652 L198.679 418.318 L198.679 414.059 L206.942 412.393 L211.618 412.393 L211.618 443.017 L219.257 443.017 L219.257 446.953 L199.35 446.953 L199.35 443.017 Z" fill="#000000" fill-rule="nonzero" fill-opacity="1" /><path clip-path="url(#clip760)" d="M238.702 415.471 Q235.09 415.471 233.262 419.036 Q231.456 422.578 231.456 429.707 Q231.456 436.814 233.262 440.379 Q235.09 443.92 238.702 443.92 Q242.336 443.92 244.141 440.379 Q245.97 436.814 245.97 429.707 Q245.97 422.578 244.141 419.036 Q242.336 415.471 238.702 415.471 M238.702 411.768 Q244.512 411.768 247.567 416.374 Q250.646 420.957 250.646 429.707 Q250.646 438.434 247.567 443.041 Q244.512 447.624 238.702 447.624 Q232.891 447.624 229.813 443.041 Q226.757 438.434 226.757 429.707 Q226.757 420.957 229.813 416.374 Q232.891 411.768 238.702 411.768 Z" fill="#000000" fill-rule="nonzero" fill-opacity="1" /><path clip-path="url(#clip760)" d="M114.536 229.68 L144.211 229.68 L144.211 233.615 L114.536 233.615 L114.536 229.68 Z" fill="#000000" fill-rule="nonzero" fill-opacity="1" /><path clip-path="url(#clip760)" d="M164.304 215.027 Q160.693 215.027 158.864 218.592 Q157.058 222.134 157.058 229.263 Q157.058 236.37 158.864 239.935 Q160.693 243.476 164.304 243.476 Q167.938 243.476 169.744 239.935 Q171.572 236.37 171.572 229.263 Q171.572 222.134 169.744 218.592 Q167.938 215.027 164.304 215.027 M164.304 211.324 Q170.114 211.324 173.169 215.93 Q176.248 220.513 176.248 229.263 Q176.248 237.99 173.169 242.597 Q170.114 247.18 164.304 247.18 Q158.494 247.18 155.415 242.597 Q152.359 237.99 152.359 229.263 Q152.359 220.513 155.415 215.93 Q158.494 211.324 164.304 211.324 Z" fill="#000000" fill-rule="nonzero" fill-opacity="1" /><path clip-path="url(#clip760)" d="M184.466 240.629 L189.35 240.629 L189.35 246.509 L184.466 246.509 L184.466 240.629 Z" fill="#000000" fill-rule="nonzero" fill-opacity="1" /><path clip-path="url(#clip760)" d="M209.535 215.027 Q205.924 215.027 204.095 218.592 Q202.29 222.134 202.29 229.263 Q202.29 236.37 204.095 239.935 Q205.924 243.476 209.535 243.476 Q213.169 243.476 214.975 239.935 Q216.803 236.37 216.803 229.263 Q216.803 222.134 214.975 218.592 Q213.169 215.027 209.535 215.027 M209.535 211.324 Q215.345 211.324 218.401 215.93 Q221.479 220.513 221.479 229.263 Q221.479 237.99 218.401 242.597 Q215.345 247.18 209.535 247.18 Q203.725 247.18 200.646 242.597 Q197.591 237.99 197.591 229.263 Q197.591 220.513 200.646 215.93 Q203.725 211.324 209.535 211.324 Z" fill="#000000" fill-rule="nonzero" fill-opacity="1" /><path clip-path="url(#clip760)" d="M229.743 211.949 L248.1 211.949 L248.1 215.884 L234.026 215.884 L234.026 224.356 Q235.044 224.009 236.063 223.847 Q237.081 223.662 238.1 223.662 Q243.887 223.662 247.266 226.833 Q250.646 230.004 250.646 235.421 Q250.646 240.999 247.174 244.101 Q243.701 247.18 237.382 247.18 Q235.206 247.18 232.938 246.81 Q230.692 246.439 228.285 245.698 L228.285 240.999 Q230.368 242.134 232.59 242.689 Q234.813 243.245 237.289 243.245 Q241.294 243.245 243.632 241.138 Q245.97 239.032 245.97 235.421 Q245.97 231.81 243.632 229.703 Q241.294 227.597 237.289 227.597 Q235.415 227.597 233.54 228.013 Q231.688 228.43 229.743 229.31 L229.743 211.949 Z" fill="#000000" fill-rule="nonzero" fill-opacity="1" /><path clip-path="url(#clip760)" d="M26.418 981.478 L50.0666 990.199 L50.0666 972.725 L26.418 981.478 M20.0842 985.107 L20.0842 977.818 L67.6042 959.707 L67.6042 966.391 L55.4138 970.72 L55.4138 992.141 L67.6042 996.469 L67.6042 1003.25 L20.0842 985.107 Z" fill="#000000" fill-rule="nonzero" fill-opacity="1" /><path clip-path="url(#clip760)" d="M31.9562 961.044 L31.9562 954.838 L61.875 943.698 L31.9562 932.558 L31.9562 926.351 L67.6042 939.719 L67.6042 947.676 L31.9562 961.044 Z" fill="#000000" fill-rule="nonzero" fill-opacity="1" /><path clip-path="url(#clip760)" d="M48.3161 887.775 L51.1806 887.775 L51.1806 914.702 Q57.2281 914.32 60.4109 911.073 Q63.5619 907.795 63.5619 901.97 Q63.5619 898.597 62.7344 895.446 Q61.9069 892.263 60.2518 889.144 L65.7899 889.144 Q67.1267 892.295 67.827 895.605 Q68.5272 898.915 68.5272 902.321 Q68.5272 910.851 63.5619 915.848 Q58.5967 920.813 50.1303 920.813 Q41.3774 920.813 36.2531 916.102 Q31.0968 911.36 31.0968 903.339 Q31.0968 896.146 35.7438 891.976 Q40.3589 887.775 48.3161 887.775 M46.5973 893.631 Q41.7912 893.695 38.9266 896.337 Q36.0621 898.947 36.0621 903.275 Q36.0621 908.177 38.8312 911.137 Q41.6002 914.065 46.6292 914.511 L46.5973 893.631 Z" fill="#000000" fill-rule="nonzero" fill-opacity="1" /><path clip-path="url(#clip760)" d="M37.4307 857.506 Q36.8578 858.493 36.6032 859.67 Q36.3167 860.816 36.3167 862.217 Q36.3167 867.182 39.5632 869.855 Q42.7779 872.497 48.8253 872.497 L67.6042 872.497 L67.6042 878.386 L31.9562 878.386 L31.9562 872.497 L37.4944 872.497 Q34.2479 870.651 32.6883 867.691 Q31.0968 864.731 31.0968 860.498 Q31.0968 859.893 31.1923 859.161 Q31.256 858.429 31.4151 857.538 L37.4307 857.506 Z" fill="#000000" fill-rule="nonzero" fill-opacity="1" /><path clip-path="url(#clip760)" d="M49.6847 835.162 Q49.6847 842.26 51.3079 844.997 Q52.9312 847.735 56.8461 847.735 Q59.9653 847.735 61.8114 845.698 Q63.6256 843.629 63.6256 840.096 Q63.6256 835.226 60.1881 832.298 Q56.7188 829.338 50.9897 829.338 L49.6847 829.338 L49.6847 835.162 M47.2657 823.481 L67.6042 823.481 L67.6042 829.338 L62.1933 829.338 Q65.4398 831.343 66.9994 834.335 Q68.5272 837.327 68.5272 841.655 Q68.5272 847.13 65.4716 850.376 Q62.3843 853.591 57.2281 853.591 Q51.2125 853.591 48.1569 849.581 Q45.1014 845.538 45.1014 837.549 L45.1014 829.338 L44.5285 829.338 Q40.4862 829.338 38.2901 832.011 Q36.0621 834.653 36.0621 839.459 Q36.0621 842.515 36.7941 845.411 Q37.5262 848.308 38.9903 850.981 L33.5795 850.981 Q32.3381 847.766 31.7334 844.743 Q31.0968 841.719 31.0968 838.854 Q31.0968 831.12 35.1072 827.301 Q39.1176 823.481 47.2657 823.481 Z" fill="#000000" fill-rule="nonzero" fill-opacity="1" /><path clip-path="url(#clip760)" d="M49.3664 787.961 Q43.0007 787.961 39.4996 790.602 Q35.9984 793.212 35.9984 797.955 Q35.9984 802.665 39.4996 805.307 Q43.0007 807.917 49.3664 807.917 Q55.7003 807.917 59.2014 805.307 Q62.7026 802.665 62.7026 797.955 Q62.7026 793.212 59.2014 790.602 Q55.7003 787.961 49.3664 787.961 M63.18 782.104 Q72.283 782.104 76.7071 786.146 Q81.1631 790.189 81.1631 798.528 Q81.1631 801.615 80.6857 804.352 Q80.2401 807.09 79.2852 809.668 L73.5879 809.668 Q74.9884 807.09 75.6568 804.575 Q76.3252 802.061 76.3252 799.451 Q76.3252 793.69 73.3015 790.825 Q70.3096 787.961 64.2303 787.961 L61.3339 787.961 Q64.485 789.775 66.0446 792.608 Q67.6042 795.44 67.6042 799.387 Q67.6042 805.944 62.6071 809.954 Q57.61 813.965 49.3664 813.965 Q41.091 813.965 36.0939 809.954 Q31.0968 805.944 31.0968 799.387 Q31.0968 795.44 32.6564 792.608 Q34.216 789.775 37.3671 787.961 L31.9562 787.961 L31.9562 782.104 L63.18 782.104 Z" fill="#000000" fill-rule="nonzero" fill-opacity="1" /><path clip-path="url(#clip760)" d="M48.3161 739.549 L51.1806 739.549 L51.1806 766.476 Q57.2281 766.094 60.4109 762.848 Q63.5619 759.57 63.5619 753.745 Q63.5619 750.371 62.7344 747.22 Q61.9069 744.037 60.2518 740.918 L65.7899 740.918 Q67.1267 744.069 67.827 747.379 Q68.5272 750.689 68.5272 754.095 Q68.5272 762.625 63.5619 767.622 Q58.5967 772.587 50.1303 772.587 Q41.3774 772.587 36.2531 767.877 Q31.0968 763.134 31.0968 755.114 Q31.0968 747.92 35.7438 743.751 Q40.3589 739.549 48.3161 739.549 M46.5973 745.406 Q41.7912 745.47 38.9266 748.111 Q36.0621 750.721 36.0621 755.05 Q36.0621 759.952 38.8312 762.912 Q41.6002 765.84 46.6292 766.285 L46.5973 745.406 Z" fill="#000000" fill-rule="nonzero" fill-opacity="1" /><path clip-path="url(#clip760)" d="M20.0842 713.195 L20.0842 706.702 L60.2518 696.708 L20.0842 686.746 L20.0842 679.521 L60.2518 669.527 L20.0842 659.564 L20.0842 653.039 L67.6042 664.975 L67.6042 673.06 L26.3544 683.086 L67.6042 693.207 L67.6042 701.292 L20.0842 713.195 Z" fill="#000000" fill-rule="nonzero" fill-opacity="1" /><path clip-path="url(#clip760)" d="M49.6847 632.733 Q49.6847 639.831 51.3079 642.568 Q52.9312 645.305 56.8461 645.305 Q59.9653 645.305 61.8114 643.268 Q63.6256 641.199 63.6256 637.666 Q63.6256 632.797 60.1881 629.868 Q56.7188 626.908 50.9897 626.908 L49.6847 626.908 L49.6847 632.733 M47.2657 621.052 L67.6042 621.052 L67.6042 626.908 L62.1933 626.908 Q65.4398 628.913 66.9994 631.905 Q68.5272 634.897 68.5272 639.226 Q68.5272 644.7 65.4716 647.947 Q62.3843 651.162 57.2281 651.162 Q51.2125 651.162 48.1569 647.151 Q45.1014 643.109 45.1014 635.12 L45.1014 626.908 L44.5285 626.908 Q40.4862 626.908 38.2901 629.582 Q36.0621 632.224 36.0621 637.03 Q36.0621 640.085 36.7941 642.982 Q37.5262 645.878 38.9903 648.552 L33.5795 648.552 Q32.3381 645.337 31.7334 642.313 Q31.0968 639.29 31.0968 636.425 Q31.0968 628.691 35.1072 624.871 Q39.1176 621.052 47.2657 621.052 Z" fill="#000000" fill-rule="nonzero" fill-opacity="1" /><path clip-path="url(#clip760)" d="M21.8347 603.196 L31.9562 603.196 L31.9562 591.133 L36.5077 591.133 L36.5077 603.196 L55.8594 603.196 Q60.2199 603.196 61.4613 602.018 Q62.7026 600.809 62.7026 597.149 L62.7026 591.133 L67.6042 591.133 L67.6042 597.149 Q67.6042 603.928 65.0897 606.506 Q62.5434 609.084 55.8594 609.084 L36.5077 609.084 L36.5077 613.381 L31.9562 613.381 L31.9562 609.084 L21.8347 609.084 L21.8347 603.196 Z" fill="#000000" fill-rule="nonzero" fill-opacity="1" /><path clip-path="url(#clip760)" d="M48.3161 552.939 L51.1806 552.939 L51.1806 579.866 Q57.2281 579.484 60.4109 576.237 Q63.5619 572.959 63.5619 567.134 Q63.5619 563.76 62.7344 560.609 Q61.9069 557.427 60.2518 554.307 L65.7899 554.307 Q67.1267 557.458 67.827 560.769 Q68.5272 564.079 68.5272 567.484 Q68.5272 576.014 63.5619 581.012 Q58.5967 585.977 50.1303 585.977 Q41.3774 585.977 36.2531 581.266 Q31.0968 576.524 31.0968 568.503 Q31.0968 561.31 35.7438 557.14 Q40.3589 552.939 48.3161 552.939 M46.5973 558.795 Q41.7912 558.859 38.9266 561.501 Q36.0621 564.111 36.0621 568.439 Q36.0621 573.341 38.8312 576.301 Q41.6002 579.229 46.6292 579.675 L46.5973 558.795 Z" fill="#000000" fill-rule="nonzero" fill-opacity="1" /><path clip-path="url(#clip760)" d="M37.4307 522.67 Q36.8578 523.656 36.6032 524.834 Q36.3167 525.98 36.3167 527.38 Q36.3167 532.346 39.5632 535.019 Q42.7779 537.661 48.8253 537.661 L67.6042 537.661 L67.6042 543.549 L31.9562 543.549 L31.9562 537.661 L37.4944 537.661 Q34.2479 535.815 32.6883 532.855 Q31.0968 529.895 31.0968 525.662 Q31.0968 525.057 31.1923 524.325 Q31.256 523.593 31.4151 522.702 L37.4307 522.67 Z" fill="#000000" fill-rule="nonzero" fill-opacity="1" /><path clip-path="url(#clip760)" d="M18.079 495.807 L18.079 489.95 L67.6042 489.95 L67.6042 495.807 L18.079 495.807 Z" fill="#000000" fill-rule="nonzero" fill-opacity="1" /><path clip-path="url(#clip760)" d="M48.3161 447.204 L51.1806 447.204 L51.1806 474.131 Q57.2281 473.749 60.4109 470.503 Q63.5619 467.225 63.5619 461.4 Q63.5619 458.026 62.7344 454.875 Q61.9069 451.692 60.2518 448.573 L65.7899 448.573 Q67.1267 451.724 67.827 455.034 Q68.5272 458.344 68.5272 461.75 Q68.5272 470.28 63.5619 475.277 Q58.5967 480.242 50.1303 480.242 Q41.3774 480.242 36.2531 475.532 Q31.0968 470.789 31.0968 462.769 Q31.0968 455.575 35.7438 451.406 Q40.3589 447.204 48.3161 447.204 M46.5973 453.061 Q41.7912 453.124 38.9266 455.766 Q36.0621 458.376 36.0621 462.705 Q36.0621 467.606 38.8312 470.567 Q41.6002 473.495 46.6292 473.94 L46.5973 453.061 Z" fill="#000000" fill-rule="nonzero" fill-opacity="1" /><path clip-path="url(#clip760)" d="M31.9562 441.794 L31.9562 435.587 L61.875 424.447 L31.9562 413.307 L31.9562 407.1 L67.6042 420.468 L67.6042 428.426 L31.9562 441.794 Z" fill="#000000" fill-rule="nonzero" fill-opacity="1" /><path clip-path="url(#clip760)" d="M48.3161 368.524 L51.1806 368.524 L51.1806 395.451 Q57.2281 395.069 60.4109 391.823 Q63.5619 388.544 63.5619 382.72 Q63.5619 379.346 62.7344 376.195 Q61.9069 373.012 60.2518 369.893 L65.7899 369.893 Q67.1267 373.044 67.827 376.354 Q68.5272 379.664 68.5272 383.07 Q68.5272 391.6 63.5619 396.597 Q58.5967 401.562 50.1303 401.562 Q41.3774 401.562 36.2531 396.852 Q31.0968 392.109 31.0968 384.088 Q31.0968 376.895 35.7438 372.726 Q40.3589 368.524 48.3161 368.524 M46.5973 374.381 Q41.7912 374.444 38.9266 377.086 Q36.0621 379.696 36.0621 384.025 Q36.0621 388.926 38.8312 391.886 Q41.6002 394.815 46.6292 395.26 L46.5973 374.381 Z" fill="#000000" fill-rule="nonzero" fill-opacity="1" /><path clip-path="url(#clip760)" d="M18.079 358.912 L18.079 353.056 L67.6042 353.056 L67.6042 358.912 L18.079 358.912 Z" fill="#000000" fill-rule="nonzero" fill-opacity="1" /><path clip-path="url(#clip760)" d="M18.1426 306.013 Q25.4632 310.278 32.6246 312.347 Q39.786 314.416 47.1384 314.416 Q54.4908 314.416 61.7159 312.347 Q68.9091 310.246 76.1979 306.013 L76.1979 311.106 Q68.7182 315.88 61.4931 318.267 Q54.268 320.622 47.1384 320.622 Q40.0406 320.622 32.8474 318.267 Q25.6542 315.912 18.1426 311.106 L18.1426 306.013 Z" fill="#000000" fill-rule="nonzero" fill-opacity="1" /><path clip-path="url(#clip760)" d="M38.7993 266.896 Q34.8526 264.7 32.9747 261.644 Q31.0968 258.588 31.0968 254.451 Q31.0968 248.881 35.0117 245.857 Q38.8948 242.833 46.0881 242.833 L67.6042 242.833 L67.6042 248.722 L46.279 248.722 Q41.1546 248.722 38.672 250.536 Q36.1894 252.35 36.1894 256.074 Q36.1894 260.626 39.2131 263.267 Q42.2368 265.909 47.4567 265.909 L67.6042 265.909 L67.6042 271.797 L46.279 271.797 Q41.1228 271.797 38.672 273.612 Q36.1894 275.426 36.1894 279.213 Q36.1894 283.701 39.2449 286.343 Q42.2686 288.985 47.4567 288.985 L67.6042 288.985 L67.6042 294.873 L31.9562 294.873 L31.9562 288.985 L37.4944 288.985 Q34.216 286.98 32.6564 284.179 Q31.0968 281.378 31.0968 277.526 Q31.0968 273.643 33.0702 270.938 Q35.0436 268.201 38.7993 266.896 Z" fill="#000000" fill-rule="nonzero" fill-opacity="1" /><path clip-path="url(#clip760)" d="M18.1426 232.075 L18.1426 226.983 Q25.6542 222.208 32.8474 219.853 Q40.0406 217.466 47.1384 217.466 Q54.268 217.466 61.4931 219.853 Q68.7182 222.208 76.1979 226.983 L76.1979 232.075 Q68.9091 227.842 61.7159 225.773 Q54.4908 223.673 47.1384 223.673 Q39.786 223.673 32.6246 225.773 Q25.4632 227.842 18.1426 232.075 Z" fill="#000000" fill-rule="nonzero" fill-opacity="1" /><polyline clip-path="url(#clip762)" style="stroke:#009af9; stroke-linecap:round; stroke-linejoin:round; stroke-width:12; stroke-opacity:1; fill:none" points="332.772,916.063 337.379,959.369 341.986,977.506 346.593,854.822 351.2,900.85 355.807,1042.11 360.414,1019.59 365.021,1008.84 369.628,1057.86 374.235,1001.05 378.842,983.992 383.449,1009.02 388.055,972.854 392.662,862.084 397.269,894.092 401.876,866.475 406.483,951.766 411.09,1027 415.697,988.622 420.304,949.745 424.911,992.997 429.518,987.763 434.125,978.061 438.732,921.405 443.339,961.384 447.946,1047.39 452.553,1041.75 457.16,938.405 461.767,956.497 466.374,997.02 470.981,968.626 475.588,997.957 480.195,980.625 484.801,905.239 489.408,884.976 494.015,834.842 498.622,912.791 503.229,802.773 507.836,705.953 512.443,865.224 517.05,926.038 521.657,895.532 526.264,843.576 530.871,949.127 535.478,1073.17 540.085,1091.14 544.692,959.032 549.299,852.729 553.906,863.36 558.513,891.468 563.12,927.322 567.727,987.086 572.334,953.22 576.941,927.914 581.547,890.924 586.154,857.154 590.761,880.449 595.368,861.582 599.975,812.982 604.582,791.839 609.189,769.459 613.796,824.957 618.403,799.7 623.01,834.586 627.617,839.175 632.224,748.306 636.831,774.042 641.438,863.065 646.045,917.632 650.652,899.695 655.259,883.155 659.866,838.169 664.473,834.887 669.08,853.145 673.687,855.774 678.293,828.867 682.9,824.84 687.507,730.546 692.114,627.907 696.721,620.732 701.328,593.905 705.935,752.093 710.542,793.437 715.149,733.51 719.756,711.251 724.363,734.918 728.97,814.992 733.577,785.99 738.184,745.885 742.791,703.32 747.398,679.653 752.005,723.677 756.612,774.833 761.219,813.091 765.826,812.782 770.433,807.035 775.039,789.498 779.646,755.937 784.253,618.709 788.86,621.835 793.467,758.869 798.074,774.026 802.681,680.023 807.288,693.93 811.895,734.834 816.502,607.114 821.109,627.288 825.716,687.401 830.323,760.64 834.93,665.334 839.537,707.643 844.144,680.218 848.751,652.681 853.358,670.686 857.965,601.506 862.572,530.695 867.179,509.925 871.786,530.994 876.392,522.058 880.999,621.783 885.606,670.762 890.213,656.979 894.82,623.002 899.427,587.405 904.034,617.339 908.641,623.303 913.248,556.388 917.855,529.255 922.462,568.593 927.069,662.725 931.676,711.281 936.283,700.953 940.89,626.208 945.497,605.641 950.104,616.186 954.711,649.565 959.318,663.847 963.925,614.826 968.532,575.914 973.138,570.016 977.745,529.034 982.352,586.312 986.959,603.78 991.566,579.273 996.173,554.023 1000.78,550.28 1005.39,480.234 1009.99,524.664 1014.6,531.843 1019.21,479.012 1023.81,548.476 1028.42,589.694 1033.03,612.104 1037.64,544.058 1042.24,479.802 1046.85,514.408 1051.46,541.631 1056.06,536.509 1060.67,501.362 1065.28,521.505 1069.88,532.907 1074.49,545.113 1079.1,571.174 1083.71,553.211 1088.31,490.037 1092.92,464.68 1097.53,520.048 1102.13,523.042 1106.74,541.134 1111.35,606.04 1115.95,584.982 1120.56,560.768 1125.17,563.543 1129.77,550.801 1134.38,545.914 1138.99,561.978 1143.6,584.431 1148.2,605.49 1152.81,614.848 1157.42,639.576 1162.02,627.076 1166.63,644.663 1171.24,643.385 1175.84,633.495 1180.45,642.795 1185.06,673.357 1189.67,719.599 1194.27,738.89 1198.88,692.979 1203.49,681.359 1208.09,711.431 1212.7,664.936 1217.31,643.2 1221.91,638.973 1226.52,649.977 1231.13,658.867 1235.73,668.086 1240.34,668.106 1244.95,729.118 1249.56,769.064 1254.16,724.107 1258.77,652.38 1263.38,634.38 1267.98,629.782 1272.59,620.67 1277.2,641.239 1281.8,621.421 1286.41,630.821 1291.02,688.423 1295.63,625.007 1300.23,555.874 1304.84,568.981 1309.45,590.988 1314.05,586.053 1318.66,646.452 1323.27,637.408 1327.87,610.767 1332.48,568.112 1337.09,515.968 1341.69,529.058 1346.3,550.05 1350.91,535.4 1355.52,557.04 1360.12,545.295 1364.73,560.749 1369.34,573.199 1373.94,623.911 1378.55,615.924 1383.16,579.49 1387.76,512.762 1392.37,445.316 1396.98,354.749 1401.59,327.101 1406.19,330.642 1410.8,307.197 1415.41,355.343 1420.01,388.294 1424.62,397.36 1429.23,432.251 1433.83,413.359 1438.44,384.892 1443.05,401.481 1447.65,367.462 1452.26,345.199 1456.87,327.316 1461.48,341.723 1466.08,283.789 1470.69,298.699 1475.3,242.803 1479.9,209.181 1484.51,198.415 1489.12,177.882 1493.72,190.144 1498.33,233.952 1502.94,285.926 1507.54,257.107 1512.15,267.884 1516.76,259.512 1521.37,188.446 1525.97,160.847 1530.58,99.65 1535.19,79.2425 1539.79,85.8394 1544.4,108.292 1549.01,118.46 1553.61,146.65 1558.22,179.962 1562.83,167.049 1567.44,103.485 1572.04,114.22 1576.65,146.553 1581.26,205.804 1585.86,131.839 1590.47,117.405 1595.08,118.009 1599.68,195.563 1604.29,198.724 1608.9,229.872 1613.5,185.49 1618.11,190.71 1622.72,222.765 1627.33,270.975 1631.93,139.623 1636.54,79.1184 1641.15,119.245 1645.75,168.147 1650.36,213.035 1654.97,253.911 1659.57,337.291 1664.18,351.939 1668.79,334.988 1673.4,333.181 1678,301.733 1682.61,236.9 1687.22,254.333 1691.82,315.879 1696.43,311.797 1701.04,253.58 1705.64,226.002 1710.25,304.088 1714.86,326.674 1719.46,306.773 1724.07,332.306 1728.68,427.524 1733.29,325.036 1737.89,327.398 1742.5,359.382 1747.11,416.075 1751.71,443.318 1756.32,405.799 1760.93,425.27 1765.53,476.149 1770.14,498.748 1774.75,460.66 1779.36,461.99 1783.96,429.065 1788.57,424.394 1793.18,501.92 1797.78,645.157 1802.39,704.654 1807,599.306 1811.6,673.422 1816.21,709.53 1820.82,605.12 1825.42,574.727 1830.03,651.668 1834.64,651.325 1839.25,645.464 1843.85,635.408 1848.46,665.937 1853.07,674.577 1857.67,729.077 1862.28,761.035 1866.89,841.022 1871.49,810.46 1876.1,826.777 1880.71,836.894 1885.32,840.658 1889.92,737.131 1894.53,737.118 1899.14,843.76 1903.74,927.799 1908.35,813.558 1912.96,789.637 1917.56,830.678 1922.17,835.565 1926.78,750.811 1931.38,725.429 1935.99,776.293 1940.6,859.67 1945.21,930.584 1949.81,942.725 1954.42,882.511 1959.03,897.773 1963.63,884.559 1968.24,964.859 1972.85,1040.44 1977.45,916.285 1982.06,896.896 1986.67,964.506 1991.28,1022.8 1995.88,1068.45 2000.49,899.45 2005.1,840.839 2009.7,925.922 2014.31,1141.6 "/>
</svg>
